<?xml version="1.0" standalone="no"?>
<!DOCTYPE svg PUBLIC "-//W3C//DTD SVG 1.1//EN" "http://www.w3.org/Graphics/SVG/1.1/DTD/svg11.dtd" >
<svg>
<metadata>
Created by FontForge 20090622 at Wed Apr 20 03:46:59 2016
 By deploy user
Copyright (C) 2013 by Commercial Type. All rights reserved.
</metadata>
<defs>
<font id="DalaMoaRegularNo2" horiz-adv-x="433" >
  <font-face 
    font-family="Dala Moa Regular No 2"
    font-weight="400"
    font-stretch="normal"
    units-per-em="1000"
    panose-1="2 0 0 0 0 0 0 0 0 0"
    ascent="822"
    descent="-178"
    x-height="430"
    cap-height="630"
    bbox="-165 -228 954 934"
    underline-thickness="25"
    underline-position="119"
    unicode-range="U+000D-U+FB06"
  />
<missing-glyph horiz-adv-x="179" 
 />
    <glyph glyph-name="f_b" unicode="fb" horiz-adv-x="757" 
d="M462 -8q-109 5 -178 26v377h-117v-395h-106v395h-59v35h59v94q0 148 196 163v-8q-90 -16 -90 -106v-143h117v160q-30 13 -30 42q0 41 47 46l89 10v-665q35 -16 72 -22v-9zM490 1q58 4 93.5 58t35.5 153q0 181 -117 181q-50 0 -88 -30v9q55 67 142 67t130.5 -54.5
t43.5 -155.5q0 -106 -62 -168t-178 -69v9z" />
    <glyph glyph-name="f_f_b" unicode="ffb" horiz-adv-x="981" 
d="M61 395h-59v35h59v78q0 145 200 166v-9q-94 -17 -94 -105v-130h117v92q0 26 2 33q-28 12 -28 43q0 20 13.5 32.5t34.5 12.5q14 0 25 -6q49 44 149 52v-8q-90 -16 -90 -108v-143h117v160q-29 13 -29 42q0 39 46 46l90 10v-665q35 -17 72 -22v-9q-117 5 -179 26v377h-117
v-395h-106v395h-117v-395h-106v395zM713 1q59 4 94 57.5t35 153.5q0 181 -117 181q-51 0 -87 -30v9q55 67 141 67q87 0 131 -54.5t44 -155.5q0 -106 -62.5 -168t-178.5 -69v9z" />
    <glyph glyph-name="f_f_h" unicode="ffh" horiz-adv-x="950" 
d="M61 395h-59v35h59v78q0 145 200 166v-9q-94 -17 -94 -105v-130h117v92q0 26 2 33q-28 12 -28 43q0 20 13.5 32.5t34.5 12.5q14 0 25 -7q49 43 149 51v-8q-90 -16 -90 -108v-141h117v160q-29 13 -29 42q0 41 50 47l86 9v-688h-107v395h-117v-395h-106v395h-117v-395h-106
v395zM795 302q0 80 -81 80q-39 0 -78 -25v8q23 31 61.5 52t81.5 21q61 0 92 -34t31 -93v-311h-107v302z" />
    <glyph glyph-name="f_f_k" unicode="ffk" horiz-adv-x="922" 
d="M61 395h-59v35h59v78q0 145 200 166v-9q-94 -17 -94 -105v-130h117v92q0 26 2 33q-28 12 -28 43q0 20 13.5 32.5t34.5 12.5q14 0 25 -7q49 43 149 51v-8q-90 -16 -90 -108v-141h117v160q-29 13 -29 42q0 41 50 47l86 9v-688h-107v395h-117v-395h-106v395h-117v-395h-106
v395zM805 0q-61 64 -156 200l74 72q40 -66 99.5 -144.5t101.5 -122.5v-5h-119zM771 339q12 52 13 91h115q-55 -39 -122 -98z" />
    <glyph glyph-name="f_h" unicode="fh" horiz-adv-x="726" 
d="M61 395h-59v35h59v94q0 148 196 163v-8q-90 -16 -90 -106v-143h117v160q-30 13 -30 42q0 41 50 47l86 9v-688h-106v395h-117v-395h-106v395zM572 302q0 80 -82 80q-36 0 -78 -25v8q25 32 63 52.5t81 20.5q61 0 91.5 -33.5t30.5 -93.5v-311h-106v302z" />
    <glyph glyph-name="f_k" unicode="fk" horiz-adv-x="699" 
d="M582 0q-61 64 -156 200l73 72q42 -67 101.5 -145.5t100.5 -121.5v-5h-119zM548 339q12 60 12 91h116q-58 -40 -122 -98zM61 395h-59v35h59v94q0 148 196 163v-8q-90 -16 -90 -106v-143h117v160q-30 13 -30 42q0 41 50 47l86 9v-688h-106v395h-117v-395h-106v395z" />
    <glyph glyph-name="f_f" unicode="ff" horiz-adv-x="495" 
d="M284 395h-117v-395h-106v395h-59v35h59v78q0 145 200 166v-9q-94 -17 -94 -105v-130h117v92q0 18 3 33q-29 11 -29 43q0 20 13.5 32.5t34.5 12.5q15 0 26 -7q52 43 152 51v-8q-94 -17 -94 -108v-141h94v-35h-94v-395h-106v395zM528 566q-20 0 -33.5 13t-13.5 33
t13.5 32.5t33.5 12.5q21 0 34.5 -12.5t13.5 -32.5q0 -21 -13.5 -33.5t-34.5 -12.5z" />
    <glyph glyph-name="f_i" unicode="fi" horiz-adv-x="444" 
d="M339 532q-24 0 -41.5 16.5t-17.5 41.5q0 26 17 42t42 16t42 -16t17 -42q0 -25 -17.5 -41.5t-41.5 -16.5zM65 0v395h-59v35h59v87q0 83 61.5 125t164.5 46v-9q-120 -8 -120 -124v-125h223v-430h-107v395h-116v-395h-106z" />
    <glyph glyph-name="f_l" unicode="fl" horiz-adv-x="441" 
d="M61 395h-59v35h59v94q0 148 196 163v-8q-90 -15 -90 -108v-141h117v160q-30 13 -30 42q0 41 50 47l86 9v-688h-106v395h-117v-395h-106v395z" />
    <glyph glyph-name="f_f_i" unicode="ffi" horiz-adv-x="667" 
d="M288 0v395h-117v-395h-106v395h-59v35h59v65q0 82 56.5 126t142.5 53v-9q-93 -17 -93 -105v-130h117v84q0 23 4 40q-10 4 -17 10q-13 13 -13 34q0 20 13.5 33t33.5 13q17 0 31 -11q8 8 13 11q57 39 163 44v-9q-121 -12 -121 -128v-121h222v-430h-107v395h-115v-395h-107z
M562 532q-24 0 -41.5 16.5t-17.5 41.5q0 26 17 42t42 16t42 -16t17 -42q0 -25 -17.5 -41.5t-41.5 -16.5z" />
    <glyph glyph-name="f_f_l" unicode="ffl" horiz-adv-x="665" 
d="M61 395h-59v35h59v78q0 145 200 166v-9q-94 -17 -94 -105v-130h117v92q0 26 2 33q-28 12 -28 43q0 20 13.5 32.5t34.5 12.5q14 0 25 -7q49 43 149 51v-8q-90 -16 -90 -108v-141h117v160q-29 13 -29 42q0 41 50 47l86 9v-688h-107v395h-117v-395h-106v395h-117v-395h-106
v395z" />
    <glyph glyph-name="f_f_j" unicode="ffj" horiz-adv-x="667" 
d="M447 -156q32 11 47.5 34t15.5 74v443h-115v-395h-107v395h-117v-395h-106v395h-59v35h59v78q0 145 199 166v-9q-93 -17 -93 -105v-130h117v84q0 23 4 40q-10 4 -17 10q-13 13 -13 34q0 20 13.5 33t33.5 13q17 0 31 -11q8 8 13 11q57 39 163 44v-9q-121 -12 -121 -128
v-121h222v-413q0 -90 -46.5 -130.5t-123.5 -50.5v8zM562 532q-24 0 -41.5 16.5t-17.5 41.5q0 26 17 42t42 16t42 -16t17 -42q0 -25 -17.5 -41.5t-41.5 -16.5zM393 -144q-19 0 -32 12.5t-13 32.5t13.5 33t31.5 13q19 0 32.5 -13t13.5 -32q0 -20 -13.5 -33t-32.5 -13z" />
    <glyph glyph-name="f_j" unicode="fj" horiz-adv-x="444" 
d="M339 532q-24 0 -41.5 16.5t-17.5 41.5q0 26 17 42t42 16t42 -16t17 -42q0 -25 -17.5 -41.5t-41.5 -16.5zM170 -144q-19 0 -32 12.5t-13 32.5t13.5 33t31.5 13q19 0 32.5 -13t13.5 -32q0 -20 -13.5 -33t-32.5 -13zM224 -156q32 11 47.5 34t15.5 74v443h-116v-395h-106v395
h-59v35h59v87q0 83 62 125t166 46v-9q-122 -8 -122 -127v-122h223v-413q0 -90 -46.5 -130.5t-123.5 -50.5v8z" />
    <glyph glyph-name=".notdef" horiz-adv-x="179" 
 />
    <glyph glyph-name=".null" horiz-adv-x="0" 
 />
    <glyph glyph-name="nonmarkingreturn" horiz-adv-x="333" 
 />
    <glyph glyph-name="NULL" horiz-adv-x="0" 
 />
    <glyph glyph-name="NULL" horiz-adv-x="0" 
 />
    <glyph glyph-name="CR" unicode="&#xd;" horiz-adv-x="179" 
 />
    <glyph glyph-name="space" unicode=" " horiz-adv-x="179" 
 />
    <glyph glyph-name="exclam" unicode="!" horiz-adv-x="226" 
d="M112 -9q-23 0 -38.5 14.5t-15.5 38.5q0 23 16 38t38 15q24 0 39.5 -14.5t15.5 -38.5t-15.5 -38.5t-39.5 -14.5zM101 162q-3 64 -24.5 236.5t-23.5 231.5h120q-2 -56 -23.5 -229t-23.5 -239h-25z" />
    <glyph glyph-name="quotedbl" unicode="&#x22;" horiz-adv-x="296" 
d="M70 455q-2 22 -18 104.5t-17 100.5h91q-2 -13 -18 -97t-18 -108h-20zM205 455q-2 22 -18 104.5t-17 100.5h91q-2 -13 -18 -97t-18 -108h-20z" />
    <glyph glyph-name="numbersign" unicode="#" horiz-adv-x="531" 
d="M26 200h94l-5 -23h-93zM61 375h97l-5 -24h-97zM222 550h29l-116 -550h-29zM202 200h96l-5 -23h-95zM238 375h97l-5 -24h-97zM396 550h28l-116 -550h-29zM376 200h97l-5 -23h-97zM412 375h97l-5 -24h-96z" />
    <glyph glyph-name="dollar" unicode="$" horiz-adv-x="421" 
d="M304 98q0 33 -18.5 53.5t-62.5 47.5l-18 10l-23 -286h-18l24 296l-33 20q-116 68 -116 156q0 71 45 114t113 49v-9q-29 -5 -52 -27.5t-23 -60.5q0 -34 18.5 -56.5t62.5 -48.5l6 -4l24 284h18l-25 -295l46 -29q60 -36 88.5 -70.5t28.5 -85.5q0 -75 -50.5 -117t-125.5 -46
v9q91 21 91 96zM74 29q-17 0 -29.5 12.5t-12.5 30.5q0 17 12.5 29.5t29.5 12.5t29.5 -12.5t12.5 -29.5q0 -18 -12.5 -30.5t-29.5 -12.5zM329 444q-17 0 -29.5 13t-12.5 30t12.5 29.5t29.5 12.5t29.5 -12.5t12.5 -29.5t-12.5 -30t-29.5 -13z" />
    <glyph glyph-name="percent" unicode="%" horiz-adv-x="622" 
d="M152 315q-53 7 -92 43t-39 100q0 63 39 99t92 43v-10q-60 -12 -60 -132q0 -122 60 -134v-9zM178 324q61 12 61 134q0 120 -61 132v10q53 -7 92.5 -43t39.5 -99q0 -64 -39 -100t-93 -43v9zM441 -8q-53 7 -92.5 43.5t-39.5 99.5q0 64 39 99.5t93 42.5v-9q-60 -12 -60 -133
t60 -133v-10zM467 2q61 12 61 133t-61 133v9q54 -7 93 -42.5t39 -99.5q0 -63 -39.5 -99.5t-92.5 -43.5v10zM108 4l386 597l18 -12l-387 -597z" />
    <glyph glyph-name="ampersand" unicode="&#x26;" horiz-adv-x="643" 
d="M214 346q-68 91 -68 153q0 59 41.5 96t104.5 43v-10q-51 -16 -51 -76q0 -31 15 -60t54 -81l315 -411h-142zM200 -8q-79 0 -124.5 47.5t-45.5 124.5q0 55 37 105.5t90 78.5l5 -8q-50 -39 -50 -114q0 -67 48 -122.5t108 -55.5q55 0 93 34l6 -8q-23 -35 -68 -58.5t-99 -23.5
zM341 435q23 18 34.5 40t11.5 61q0 81 -63 92v10q62 -4 94.5 -32t32.5 -71q0 -38 -30.5 -66t-74.5 -41zM506 270q27 62 41 128h97q-77 -73 -131 -135z" />
    <glyph glyph-name="quotesingle" unicode="'" horiz-adv-x="161" 
d="M70 455q-2 22 -18 104.5t-17 100.5h91q-2 -13 -18 -97t-18 -108h-20z" />
    <glyph glyph-name="parenleft" unicode="(" horiz-adv-x="271" 
d="M237 -188q-175 186 -175 419q0 240 175 419h19q-110 -188 -110 -419t110 -419h-19z" />
    <glyph glyph-name="parenright" unicode=")" horiz-adv-x="271" 
d="M16 -188q110 188 110 419t-110 419h19q174 -185 174 -419t-174 -419h-19z" />
    <glyph glyph-name="asterisk" unicode="*" horiz-adv-x="352" 
d="M169 509q-2 10 -7 31.5t-7 31.5q-3 14 -7 30t-6 25l-2 9h73q-1 -1 -15 -64q-2 -10 -7 -31.5t-7 -31.5h-15zM57 388q1 1 9 7.5l20.5 16.5t22.5 19l47 41l12 -9l-26 -59l-18.5 -41.5t-6.5 -17.5zM235 346q-1 3 -2.5 6t-3 6.5t-2.5 6.5q-2 4 -8 17.5t-9 22.5l-26 59l12 9
l47 -41l22.5 -19.5l20 -17t8.5 -7.5zM45 568l56 -34l55 -34l-4 -14q-13 2 -64 7q-9 1 -26 2.5t-19 1.5q-3 0 -10 0.5t-10 1.5zM329 499q-1 0 -65 -6q-51 -5 -64 -7l-4 14l55 34l25.5 15.5l23.5 14.5l7 4z" />
    <glyph glyph-name="plus" unicode="+" horiz-adv-x="429" 
d="M228 210v-148h-28v148h-148v28h148v148h28v-148h148v-28h-148z" />
    <glyph glyph-name="comma" unicode="," horiz-adv-x="204" 
d="M34 -104q4 18 14.5 103t14.5 102h101q-7 -19 -52.5 -105.5t-51.5 -99.5h-26z" />
    <glyph glyph-name="hyphen" unicode="-" horiz-adv-x="244" 
d="M43 272h159v-55h-159v55z" />
    <glyph glyph-name="period" unicode="." horiz-adv-x="204" 
d="M102 -8q-25 0 -41.5 16t-16.5 42t16.5 42t41.5 16t41.5 -16t16.5 -42t-16.5 -42t-41.5 -16z" />
    <glyph glyph-name="slash" unicode="/" horiz-adv-x="274" 
d="M-68 -165l323 809l27 -11l-324 -809z" />
    <glyph glyph-name="zero" unicode="0" horiz-adv-x="501" 
d="M236 -8q-91 4 -151 68t-60 155q0 92 60 155.5t151 67.5v-8q-39 -5 -69 -56t-30 -159t29.5 -159t69.5 -55v-9zM265 1q40 4 69.5 55t29.5 159t-30 159t-69 56v8q91 -4 151 -67.5t60 -155.5q0 -91 -60 -155t-151 -68v9z" />
    <glyph glyph-name="one" unicode="1" horiz-adv-x="270" 
d="M-2 381l75 23v-43h-75v20zM99 412l107 30v-442h-107v412z" />
    <glyph glyph-name="two" unicode="2" horiz-adv-x="404" 
d="M118 107q64 49 96 93.5t32 110.5q0 45 -25 70.5t-73 25.5q-33 0 -56 -9v7q42 33 112 33q72 0 110.5 -33t38.5 -86q0 -65 -57.5 -115.5t-165.5 -96.5h-12zM80 281q-19 0 -32 13t-13 33q0 18 13 31.5t32 13.5q18 0 31.5 -13.5t13.5 -31.5q0 -20 -13.5 -33t-31.5 -13zM96 81
h280l-3 -81h-367z" />
    <glyph glyph-name="three" unicode="3" horiz-adv-x="407" 
d="M113 -143q70 7 116.5 46.5t46.5 119.5q0 73 -34 102.5t-108 29.5h-26v13h26q64 0 92.5 39t28.5 100q0 104 -111 104q-36 0 -72 -17v7q17 14 52.5 25.5t74.5 11.5q77 0 119.5 -35t42.5 -93q0 -60 -47.5 -98t-126.5 -48v-1q91 -7 145.5 -40.5t54.5 -99.5q0 -45 -26 -80
t-69 -54t-87.5 -28.5t-91.5 -11.5v8zM63 -123q-18 0 -31.5 13t-13.5 33q0 18 13.5 31.5t31.5 13.5q19 0 32 -13.5t13 -31.5q0 -20 -13 -33t-32 -13zM69 275q-19 0 -32.5 13.5t-13.5 33.5t13.5 33t32.5 13t32.5 -13t13.5 -33t-13.5 -33.5t-32.5 -13.5z" />
    <glyph glyph-name="four" unicode="4" horiz-adv-x="473" 
d="M216 341l76 98h27v-549h-103v451zM64 120h113v-83h-182zM360 120h98v-83h-98v83z" />
    <glyph glyph-name="five" unicode="5" horiz-adv-x="396" 
d="M104 -153q72 9 121.5 47t49.5 108q0 72 -36 104.5t-116 32.5q-35 0 -72 -7v80q41 10 106 10q212 0 212 -176q0 -89 -74 -145t-191 -62v8zM61 -133q-20 0 -33.5 13.5t-13.5 33.5t13.5 33.5t33.5 13.5q19 0 32.5 -13.5t13.5 -33.5t-13.5 -33.5t-32.5 -13.5zM51 430h295v-87
h-295v87z" />
    <glyph glyph-name="six" unicode="6" horiz-adv-x="505" 
d="M272 1q45 8 70 57t25 116q0 84 -27 119.5t-84 35.5q-52 0 -85 -24v9q15 19 53.5 35t78.5 16q85 0 131.5 -45.5t46.5 -129.5q0 -85 -60 -139.5t-149 -58.5v9zM248 -8q-94 2 -156 72t-62 182q0 142 105 247t263 115v-9q-110 -15 -183 -112t-73 -244q0 -116 25 -175t81 -67
v-9zM425 484q-20 0 -34 14.5t-14 34.5t14 33.5t34 13.5t34 -13.5t14 -33.5t-14 -34.5t-34 -14.5z" />
    <glyph glyph-name="seven" unicode="7" horiz-adv-x="424" 
d="M335 303h13l-211 -470h-101zM22 430h381l-36 -88h-345v88z" />
    <glyph glyph-name="eight" unicode="8" horiz-adv-x="460" 
d="M223 -7q-80 0 -138.5 35.5t-58.5 105.5q0 79 119 124l5 -5q-26 -19 -44.5 -50t-18.5 -65q0 -66 35.5 -101t100.5 -35q59 0 93.5 27t34.5 77q0 54 -52 94q-21 17 -99 63q-79 45 -115.5 84.5t-36.5 103.5q0 69 56 113.5t138 44.5q79 0 125 -31t46 -87q0 -40 -30.5 -70
t-75.5 -46l-5 4q54 42 54 112q0 54 -26.5 81.5t-87.5 27.5q-51 0 -82.5 -25t-31.5 -67q0 -14 3 -26.5t6 -22t13 -20t15 -16.5t21.5 -17l24 -16t29.5 -18.5l32 -19.5q86 -53 113 -79q49 -48 49 -112q0 -79 -60 -123.5t-151 -44.5z" />
    <glyph glyph-name="nine" unicode="9" horiz-adv-x="503" 
d="M207 58q-83 0 -132.5 48t-49.5 132q0 86 60 141t148 59v-9q-45 -10 -70 -59t-25 -116q0 -85 27.5 -123.5t83.5 -38.5q45 0 83 28v-9q-15 -20 -49 -36.5t-76 -16.5zM364 197q0 115 -24.5 169.5t-81.5 62.5v9q96 0 157 -68.5t61 -184.5q0 -136 -102.5 -233t-265.5 -107v8
q112 15 184 106.5t72 237.5zM81 -128q-20 0 -34 13.5t-14 33.5t14 34.5t34 14.5t33.5 -14.5t13.5 -34.5t-13.5 -33.5t-33.5 -13.5z" />
    <glyph glyph-name="colon" unicode=":" horiz-adv-x="221" 
d="M111 -8q-25 0 -42 15.5t-17 41.5t17 41.5t42 15.5t41.5 -15.5t16.5 -41.5t-16.5 -41.5t-41.5 -15.5zM111 324q-25 0 -42 15.5t-17 41.5t17 41.5t42 15.5t41.5 -15.5t16.5 -41.5t-16.5 -41.5t-41.5 -15.5z" />
    <glyph glyph-name="semicolon" unicode=";" horiz-adv-x="221" 
d="M34 -104q6 22 16 106.5t14 98.5h101q-7 -19 -52.5 -105.5t-51.5 -99.5h-27zM111 324q-25 0 -41.5 15.5t-16.5 41.5t16.5 41.5t41.5 15.5t41.5 -15.5t16.5 -41.5t-16.5 -41.5t-41.5 -15.5z" />
    <glyph glyph-name="less" unicode="&#x3c;" horiz-adv-x="409" 
d="M58 210v29l287 116v-28l-254 -102l254 -102v-28z" />
    <glyph glyph-name="equal" unicode="=" horiz-adv-x="429" 
d="M52 162h324v-27h-324v27zM52 314h324v-28h-324v28z" />
    <glyph glyph-name="greater" unicode="&#x3e;" horiz-adv-x="409" 
d="M64 123l254 102l-254 102v28l287 -115v-30l-287 -115v28z" />
    <glyph glyph-name="question" unicode="?" horiz-adv-x="420" 
d="M113 287q88 14 132.5 51t44.5 128q0 40 -13.5 70t-36.5 47t-47.5 26t-53.5 12v9q71 -3 125.5 -17.5t93 -52t38.5 -94.5q0 -50 -21.5 -87t-59 -59.5t-80.5 -34.5t-95 -16v-104h-27v122zM86 498q-20 0 -35 15t-15 36t15 36t35 15q21 0 36 -15t15 -36t-15 -36t-36 -15z
M129 -9q-23 0 -38.5 14t-15.5 37t15.5 37t38.5 14q22 0 37 -14t15 -37t-15 -37t-37 -14z" />
    <glyph glyph-name="at" unicode="@" horiz-adv-x="774" 
d="M384 -179q-159 0 -258.5 90.5t-99.5 257.5q0 177 123.5 292.5t297.5 115.5q83 0 143.5 -22.5t95 -62.5t50.5 -88.5t16 -107.5q0 -123 -80 -209.5t-199 -86.5h-66l79 409l96 23l2 -2l-78 -404q89 8 155 86t66 184q0 52 -13.5 96t-44 82.5t-87 60.5t-135.5 22
q-164 0 -280 -111t-116 -277q0 -156 92 -241.5t241 -85.5q181 0 306 103l12 -18q-127 -106 -318 -106zM265 -8q-46 0 -71 33t-25 95q0 74 48 142.5t114 109t126 47.5v-9q-71 -18 -133 -104t-62 -172q0 -88 60 -88q49 0 76 40l5 -4q-17 -34 -57.5 -62t-80.5 -28z" />
    <glyph glyph-name="A" unicode="A" horiz-adv-x="551" 
d="M129 260h185l-95 248l50 129h32l243 -637h-129l-91 236h-205zM1 0l85 146l12 -4q-9 -108 -9 -142h-88z" />
    <glyph glyph-name="B" unicode="B" horiz-adv-x="540" 
d="M235 10q157 14 157 167q0 78 -37 112.5t-110 38.5v10q123 12 123 141q0 75 -33 104t-100 36v11q123 -4 185 -37t62 -113q0 -58 -51 -95.5t-125 -48.5v-2q207 -24 207 -159q0 -170 -278 -175v10zM64 630h122v-630h-122v630z" />
    <glyph glyph-name="C" unicode="C" horiz-adv-x="580" 
d="M347 -8q-146 8 -231 93.5t-85 229.5q0 135 94 224.5t225 98.5v-11q-92 -15 -142 -96t-50 -216q0 -136 48.5 -216.5t140.5 -95.5v-11zM387 3q82 24 165 93v-81q-59 -17 -165 -23v11zM547 539q-47 37 -80.5 57t-76.5 31v11q97 -4 157 -21v-78z" />
    <glyph glyph-name="D" unicode="D" horiz-adv-x="643" 
d="M243 10q110 6 177 80t67 225q0 290 -245 304v11q74 -1 138.5 -18.5t118 -53.5t84.5 -98t31 -145q0 -80 -31 -142t-84 -98.5t-117.5 -55t-138.5 -19.5v10zM64 630h122v-630h-122v630z" />
    <glyph glyph-name="E" unicode="E" horiz-adv-x="516" 
d="M64 630h122v-630h-122v630zM243 10q150 35 248 68v-78h-248v10zM394 283l-151 30v11q102 17 151 29v-70zM484 557q-153 47 -242 62v11h242v-73z" />
    <glyph glyph-name="F" unicode="F" horiz-adv-x="497" 
d="M64 630h122v-630h-122v630zM394 288q-40 9 -151 31v11q125 25 151 31v-73zM480 558q-121 36 -238 61v11h238v-72z" />
    <glyph glyph-name="G" unicode="G" horiz-adv-x="636" 
d="M337 -8q-144 8 -225.5 98t-81.5 225q0 141 92 226t243 97v-11q-94 -16 -151 -98t-57 -214q0 -58 9.5 -109t30 -95.5t56.5 -73t84 -35.5v-10zM378 2q63 9 97 25v239h112v-235q-82 -35 -209 -39v10zM575 537q-84 62 -166 90v11q111 -5 166 -19v-82z" />
    <glyph glyph-name="H" unicode="H" horiz-adv-x="659" 
d="M64 630h122v-630h-122v630zM219 342h222v-24h-222v24zM473 630h122v-630h-122v630z" />
    <glyph glyph-name="I" unicode="I" horiz-adv-x="251" 
d="M64 630h122v-630h-122v630z" />
    <glyph glyph-name="J" unicode="J" horiz-adv-x="397" 
d="M129 2q86 18 86 128v500h122v-454q0 -91 -60 -135.5t-148 -48.5v10zM60 18q-23 0 -39.5 16.5t-16.5 41.5q0 24 16.5 40.5t39.5 16.5q24 0 41 -16.5t17 -40.5q0 -25 -17 -41.5t-41 -16.5z" />
    <glyph glyph-name="K" unicode="K" horiz-adv-x="612" 
d="M64 630h122v-630h-122v630zM466 0q-119 153 -221 303l86 78l139 -198l131 -175v-8h-135zM429 499l46 131h119l-157 -138z" />
    <glyph glyph-name="L" unicode="L" horiz-adv-x="503" 
d="M65 630h122v-630h-122v630zM243 10q37 10 71 21t53 18l58.5 22.5l59.5 23.5v-95h-242v10z" />
    <glyph glyph-name="M" unicode="M" horiz-adv-x="770" 
d="M50 630h129l245 -512l-62 -126h-7zM22 0q28 56 75 180h11q1 -84 8 -180h-94zM563 630h120l28 -630h-120z" />
    <glyph glyph-name="N" unicode="N" horiz-adv-x="624" 
d="M128 484q-48 66 -113 146h154l381 -539v-94h-80zM37 0q27 92 43 168h12q19 -93 43 -168h-98zM538 466q-18 82 -44 164h99q-20 -63 -44 -164h-11z" />
    <glyph glyph-name="O" unicode="O" horiz-adv-x="698" 
d="M327 -8q-125 6 -211 100t-86 223t86 223t211 100v-10q-60 -9 -99.5 -57t-55 -112t-15.5 -144t15.5 -144t55 -112t99.5 -57v-10zM371 2q61 9 100.5 57t54.5 112t15 144t-15 144t-54.5 112t-100.5 57v10q125 -6 211 -100t86 -223t-86 -223t-211 -100v10z" />
    <glyph glyph-name="P" unicode="P" horiz-adv-x="527" 
d="M241 283q78 10 109.5 49.5t31.5 124.5t-34 119t-107 43v11q265 -12 265 -171q0 -169 -265 -187v11zM64 630h122v-630h-122v630z" />
    <glyph glyph-name="Q" unicode="Q" horiz-adv-x="698" 
d="M327 -8q-125 6 -211 100t-86 223t86 223t211 100v-10q-61 -9 -100.5 -57t-55 -112t-15.5 -144t15.5 -144t55 -112t100.5 -57v-10zM371 2q61 9 100.5 57t54.5 112t15 144t-15 144t-54.5 112t-100.5 57v10q125 -6 211 -100t86 -223t-86 -223t-211 -100v10zM624 -165
q-196 65 -291 112v11q205 -35 308 -46z" />
    <glyph glyph-name="R" unicode="R" horiz-adv-x="565" 
d="M434 0l-91.5 142t-102.5 163q137 31 137 159q0 77 -35 111.5t-106 43.5v11q264 -6 264 -174q0 -53 -39.5 -91t-99.5 -58q22 -38 55 -87l80.5 -116l68.5 -98v-6h-131zM64 630h122v-630h-122v630z" />
    <glyph glyph-name="S" unicode="S" horiz-adv-x="473" 
d="M226 2q48 10 80 40.5t32 88.5q0 44 -23 68t-91 62l-47 24q-66 34 -101 73.5t-35 100.5q0 77 57.5 126t132.5 53v-10q-41 -6 -69.5 -33.5t-28.5 -67.5q0 -49 22.5 -73.5t95.5 -64.5l40 -21q39 -22 56.5 -33t41.5 -33t33.5 -49.5t9.5 -64.5q0 -85 -62.5 -138.5
t-143.5 -57.5v10zM182 -8q-98 5 -147 23v80q65 -67 147 -93v-10zM403 549q-68 66 -128 79v10q68 0 128 -16v-73z" />
    <glyph glyph-name="T" unicode="T" horiz-adv-x="572" 
d="M9 630h178v-11q-58 -19 -178 -80v91zM225 630h122v-630h-122v630zM563 539q-120 61 -177 80v11h177v-91z" />
    <glyph glyph-name="U" unicode="U" horiz-adv-x="612" 
d="M306 -8q-112 0 -178.5 59.5t-66.5 177.5v401h122v-397q0 -87 44 -130t124 -43q104 0 150 55l8 -7q-21 -50 -74 -83t-129 -33zM528 452q-32 130 -46 178h102q-19 -68 -45 -178h-11z" />
    <glyph glyph-name="V" unicode="V" horiz-adv-x="552" 
d="M7 630h130l199 -505l-50 -128h-32zM452 467l14 163h93q-38 -61 -97 -168z" />
    <glyph glyph-name="W" unicode="W" horiz-adv-x="835" 
d="M12 630h130l173 -500l-50 -133h-33zM333 630h130l173 -500l-51 -133h-32zM732 467q12 124 14 163h93q-78 -132 -97 -168z" />
    <glyph glyph-name="X" unicode="X" horiz-adv-x="587" 
d="M9 0l76.5 83.5t72.5 81.5l10 -5l-55 -160h-104zM38 630h137l397 -630h-140zM434 489q24 76 41 141h101q-74 -76 -134 -147z" />
    <glyph glyph-name="Y" unicode="Y" horiz-adv-x="539" 
d="M197 292l-200 338h135l187 -316v-314h-122v292zM408 483q20 51 51 147h94q-24 -24 -138 -153z" />
    <glyph glyph-name="Z" unicode="Z" horiz-adv-x="556" 
d="M45 630h244v-11q-107 -25 -251 -74zM399 630h134l-373 -630h-133zM263 10q36 7 73.5 17.5t56.5 16.5t67 23l63 22l-8 -89h-252v10z" />
    <glyph glyph-name="bracketleft" unicode="[" horiz-adv-x="276" 
d="M78 650h194v-21h-117v-796h117v-21h-194v838z" />
    <glyph glyph-name="backslash" unicode="\" horiz-adv-x="274" 
d="M-8 633l27 11l323 -809l-26 -11z" />
    <glyph glyph-name="bracketright" unicode="]" horiz-adv-x="276" 
d="M4 -167h117v796h-117v21h194v-838h-194v21z" />
    <glyph glyph-name="asciicircum" unicode="^" horiz-adv-x="389" 
d="M184 591h21l129 -260h-26l-114 229l-113 -229h-26z" />
    <glyph glyph-name="underscore" unicode="_" horiz-adv-x="485" 
d="M-7 -96h500v-25h-500v25z" />
    <glyph glyph-name="grave" unicode="`" 
d="M114 546l28 72l165 -101l-4 -8z" />
    <glyph glyph-name="a" unicode="a" horiz-adv-x="426" 
d="M138 -8q-55 0 -84.5 30t-29.5 75q0 31 13.5 53.5t28 31.5t38.5 19q52 17 142 36v-9q-69 -24 -88 -35q-31 -25 -31 -77q0 -80 57 -80q30 0 65 26v-8q-41 -62 -111 -62zM271 305q0 53 -24.5 75t-77.5 22q-43 0 -67 -10v8q19 15 58 26.5t77 11.5q140 0 140 -116v-322h-106
v305zM93 286q-20 0 -31.5 12t-11.5 30q0 19 11.5 31t31.5 12t31.5 -12t11.5 -31q0 -18 -11.5 -30t-31.5 -12z" />
    <glyph glyph-name="b" unicode="b" horiz-adv-x="524" 
d="M256 1q59 4 94 57.5t35 153.5q0 92 -26.5 136t-85.5 44q-57 0 -92 -29v9q22 27 60.5 46.5t81.5 19.5q86 0 130 -54t44 -155q0 -106 -63.5 -168.5t-177.5 -68.5v9zM228 -8q-116 5 -178 26v657l107 13v-660q31 -21 71 -27v-9z" />
    <glyph glyph-name="c" unicode="c" horiz-adv-x="411" 
d="M235 -8q-97 0 -153 61.5t-56 157.5q0 102 69 160t175 67v-9q-61 -8 -98.5 -57t-37.5 -127q0 -77 39 -126t106 -49q70 0 121 43v-10q-16 -42 -57 -76.5t-108 -34.5zM334 317q-22 0 -37 15t-15 37t15 37t37 15q23 0 37.5 -15t14.5 -37q0 -23 -14.5 -37.5t-37.5 -14.5z" />
    <glyph glyph-name="d" unicode="d" horiz-adv-x="508" 
d="M208 -8q-82 0 -131.5 58t-49.5 158q0 101 69 163.5t162 66.5v-8q-55 -6 -88 -59t-33 -143q0 -91 34 -138t89 -47q37 0 69 28v-9q-13 -29 -43.5 -49.5t-77.5 -20.5zM351 405q-20 16 -56 25v8q35 -2 56 -6v243l107 13v-684l-107 -10v411z" />
    <glyph glyph-name="e" unicode="e" 
d="M237 -8q-99 0 -155.5 64t-56.5 165q0 89 60 150t139 67v-9q-90 -23 -90 -174q0 -91 40.5 -137t109.5 -46q78 0 129 44v-12q-18 -43 -63 -77.5t-113 -34.5zM169 270l145 11q0 63 -16 103t-42 45v9q76 -6 114.5 -55.5t38.5 -121.5h-240v9z" />
    <glyph glyph-name="f" unicode="f" horiz-adv-x="259" 
d="M305 566q-20 0 -33.5 13t-13.5 33t13.5 32.5t33.5 12.5q21 0 34.5 -12.5t13.5 -32.5q0 -21 -13.5 -33.5t-34.5 -12.5zM61 395h-59v35h59v91q0 151 200 166v-9q-94 -10 -94 -108v-140h94v-35h-94v-395h-106v395z" />
    <glyph glyph-name="g" unicode="g" horiz-adv-x="461" 
d="M231 -200q153 18 153 111q0 61 -81 61h-168q-103 0 -103 89q0 53 75 96l5 -6q-22 -15 -22 -44q0 -35 40 -35h180q68 0 106.5 -30t38.5 -91q0 -64 -59.5 -107t-164.5 -53v9zM201 -209q-199 5 -199 85q0 58 107 73l1 -8q-16 -5 -29.5 -21t-13.5 -42q0 -70 134 -78v-9z
M205 151q-65 4 -116.5 42t-51.5 101q0 65 51 102.5t117 41.5v-8q-70 -13 -70 -136q0 -122 70 -135v-8zM230 159q69 13 69 135q0 123 -69 136v8q65 -4 116 -42t51 -102q0 -63 -50.5 -101t-116.5 -42v8zM419 385q-20 0 -33 13.5t-13 33.5t13 33.5t33 13.5t33.5 -13.5
t13.5 -33.5t-13.5 -33.5t-33.5 -13.5z" />
    <glyph glyph-name="h" unicode="h" horiz-adv-x="493" 
d="M338 302q0 80 -81 80q-39 0 -78 -25v8q23 31 61.5 52t81.5 21q61 0 92 -33.5t31 -93.5v-311h-107v302zM50 676l107 12v-688h-107v676z" />
    <glyph glyph-name="i" unicode="i" horiz-adv-x="207" 
d="M50 423l107 13v-436h-107v423zM103 500q-24 0 -41.5 16.5t-17.5 41.5q0 26 17 42t42 16t42 -16t17 -42q0 -25 -17.5 -41.5t-41.5 -16.5z" />
    <glyph glyph-name="j" unicode="j" horiz-adv-x="209" 
d="M105 500q-24 0 -41.5 16.5t-17.5 41.5q0 26 17 42t42 16t42 -16t17 -42q0 -25 -17.5 -41.5t-41.5 -16.5zM-19 -156q71 18 71 108v471l107 13v-419q0 -90 -49 -130.5t-129 -50.5v8zM-65 -144q-19 0 -32 12.5t-13 32.5t13.5 33t31.5 13q19 0 32.5 -13t13.5 -32
q0 -20 -13.5 -33t-32.5 -13z" />
    <glyph glyph-name="k" unicode="k" horiz-adv-x="460" 
d="M345 0l-47.5 59t-61 77.5t-44.5 63.5l74 72q27 -43 59 -87l77.5 -103l59.5 -77v-5h-117zM50 675l107 13v-688h-107v675zM314 339q12 52 13 91h115q-34 -23 -122 -98z" />
    <glyph glyph-name="l" unicode="l" horiz-adv-x="208" 
d="M51 675l106 13v-688h-106v675z" />
    <glyph glyph-name="m" unicode="m" horiz-adv-x="755" 
d="M325 303q0 40 -17 59.5t-58 19.5q-32 0 -71 -25v8q54 73 133 73q119 0 119 -127v-311h-106v303zM600 303q0 40 -17.5 59.5t-58.5 19.5q-29 0 -71 -25v8q58 73 134 73q119 0 119 -127v-311h-106v303zM50 427l107 12v-439h-107v427z" />
    <glyph glyph-name="n" unicode="n" horiz-adv-x="493" 
d="M338 303q0 79 -81 79q-41 0 -78 -24v7q23 31 61.5 52t81.5 21q61 0 92 -33.5t31 -92.5v-312h-107v303zM50 427l107 12v-439h-107v427z" />
    <glyph glyph-name="o" unicode="o" horiz-adv-x="512" 
d="M237 -8q-91 8 -151.5 71t-60.5 152t60.5 152t151.5 71v-8q-26 -6 -43 -21q-57 -45 -57 -194q0 -147 57 -194q19 -16 43 -20v-9zM274 1q23 4 44 20q57 47 57 194q0 149 -57 194q-18 15 -44 21v8q91 -8 152 -71t61 -152q0 -88 -61 -151.5t-152 -71.5v9z" />
    <glyph glyph-name="p" unicode="p" horiz-adv-x="524" 
d="M50 427l107 13v-410q38 -24 73 -29v-9q-43 2 -73 11v-181h-107v605zM258 1q58 6 92.5 59t34.5 152q0 96 -27.5 138t-88.5 42q-46 0 -89 -30v9q22 28 61 47.5t82 19.5q86 0 130 -54t44 -155q0 -107 -62 -169t-177 -68v9z" />
    <glyph glyph-name="q" unicode="q" horiz-adv-x="508" 
d="M209 -9q-83 0 -132.5 57t-49.5 156q0 73 35.5 127t87.5 79t113 28v-8q-56 -6 -91 -59t-35 -144t34.5 -136t90.5 -45q38 0 67 27v-9q-12 -27 -44 -50t-76 -23zM351 409q-32 18 -58 21v8q99 -2 165 -17v-599h-107v587z" />
    <glyph glyph-name="r" unicode="r" horiz-adv-x="338" 
d="M181 325q9 47 40 80t77 33q21 0 30 -4v-88q-15 7 -47 7q-62 0 -100 -38v10zM50 427l107 12v-439h-107v427z" />
    <glyph glyph-name="s" unicode="s" horiz-adv-x="362" 
d="M178 1q31 4 54.5 25t23.5 55q0 29 -16 45.5t-52 32.5l-64 29q-93 44 -93 121q0 51 41 88t103 41v-8q-28 -4 -46.5 -20t-18.5 -43q0 -48 55 -72l79 -36q91 -42 91 -122q0 -63 -43.5 -102t-113.5 -43v9zM147 -8q-77 6 -114 17v77q67 -68 114 -85v-9zM306 355
q-46 53 -105 75v8q59 -1 105 -15v-68z" />
    <glyph glyph-name="t" unicode="t" horiz-adv-x="320" 
d="M187 -8q-118 0 -118 132v271h-64v35h64v110l106 37v-147h131v-35h-131v-259q0 -44 15.5 -67.5t56.5 -23.5q49 0 73 16v-11q-14 -23 -50 -40.5t-83 -17.5z" />
    <glyph glyph-name="u" unicode="u" horiz-adv-x="494" 
d="M177 -7q-64 0 -96 35t-32 95v304l106 13v-310q0 -80 81 -80q42 0 79 25v-8q-20 -30 -58 -52t-80 -22zM337 427l106 13v-433l-106 -12v432z" />
    <glyph glyph-name="v" unicode="v" horiz-adv-x="398" 
d="M0 430h111l140 -325l-44 -106h-20zM319 311q12 81 12 119h78q-40 -54 -82 -125z" />
    <glyph glyph-name="w" unicode="w" horiz-adv-x="616" 
d="M4 430h113l127 -324l-45 -107h-26zM242 430h113l124 -324l-45 -107h-26zM535 311q8 53 12 119h78q-16 -21 -83 -125z" />
    <glyph glyph-name="x" unicode="x" horiz-adv-x="424" 
d="M5 0q75 75 119 124l5 -7l-35 -117h-89zM3 430h120l290 -430h-119zM302 316q4 19 13.5 54.5l15.5 59.5h89q-27 -27 -61.5 -65.5l-51.5 -56.5z" />
    <glyph glyph-name="y" unicode="y" horiz-adv-x="399" 
d="M1 430h112l143 -317l-44 -109h-19zM83 -178q-19 0 -32.5 12.5t-13.5 32.5t13.5 32.5t32.5 12.5t32.5 -12.5t13.5 -32.5t-13.5 -32.5t-32.5 -12.5zM320 311q7 48 12 119h78q-53 -77 -83 -125z" />
    <glyph glyph-name="z" unicode="z" horiz-adv-x="413" 
d="M36 430h143v-8q-61 -20 -147 -68zM276 430h119l-259 -430h-118zM226 9q89 27 167 72l-5 -81h-162v9z" />
    <glyph glyph-name="braceleft" unicode="{" horiz-adv-x="347" 
d="M338 -189q-92 2 -136.5 39t-44.5 131v108q0 76 -28.5 105t-92.5 29v16q64 0 92.5 28.5t28.5 104.5v108q0 92 44.5 130t136.5 40v-11q-100 -6 -100 -111v-137q0 -77 -32.5 -114.5t-105.5 -45.5v-2q73 -8 105.5 -45.5t32.5 -114.5v-136q0 -106 100 -112v-10z" />
    <glyph glyph-name="bar" unicode="|" horiz-adv-x="191" 
d="M79 649h32v-838h-32v838z" />
    <glyph glyph-name="braceright" unicode="}" horiz-adv-x="347" 
d="M9 -179q101 6 101 112v136q0 77 32 114.5t106 45.5v2q-74 8 -106 45.5t-32 114.5v137q0 105 -101 111v11q92 -2 136.5 -39.5t44.5 -130.5v-108q0 -76 28.5 -104.5t92.5 -28.5v-16q-64 0 -92.5 -29t-28.5 -105v-108q0 -94 -44 -131t-137 -39v10z" />
    <glyph glyph-name="asciitilde" unicode="~" horiz-adv-x="408" 
d="M286 217q-8 0 -16.5 2t-14.5 4t-16 8t-13.5 8.5l-15.5 11t-14 9.5q-42 28 -67 28q-53 0 -62 -67l-29 1q5 46 30 70.5t61 24.5q25 0 41.5 -7.5t41.5 -25.5q5 -3 17 -12t19 -13t18.5 -8.5t22.5 -4.5q24 0 36.5 14.5t17.5 52.5l29 -1q-10 -95 -86 -95z" />
    <glyph glyph-name="uni00A0" unicode="&#xa0;" horiz-adv-x="179" 
 />
    <glyph glyph-name="exclamdown" unicode="&#xa1;" horiz-adv-x="226" 
d="M114 489q23 0 38.5 -14.5t15.5 -38.5q0 -23 -16 -38t-38 -15q-24 0 -39.5 14.5t-15.5 38.5t15.5 38.5t39.5 14.5zM125 318q3 -64 24.5 -236.5t23.5 -231.5h-120q2 56 23.5 229t23.5 239h25z" />
    <glyph glyph-name="cent" unicode="&#xa2;" horiz-adv-x="413" 
d="M231 -8q-19 0 -35 3l-12 -69h-17l12 72q-70 15 -111.5 70t-41.5 138q0 89 56.5 152t149.5 79v-7q-50 -9 -79 -59.5t-29 -126.5q0 -107 72 -153l73 419h18l-76 -428q30 -13 68 -13q74 0 121 49l3 -6q-16 -45 -58 -82.5t-114 -37.5zM337 317q-23 0 -37.5 15t-14.5 37
t14.5 37t37.5 15q22 0 37 -15t15 -37q0 -23 -15 -37.5t-37 -14.5z" />
    <glyph glyph-name="sterling" unicode="&#xa3;" horiz-adv-x="454" 
d="M24 274h68l11 101q11 102 75.5 156.5t156.5 63.5v-8q-104 -16 -118 -156l-17 -157h112v-16h-113l-15 -140l-13 -118h-109l28 258h-66v16zM222 9q113 28 214 72v-81h-214v9zM377 467q-20 0 -33.5 13.5t-13.5 32.5q0 20 13.5 33t33.5 13q19 0 32.5 -13t13.5 -33
q0 -19 -13.5 -32.5t-32.5 -13.5z" />
    <glyph glyph-name="yen" unicode="&#xa5;" horiz-adv-x="454" 
d="M69 285h93l-163 280h110l163 -280h103v-16h-100v-65h100v-16h-100v-188h-105v188h-101v16h101v65h-101v16zM344 417q2 14 30 76t28 72h80q-78 -86 -130 -153z" />
    <glyph glyph-name="brokenbar" unicode="&#xa6;" horiz-adv-x="191" 
d="M79 185h32v-374h-32v374zM79 649h32v-375h-32v375z" />
    <glyph glyph-name="section" unicode="&#xa7;" horiz-adv-x="471" 
d="M156 -212q42 11 68 40.5t26 67.5q0 31 -13.5 56t-46.5 67q-8 11 -48 57.5l-49 57.5q-71 87 -71 163q0 39 15 72.5t30.5 51t41.5 40.5l7 -8q-27 -33 -27 -77q0 -70 67 -157q7 -9 50.5 -60t51.5 -63q67 -83 67 -139q0 -62 -51 -115t-118 -63v9zM356 -30q27 34 27 78
q0 42 -20 81t-61 90q-87 103 -95 114q-62 75 -62 135q0 61 47 107t115 56v-8q-85 -23 -85 -98q0 -31 12 -55.5t41 -59.5l48.5 -56.5t47.5 -56.5q78 -93 78 -172q0 -28 -7 -51.5t-21.5 -45.5t-25.5 -34t-32 -33zM110 -202q-20 0 -34 14.5t-14 32.5q0 19 14 33.5t34 14.5
t33.5 -14.5t13.5 -33.5t-13.5 -33t-33.5 -14zM354 517q-20 0 -34 14t-14 33t14 33.5t34 14.5t33.5 -14.5t13.5 -33.5t-13.5 -33t-33.5 -14z" />
    <glyph glyph-name="dieresis" unicode="&#xa8;" 
d="M137 518q-20 0 -33 13.5t-13 32.5t13 32t33 13q18 0 31.5 -13t13.5 -32t-13.5 -32.5t-31.5 -13.5zM296 518q-18 0 -31.5 13.5t-13.5 32.5t13.5 32t31.5 13q20 0 33 -13t13 -32t-13 -32.5t-33 -13.5z" />
    <glyph glyph-name="copyright" unicode="&#xa9;" horiz-adv-x="699" 
d="M331 -6q-132 10 -218 97.5t-86 223.5t86 223.5t218 97.5v-13q-127 -10 -207.5 -94.5t-80.5 -213.5q0 -130 80.5 -214t207.5 -94v-13zM352 101q-96 4 -158.5 61.5t-62.5 151.5q0 91 64 150.5t154 65.5v-9q-63 -11 -97 -64.5t-34 -139.5q0 -90 35 -143.5t99 -63.5v-9z
M369 7q126 10 206.5 94t80.5 214q0 129 -80 213.5t-207 94.5v13q132 -10 218 -97.5t86 -223.5t-86 -223.5t-218 -97.5v13zM386 110q58 18 113 63v-54q-46 -14 -113 -18v9zM494 461q-48 40 -111 60v9q71 -5 110 -15z" />
    <glyph glyph-name="ordfeminine" unicode="&#xaa;" horiz-adv-x="282" 
d="M93 363q-32 0 -50.5 18t-18.5 47q0 46 58 65q2 1 75 22v-8q-20 -5 -45 -20q-23 -15 -23 -45q0 -50 33 -50q29 0 38 13v-6q-5 -12 -22.5 -24t-44.5 -12zM179 554q0 61 -65 61q-26 0 -45 -6v7q30 22 86 22q91 0 91 -72v-198h-67v186zM70 545q-11 0 -19 7t-8 18t8 18.5
t19 7.5q12 0 19.5 -7.5t7.5 -18.5t-7.5 -18t-19.5 -7z" />
    <glyph glyph-name="guillemotleft" unicode="&#xab;" horiz-adv-x="308" 
d="M32 220v9l118 125l8 -4l-65 -125l65 -125l-8 -4zM149 220v9l119 125l8 -4l-66 -125l66 -125l-8 -4z" />
    <glyph glyph-name="registered" unicode="&#xae;" horiz-adv-x="427" 
d="M262 355l-66 94q24 6 35 15.5t11 31.5q0 27 -9.5 39t-33.5 14v5q87 0 87 -57q0 -34 -47 -48q29 -47 68 -90v-4h-45zM191 259q-72 8 -119.5 61.5t-47.5 126.5q0 74 47 126.5t120 62.5v-13q-66 -10 -108.5 -59.5t-42.5 -116.5q0 -66 42.5 -116t108.5 -60v-12zM235 271
q68 10 110 59.5t42 116.5t-42.5 116.5t-109.5 59.5v13q73 -10 120.5 -62.5t47.5 -126.5q0 -73 -47.5 -126.5t-120.5 -61.5v12zM140 554h42v-199h-42v199z" />
    <glyph glyph-name="macron" unicode="&#xaf;" 
d="M113 582h214v-35h-214v35z" />
    <glyph glyph-name="degree" unicode="&#xb0;" horiz-adv-x="301" 
d="M137 371q-44 3 -72.5 33.5t-28.5 76.5t28.5 76.5t72.5 32.5v-16q-35 -4 -58 -28.5t-23 -64.5q0 -41 23 -65.5t58 -27.5v-17zM164 388q36 3 58.5 27.5t22.5 65.5t-22 65t-59 28v16q45 -2 73 -32t28 -77t-28 -77t-73 -33v17z" />
    <glyph glyph-name="twosuperior" unicode="&#xb2;" horiz-adv-x="318" 
d="M84 340q65 58 88 91q33 49 33 99q0 80 -83 80q-32 0 -64 -15v7q13 13 42.5 24t61.5 11q58 0 88.5 -27t30.5 -73q0 -103 -187 -197h-10zM60 516q-14 0 -23.5 9.5t-9.5 23.5t9.5 23.5t23.5 9.5t23.5 -9.5t9.5 -23.5t-9.5 -23.5t-23.5 -9.5zM68 320h222l-3 -57h-275z" />
    <glyph glyph-name="threesuperior" unicode="&#xb3;" horiz-adv-x="299" 
d="M83 265q50 4 82 30.5t32 74.5q0 43 -19.5 62t-61.5 19h-21v10h21q73 0 73 85q0 72 -73 72q-36 0 -58 -14v7q31 26 91 26q50 0 80.5 -22.5t30.5 -63.5q0 -77 -106 -93v-2q120 -5 120 -86q0 -53 -53.5 -81t-137.5 -30v6zM54 528q-14 0 -23 9t-9 23q0 13 9 22t23 9
q13 0 22 -9t9 -22q0 -14 -9 -23t-22 -9zM82 307q0 -13 -9 -22t-22 -9q-14 0 -23 9t-9 22q0 14 9 23t23 9q13 0 22 -9t9 -23z" />
    <glyph glyph-name="acute" unicode="&#xb4;" 
d="M120 517l73.5 45.5l91.5 55.5l28 -72l-190 -37z" />
    <glyph glyph-name="paragraph" unicode="&#xb6;" horiz-adv-x="556" 
d="M257 220q-54 0 -104 22t-84.5 70t-34.5 111q0 96 64.5 151.5t161.5 55.5h271v-16h-198v-394h-76zM315 186h18v-357h-18v357zM435 578h18v-749h-18v749z" />
    <glyph glyph-name="periodcentered" unicode="&#xb7;" horiz-adv-x="224" 
d="M112 168q-25 0 -41.5 16t-16.5 42t16.5 42t41.5 16t41.5 -16t16.5 -42t-16.5 -42t-41.5 -16z" />
    <glyph glyph-name="cedilla" unicode="&#xb8;" 
d="M222 -201q11 9 11 18q0 12 -6.5 20.5t-26.5 26.5q-25 23 -25 49q0 37 61 65l6 -6q-13 -15 -13 -27q0 -17 25 -42q32 -32 32 -53q0 -30 -60 -57zM179 -223q-11 0 -18.5 8t-7.5 19t7.5 18.5t18.5 7.5t18.5 -7.5t7.5 -18.5t-7.5 -19t-18.5 -8z" />
    <glyph glyph-name="onesuperior" unicode="&#xb9;" horiz-adv-x="224" 
d="M15 603l55 13v-35h-55v22zM92 622l72 14v-373h-72v359z" />
    <glyph glyph-name="ordmasculine" unicode="&#xba;" horiz-adv-x="323" 
d="M149 365q-58 7 -95 44t-37 93q0 55 37 92.5t95 43.5v-8q-62 -14 -62 -128q0 -116 62 -129v-8zM174 373q63 13 63 129q0 114 -63 128v8q59 -6 95.5 -43t36.5 -93t-36.5 -93t-95.5 -44v8z" />
    <glyph glyph-name="guillemotright" unicode="&#xbb;" horiz-adv-x="308" 
d="M32 100l65 125l-65 125l8 4l119 -125v-9l-119 -124zM149 100l66 125l-66 125l8 4l119 -125v-9l-119 -124z" />
    <glyph glyph-name="onequarter" unicode="&#xbc;" horiz-adv-x="516" 
d="M125 -49h87v-55h-128zM237 86l53 64h20v-353h-73v289zM148 603l55 13v-35h-55v22zM21 220h481v-19h-481v19zM225 622l73 14v-357h-73v343zM335 -49h75l-2 -55h-73v55z" />
    <glyph glyph-name="onehalf" unicode="&#xbd;" horiz-adv-x="516" 
d="M201 -128q110 98 110 176q0 75 -80 75q-30 0 -62 -15v8q12 15 41.5 25t61.5 10q114 0 114 -97q0 -54 -50 -100.5t-125 -81.5h-10zM171 31q-14 0 -23.5 9.5t-9.5 23.5t9.5 23.5t23.5 9.5t23 -9.5t9 -23.5t-9 -23.5t-23 -9.5zM148 603l55 13v-35h-55v22zM187 -146h216
l-3 -57h-269zM21 220h481v-19h-481v19zM225 622l73 14v-357h-73v343z" />
    <glyph glyph-name="threequarters" unicode="&#xbe;" horiz-adv-x="516" 
d="M173 354q13 0 22 -9t9 -23q0 -13 -9 -22t-22 -9q-14 0 -23 9t-9 22q0 14 9 23t23 9zM172 524q-13 0 -22 9t-9 22q0 14 9 23t22 9q14 0 23 -9t9 -23q0 -13 -9 -22t-23 -9zM204 282q44 6 71.5 30.5t27.5 69.5q0 42 -17 59t-59 17h-14v11h14q38 0 53 19.5t15 58.5
q0 66 -74 66q-27 0 -44 -11v8q26 24 80 24q50 0 80 -20.5t30 -60.5q0 -74 -102 -88v-2q115 -5 115 -80q0 -49 -51 -77.5t-125 -30.5v7zM125 -49h87v-55h-128zM237 86l53 64h20v-353h-73v289zM21 220h481v-19h-481v19zM335 -49h75l-2 -55h-73v55z" />
    <glyph glyph-name="questiondown" unicode="&#xbf;" horiz-adv-x="420" 
d="M309 185q-88 -14 -132.5 -51t-44.5 -128q0 -40 13.5 -70t36.5 -47t47.5 -26t53.5 -12v-9q-71 3 -125.5 17.5t-93 52t-38.5 94.5q0 50 21.5 87t59 59.5t80.5 34.5t95 16v104h27v-122zM336 -26q20 0 35 -15t15 -36t-15 -36t-35 -15q-21 0 -36 15t-15 36t15 36t36 15z
M293 481q23 0 38.5 -14t15.5 -37t-15.5 -37t-38.5 -14q-22 0 -37 14t-15 37t15 37t37 14z" />
    <glyph glyph-name="Agrave" unicode="&#xc0;" horiz-adv-x="551" 
d="M129 260h185l-95 248l50 129h32l243 -637h-129l-91 236h-205zM1 0l85 146l12 -4q-9 -108 -9 -142h-88zM375 674q-15 2 -98 20t-98 19l25 66q17 -12 90.5 -51t82.5 -45z" />
    <glyph glyph-name="Aacute" unicode="&#xc1;" horiz-adv-x="551" 
d="M129 260h185l-95 248l50 129h32l243 -637h-129l-91 236h-205zM1 0l85 146l12 -4q-9 -108 -9 -142h-88zM203 683q9 6 82.5 45t90.5 51l25 -66q-15 -1 -98 -19t-98 -20z" />
    <glyph glyph-name="Acircumflex" unicode="&#xc2;" horiz-adv-x="551" 
d="M129 260h185l-95 248l50 129h32l243 -637h-129l-91 236h-205zM1 0l85 146l12 -4q-9 -108 -9 -142h-88zM163 680l119 120h6l118 -120l-5 -6l-113 61h-6l-114 -61z" />
    <glyph glyph-name="Atilde" unicode="&#xc3;" horiz-adv-x="551" 
d="M129 260h185l-95 248l50 129h32l243 -637h-129l-91 236h-205zM1 0l85 146l12 -4q-9 -108 -9 -142h-88zM152 670q14 45 44.5 70.5t69.5 25.5h102q22 0 33.5 8.5t24.5 27.5h8q-30 -101 -110 -101h-105q-40 0 -60 -31h-7z" />
    <glyph glyph-name="Adieresis" unicode="&#xc4;" horiz-adv-x="551" 
d="M129 260h185l-95 248l50 129h32l243 -637h-129l-91 236h-205zM1 0l85 146l12 -4q-9 -108 -9 -142h-88zM190 685q-20 0 -34 14.5t-14 34.5t14 33.5t34 13.5t34 -13.5t14 -33.5t-14 -34.5t-34 -14.5zM378 685q-19 0 -33 14.5t-14 34.5t14 33.5t33 13.5q20 0 34.5 -13.5
t14.5 -33.5t-14.5 -34.5t-34.5 -14.5z" />
    <glyph glyph-name="Aring" unicode="&#xc5;" horiz-adv-x="551" 
d="M129 260h185l-95 248l50 129h32l243 -637h-129l-91 236h-205zM1 0l85 146l12 -4q-9 -108 -9 -142h-88zM295 686q21 2 36 17.5t15 40.5q0 52 -51 60v14q28 -2 48 -22t20 -52q0 -30 -21 -50.5t-47 -22.5v15zM273 671q-27 2 -47.5 22t-20.5 51q0 32 20 52t48 22v-14
q-51 -8 -51 -60q0 -25 15 -40.5t36 -17.5v-15z" />
    <glyph glyph-name="AE" unicode="&#xc6;" horiz-adv-x="809" 
d="M191 328h173v302h122v-630h-122v304h-187zM542 10q144 34 242 68v-78h-242v10zM777 557q-149 47 -236 62v11h236v-73zM-9 0q47 61 106 146l11 -4l-10 -41.5t-12.5 -57.5t-6.5 -43h-88zM687 283q-67 17 -145 30v11q81 13 145 29v-70z" />
    <glyph glyph-name="Ccedilla" unicode="&#xc7;" horiz-adv-x="580" 
d="M347 -8q-146 8 -231 93.5t-85 229.5q0 135 94 224.5t225 98.5v-11q-92 -15 -142 -96t-50 -216q0 -136 48.5 -216.5t140.5 -95.5v-11zM387 3q82 24 165 93v-81q-59 -17 -165 -23v11zM547 539q-47 37 -80.5 57t-76.5 31v11q97 -4 157 -21v-78zM258 -217q-12 0 -20 8.5
t-8 19.5t8 19t20 8q11 0 19 -8t8 -19t-8 -19.5t-19 -8.5zM306 -205q19 15 19 30q0 9 -19 38q-15 28 -15 42q0 21 22.5 40.5t57.5 31.5l5 -7q-27 -20 -27 -36q0 -11 16 -36q21 -34 21 -48q0 -20 -22 -36.5t-55 -25.5z" />
    <glyph glyph-name="Egrave" unicode="&#xc8;" horiz-adv-x="516" 
d="M378 674q-15 2 -98 20t-98 19l25 66q17 -12 90.5 -51t82.5 -45zM64 630h122v-630h-122v630zM243 10q150 35 248 68v-78h-248v10zM394 283l-151 30v11q102 17 151 29v-70zM484 557q-153 47 -242 62v11h242v-73z" />
    <glyph glyph-name="Eacute" unicode="&#xc9;" horiz-adv-x="516" 
d="M206 683q9 6 82.5 45t90.5 51l25 -66q-15 -1 -98 -19t-98 -20zM64 630h122v-630h-122v630zM243 10q150 35 248 68v-78h-248v10zM394 283l-151 30v11q102 17 151 29v-70zM484 557q-153 47 -242 62v11h242v-73z" />
    <glyph glyph-name="Ecircumflex" unicode="&#xca;" horiz-adv-x="516" 
d="M166 680l119 120h6l118 -120l-5 -6l-113 61h-6l-114 -61zM64 630h122v-630h-122v630zM243 10q150 35 248 68v-78h-248v10zM394 283l-151 30v11q102 17 151 29v-70zM484 557q-153 47 -242 62v11h242v-73z" />
    <glyph glyph-name="Edieresis" unicode="&#xcb;" horiz-adv-x="516" 
d="M64 630h122v-630h-122v630zM243 10q150 35 248 68v-78h-248v10zM394 283l-151 30v11q102 17 151 29v-70zM484 557q-153 47 -242 62v11h242v-73zM193 685q-20 0 -34 14.5t-14 34.5t14 33.5t34 13.5t34 -13.5t14 -33.5t-14 -34.5t-34 -14.5zM381 685q-19 0 -33 14.5
t-14 34.5t14 33.5t33 13.5q20 0 34.5 -13.5t14.5 -33.5t-14.5 -34.5t-34.5 -14.5z" />
    <glyph glyph-name="Igrave" unicode="&#xcc;" horiz-adv-x="251" 
d="M64 630h122v-630h-122v630zM217 674q-15 2 -98 20t-98 19l25 66q17 -12 90.5 -51t82.5 -45z" />
    <glyph glyph-name="Iacute" unicode="&#xcd;" horiz-adv-x="251" 
d="M64 630h122v-630h-122v630zM45 683q9 6 82.5 45t90.5 51l25 -66q-15 -1 -98 -19t-98 -20z" />
    <glyph glyph-name="Icircumflex" unicode="&#xce;" horiz-adv-x="251" 
d="M64 630h122v-630h-122v630zM5 680l119 120h6l118 -120l-5 -6l-113 61h-6l-114 -61z" />
    <glyph glyph-name="Idieresis" unicode="&#xcf;" horiz-adv-x="251" 
d="M47 685q-20 0 -33.5 14.5t-13.5 34.5t13.5 33.5t33.5 13.5t34.5 -13.5t14.5 -33.5t-14.5 -34.5t-34.5 -14.5zM203 685q-20 0 -34 14.5t-14 34.5t14 33.5t34 13.5t34 -13.5t14 -33.5t-14 -34.5t-34 -14.5zM64 630h122v-630h-122v630z" />
    <glyph glyph-name="Eth" unicode="&#xd0;" horiz-adv-x="655" 
d="M13 328h64v302h122v-302h142v-22h-142v-306h-122v306h-64v22zM255 10q111 6 176.5 79.5t65.5 225.5q0 290 -243 304v11q74 -1 138.5 -18.5t118 -53.5t84.5 -98t31 -145q0 -65 -20.5 -117.5t-55 -88.5t-82.5 -60.5t-101 -36t-112 -12.5v10z" />
    <glyph glyph-name="Ntilde" unicode="&#xd1;" horiz-adv-x="624" 
d="M201 670q14 45 44.5 70.5t69.5 25.5h102q22 0 33.5 8.5t24.5 27.5h8q-30 -101 -110 -101h-105q-40 0 -60 -31h-7zM128 484q-48 66 -113 146h154l381 -539v-94h-80zM37 0q27 92 43 168h12q19 -93 43 -168h-98zM538 466q-18 82 -44 164h99q-20 -63 -44 -164h-11z" />
    <glyph glyph-name="Ograve" unicode="&#xd2;" horiz-adv-x="698" 
d="M439 674q-15 2 -98 20t-98 19l25 66q17 -12 90.5 -51t82.5 -45zM327 -8q-125 6 -211 100t-86 223t86 223t211 100v-10q-60 -9 -99.5 -57t-55 -112t-15.5 -144t15.5 -144t55 -112t99.5 -57v-10zM371 2q61 9 100.5 57t54.5 112t15 144t-15 144t-54.5 112t-100.5 57v10
q125 -6 211 -100t86 -223t-86 -223t-211 -100v10z" />
    <glyph glyph-name="Oacute" unicode="&#xd3;" horiz-adv-x="698" 
d="M268 683q9 6 82.5 45t90.5 51l25 -66q-15 -1 -98 -19t-98 -20zM327 -8q-125 6 -211 100t-86 223t86 223t211 100v-10q-60 -9 -99.5 -57t-55 -112t-15.5 -144t15.5 -144t55 -112t99.5 -57v-10zM371 2q61 9 100.5 57t54.5 112t15 144t-15 144t-54.5 112t-100.5 57v10
q125 -6 211 -100t86 -223t-86 -223t-211 -100v10z" />
    <glyph glyph-name="Ocircumflex" unicode="&#xd4;" horiz-adv-x="698" 
d="M227 680l119 120h6l118 -120l-5 -6l-113 61h-6l-114 -61zM327 -8q-125 6 -211 100t-86 223t86 223t211 100v-10q-60 -9 -99.5 -57t-55 -112t-15.5 -144t15.5 -144t55 -112t99.5 -57v-10zM371 2q61 9 100.5 57t54.5 112t15 144t-15 144t-54.5 112t-100.5 57v10
q125 -6 211 -100t86 -223t-86 -223t-211 -100v10z" />
    <glyph glyph-name="Otilde" unicode="&#xd5;" horiz-adv-x="698" 
d="M217 670q14 45 44.5 70.5t69.5 25.5h102q22 0 33.5 8.5t24.5 27.5h8q-30 -101 -110 -101h-105q-40 0 -60 -31h-7zM327 -8q-125 6 -211 100t-86 223t86 223t211 100v-10q-60 -9 -99.5 -57t-55 -112t-15.5 -144t15.5 -144t55 -112t99.5 -57v-10zM371 2q61 9 100.5 57
t54.5 112t15 144t-15 144t-54.5 112t-100.5 57v10q125 -6 211 -100t86 -223t-86 -223t-211 -100v10z" />
    <glyph glyph-name="Odieresis" unicode="&#xd6;" horiz-adv-x="698" 
d="M254 685q-20 0 -34 14.5t-14 34.5t14 33.5t34 13.5t34 -13.5t14 -33.5t-14 -34.5t-34 -14.5zM442 685q-19 0 -33 14.5t-14 34.5t14 33.5t33 13.5q20 0 34.5 -13.5t14.5 -33.5t-14.5 -34.5t-34.5 -14.5zM327 -8q-125 6 -211 100t-86 223t86 223t211 100v-10
q-60 -9 -99.5 -57t-55 -112t-15.5 -144t15.5 -144t55 -112t99.5 -57v-10zM371 2q61 9 100.5 57t54.5 112t15 144t-15 144t-54.5 112t-100.5 57v10q125 -6 211 -100t86 -223t-86 -223t-211 -100v10z" />
    <glyph glyph-name="multiply" unicode="&#xd7;" horiz-adv-x="402" 
d="M201 198l-121 -121l-20 20l121 121l-121 121l20 19l120 -121l122 121l19 -19l-121 -122l121 -121l-19 -19z" />
    <glyph glyph-name="Oslash" unicode="&#xd8;" horiz-adv-x="698" 
d="M371 2q46 7 79.5 35.5t52.5 72.5t27.5 95t8.5 110q0 137 -42 217l-271 -473q39 -48 101 -57v-10q-68 5 -121 32l-51 -90l-19 11l51 89q-73 42 -115 116.5t-42 164.5q0 129 86 223t211 100v-10q-60 -9 -99 -57t-54 -112t-15 -144q0 -155 53 -237l273 475q-44 65 -114 75
v10q74 -4 138 -42l51 88l18 -10l-51 -89q65 -45 103 -116t38 -154q0 -129 -86 -223t-211 -100v10z" />
    <glyph glyph-name="Ugrave" unicode="&#xd9;" horiz-adv-x="612" 
d="M431 674q-15 2 -98 20t-98 19l25 66q17 -12 90.5 -51t82.5 -45zM306 -8q-112 0 -178.5 59.5t-66.5 177.5v401h122v-397q0 -87 44 -130t124 -43q104 0 150 55l8 -7q-21 -50 -74 -83t-129 -33zM528 452q-32 130 -46 178h102q-19 -68 -45 -178h-11z" />
    <glyph glyph-name="Uacute" unicode="&#xda;" horiz-adv-x="612" 
d="M259 683q9 6 82.5 45t90.5 51l25 -66q-15 -1 -98 -19t-98 -20zM306 -8q-112 0 -178.5 59.5t-66.5 177.5v401h122v-397q0 -87 44 -130t124 -43q104 0 150 55l8 -7q-21 -50 -74 -83t-129 -33zM528 452q-32 130 -46 178h102q-19 -68 -45 -178h-11z" />
    <glyph glyph-name="Ucircumflex" unicode="&#xdb;" horiz-adv-x="612" 
d="M219 680l119 120h6l118 -120l-5 -6l-113 61h-6l-114 -61zM306 -8q-112 0 -178.5 59.5t-66.5 177.5v401h122v-397q0 -87 44 -130t124 -43q104 0 150 55l8 -7q-21 -50 -74 -83t-129 -33zM528 452q-32 130 -46 178h102q-19 -68 -45 -178h-11z" />
    <glyph glyph-name="Udieresis" unicode="&#xdc;" horiz-adv-x="612" 
d="M306 -8q-112 0 -178.5 59.5t-66.5 177.5v401h122v-397q0 -87 44 -130t124 -43q104 0 150 55l8 -7q-21 -50 -74 -83t-129 -33zM528 452q-32 130 -46 178h102q-19 -68 -45 -178h-11zM246 685q-20 0 -34 14.5t-14 34.5t14 33.5t34 13.5t34 -13.5t14 -33.5t-14 -34.5
t-34 -14.5zM434 685q-19 0 -33 14.5t-14 34.5t14 33.5t33 13.5q20 0 34.5 -13.5t14.5 -33.5t-14.5 -34.5t-34.5 -14.5z" />
    <glyph glyph-name="Yacute" unicode="&#xdd;" horiz-adv-x="539" 
d="M197 292l-200 338h135l187 -316v-314h-122v292zM408 483q20 51 51 147h94q-24 -24 -138 -153zM217 683q9 6 82.5 45t90.5 51l25 -66q-15 -1 -98 -19t-98 -20z" />
    <glyph glyph-name="Thorn" unicode="&#xde;" horiz-adv-x="517" 
d="M241 172q64 9 99 43.5t35 115.5t-34.5 115t-99.5 45v11q256 -12 256 -171q0 -151 -256 -170v11zM64 630h122v-630h-122v630z" />
    <glyph glyph-name="germandbls" unicode="&#xdf;" horiz-adv-x="511" 
d="M50 507q0 85 59 129t149 51v-10q-43 -7 -72 -38t-29 -88v-551h-107v507zM329 2q37 4 60 22.5t23 50.5q0 28 -16.5 49t-51.5 50q-1 1 -24 18.5t-26 20.5q-36 30 -54.5 56t-18.5 61q0 87 106 139l4 -8q-37 -26 -37 -70t63 -93q1 -3 22 -19t25 -18q51 -43 70.5 -70t19.5 -66
q0 -54 -47 -91t-118 -41v9zM346 480q39 29 39 95q0 91 -96 102v10q72 -3 112.5 -29t40.5 -71q0 -37 -25.5 -67t-66.5 -48zM265 6q-16 0 -27.5 11.5t-11.5 28.5t11.5 28.5t27.5 11.5q17 0 28.5 -11.5t11.5 -28.5t-11.5 -28.5t-28.5 -11.5z" />
    <glyph glyph-name="agrave" unicode="&#xe0;" horiz-adv-x="426" 
d="M138 -8q-55 0 -84.5 30t-29.5 75q0 31 13.5 53.5t28 31.5t38.5 19q52 17 142 36v-9q-69 -24 -88 -35q-31 -25 -31 -77q0 -80 57 -80q30 0 65 26v-8q-41 -62 -111 -62zM271 305q0 53 -24.5 75t-77.5 22q-43 0 -67 -10v8q19 15 58 26.5t77 11.5q140 0 140 -116v-322h-106
v305zM93 286q-20 0 -31.5 12t-11.5 30q0 19 11.5 31t31.5 12t31.5 -12t11.5 -31q0 -18 -11.5 -30t-31.5 -12zM123 546l28 72l165 -101l-4 -8z" />
    <glyph glyph-name="aacute" unicode="&#xe1;" horiz-adv-x="426" 
d="M138 -8q-55 0 -84.5 30t-29.5 75q0 31 13.5 53.5t28 31.5t38.5 19q52 17 142 36v-9q-69 -24 -88 -35q-31 -25 -31 -77q0 -80 57 -80q30 0 65 26v-8q-41 -62 -111 -62zM271 305q0 53 -24.5 75t-77.5 22q-43 0 -67 -10v8q19 15 58 26.5t77 11.5q140 0 140 -116v-322h-106
v305zM93 286q-20 0 -31.5 12t-11.5 30q0 19 11.5 31t31.5 12t31.5 -12t11.5 -31q0 -18 -11.5 -30t-31.5 -12zM129 517l73.5 45.5l91.5 55.5l28 -72l-190 -37z" />
    <glyph glyph-name="acircumflex" unicode="&#xe2;" horiz-adv-x="426" 
d="M138 -8q-55 0 -84.5 30t-29.5 75q0 31 13.5 53.5t28 31.5t38.5 19q52 17 142 36v-9q-69 -24 -88 -35q-31 -25 -31 -77q0 -80 57 -80q30 0 65 26v-8q-41 -62 -111 -62zM271 305q0 53 -24.5 75t-77.5 22q-43 0 -67 -10v8q19 15 58 26.5t77 11.5q140 0 140 -116v-322h-106
v305zM93 286q-20 0 -31.5 12t-11.5 30q0 19 11.5 31t31.5 12t31.5 -12t11.5 -31q0 -18 -11.5 -30t-31.5 -12zM109 514l115 133h6l114 -133l-5 -7l-110 71h-5l-110 -71z" />
    <glyph glyph-name="atilde" unicode="&#xe3;" horiz-adv-x="426" 
d="M138 -8q-55 0 -84.5 30t-29.5 75q0 31 13.5 53.5t28 31.5t38.5 19q52 17 142 36v-9q-69 -24 -88 -35q-31 -25 -31 -77q0 -80 57 -80q30 0 65 26v-8q-41 -62 -111 -62zM271 305q0 53 -24.5 75t-77.5 22q-43 0 -67 -10v8q19 15 58 26.5t77 11.5q140 0 140 -116v-322h-106
v305zM93 286q-20 0 -31.5 12t-11.5 30q0 19 11.5 31t31.5 12t31.5 -12t11.5 -31q0 -18 -11.5 -30t-31.5 -12zM92 502q15 45 45.5 69.5t69.5 24.5h99q21 0 33 8.5t25 28.5h8q-29 -100 -110 -100h-103q-39 0 -59 -31h-8z" />
    <glyph glyph-name="adieresis" unicode="&#xe4;" horiz-adv-x="426" 
d="M138 -8q-55 0 -84.5 30t-29.5 75q0 31 13.5 53.5t28 31.5t38.5 19q52 17 142 36v-9q-69 -24 -88 -35q-31 -25 -31 -77q0 -80 57 -80q30 0 65 26v-8q-41 -62 -111 -62zM271 305q0 53 -24.5 75t-77.5 22q-43 0 -67 -10v8q19 15 58 26.5t77 11.5q140 0 140 -116v-322h-106
v305zM93 286q-20 0 -31.5 12t-11.5 30q0 19 11.5 31t31.5 12t31.5 -12t11.5 -31q0 -18 -11.5 -30t-31.5 -12zM147 518q-20 0 -33 13.5t-13 32.5t13 32t33 13q18 0 31.5 -13t13.5 -32t-13.5 -32.5t-31.5 -13.5zM306 518q-18 0 -31.5 13.5t-13.5 32.5t13.5 32t31.5 13
q20 0 33 -13t13 -32t-13 -32.5t-33 -13.5z" />
    <glyph glyph-name="aring" unicode="&#xe5;" horiz-adv-x="426" 
d="M138 -8q-55 0 -84.5 30t-29.5 75q0 31 13.5 53.5t28 31.5t38.5 19q52 17 142 36v-9q-69 -24 -88 -35q-31 -25 -31 -77q0 -80 57 -80q30 0 65 26v-8q-41 -62 -111 -62zM271 305q0 53 -24.5 75t-77.5 22q-43 0 -67 -10v8q19 15 58 26.5t77 11.5q140 0 140 -116v-322h-106
v305zM93 286q-20 0 -31.5 12t-11.5 30q0 19 11.5 31t31.5 12t31.5 -12t11.5 -31q0 -18 -11.5 -30t-31.5 -12zM237 506q21 2 35 17.5t14 41.5q0 52 -49 59v14q28 -2 47 -21.5t19 -51.5q0 -31 -20 -51t-46 -22v14zM215 492q-27 2 -46.5 21.5t-19.5 51.5q0 31 19 51t47 22v-14
q-49 -7 -49 -59q0 -26 14 -41.5t35 -17.5v-14z" />
    <glyph glyph-name="ae" unicode="&#xe6;" horiz-adv-x="662" 
d="M468 -8q-96 0 -152.5 61t-56.5 174v78q0 54 -23 75.5t-75 21.5q-41 0 -64 -10v8q18 14 56.5 26t74.5 12q87 0 109 -58q45 51 113 58v-9q-84 -21 -84 -174q0 -91 39.5 -137t107.5 -46q79 0 130 41v-13q-20 -43 -63 -75.5t-112 -32.5zM138 -8q-54 0 -84 30.5t-30 74.5
q0 31 13 53t27 31.5t37 19.5q42 15 136 36v-9q-62 -21 -82 -35q-28 -17 -28 -77q0 -77 63 -77q39 0 75 34v-7q-13 -28 -49 -51t-78 -23zM402 270l144 11q0 67 -19.5 104.5t-48.5 43.5v9q76 -4 118.5 -56t42.5 -121h-237v9zM86 285q-20 0 -31.5 12t-11.5 30q0 19 11.5 31
t31.5 12t31.5 -12t11.5 -31q0 -18 -11.5 -30t-31.5 -12z" />
    <glyph glyph-name="ccedilla" unicode="&#xe7;" horiz-adv-x="411" 
d="M235 -8q-97 0 -153 61.5t-56 157.5q0 102 69 160t175 67v-9q-61 -8 -98.5 -57t-37.5 -127q0 -77 39 -126t106 -49q70 0 121 43v-10q-16 -42 -57 -76.5t-108 -34.5zM334 317q-22 0 -37 15t-15 37t15 37t37 15q23 0 37.5 -15t14.5 -37q0 -23 -14.5 -37.5t-37.5 -14.5z
M226 -201q11 9 11 18q0 12 -6.5 20.5t-26.5 26.5q-25 23 -25 49q0 37 61 65l6 -6q-13 -15 -13 -27q0 -17 25 -42q32 -32 32 -53q0 -30 -60 -57zM183 -223q-11 0 -18.5 8t-7.5 19t7.5 18.5t18.5 7.5t18.5 -7.5t7.5 -18.5t-7.5 -19t-18.5 -8z" />
    <glyph glyph-name="egrave" unicode="&#xe8;" 
d="M237 -8q-99 0 -155.5 64t-56.5 165q0 89 60 150t139 67v-9q-90 -23 -90 -174q0 -91 40.5 -137t109.5 -46q78 0 129 44v-12q-18 -43 -63 -77.5t-113 -34.5zM169 270l145 11q0 63 -16 103t-42 45v9q76 -6 114.5 -55.5t38.5 -121.5h-240v9zM132 546l28 72l165 -101l-4 -8z
" />
    <glyph glyph-name="eacute" unicode="&#xe9;" 
d="M149 517l73.5 45.5l91.5 55.5l28 -72l-190 -37zM237 -8q-99 0 -155.5 64t-56.5 165q0 89 60 150t139 67v-9q-90 -23 -90 -174q0 -91 40.5 -137t109.5 -46q78 0 129 44v-12q-18 -43 -63 -77.5t-113 -34.5zM169 270l145 11q0 63 -16 103t-42 45v9q76 -6 114.5 -55.5
t38.5 -121.5h-240v9z" />
    <glyph glyph-name="ecircumflex" unicode="&#xea;" 
d="M118 514l115 133h6l114 -133l-5 -7l-110 71h-5l-110 -71zM237 -8q-99 0 -155.5 64t-56.5 165q0 89 60 150t139 67v-9q-90 -23 -90 -174q0 -91 40.5 -137t109.5 -46q78 0 129 44v-12q-18 -43 -63 -77.5t-113 -34.5zM169 270l145 11q0 63 -16 103t-42 45v9
q76 -6 114.5 -55.5t38.5 -121.5h-240v9z" />
    <glyph glyph-name="edieresis" unicode="&#xeb;" 
d="M156 518q-20 0 -33 13.5t-13 32.5t13 32t33 13q18 0 31.5 -13t13.5 -32t-13.5 -32.5t-31.5 -13.5zM315 518q-18 0 -31.5 13.5t-13.5 32.5t13.5 32t31.5 13q20 0 33 -13t13 -32t-13 -32.5t-33 -13.5zM237 -8q-99 0 -155.5 64t-56.5 165q0 89 60 150t139 67v-9
q-90 -23 -90 -174q0 -91 40.5 -137t109.5 -46q78 0 129 44v-12q-18 -43 -63 -77.5t-113 -34.5zM169 270l145 11q0 63 -16 103t-42 45v9q76 -6 114.5 -55.5t38.5 -121.5h-240v9z" />
    <glyph glyph-name="igrave" unicode="&#xec;" horiz-adv-x="207" 
d="M50 426l107 14v-440h-107v426zM1 546l28 72l165 -101l-4 -8z" />
    <glyph glyph-name="iacute" unicode="&#xed;" horiz-adv-x="207" 
d="M18 517l73.5 45.5l91.5 55.5l28 -72l-190 -37zM50 426l107 14v-440h-107v426z" />
    <glyph glyph-name="icircumflex" unicode="&#xee;" horiz-adv-x="207" 
d="M-13 514l115 133h6l114 -133l-5 -7l-110 71h-5l-110 -71zM50 426l107 14v-440h-107v426z" />
    <glyph glyph-name="idieresis" unicode="&#xef;" horiz-adv-x="207" 
d="M36 512q-19 0 -31.5 13.5t-12.5 32.5t12.5 32.5t31.5 13.5t32.5 -13.5t13.5 -32.5t-13.5 -32.5t-32.5 -13.5zM171 512q-19 0 -32 13.5t-13 32.5t13 32.5t32 13.5t32 -13.5t13 -32.5t-13 -32.5t-32 -13.5zM50 426l107 14v-440h-107v426z" />
    <glyph glyph-name="eth" unicode="&#xf0;" horiz-adv-x="521" 
d="M131 508l129 71q-70 65 -193 100l2 9q137 -18 235 -85l110 61l10 -15l-103 -57q171 -126 171 -332q0 -122 -62.5 -192.5t-162.5 -76.5v10q58 7 85.5 65.5t27.5 180.5q0 210 -107 318l-133 -73zM243 -9q-94 4 -156 67.5t-62 168.5q0 93 59.5 152.5t142.5 59.5q63 0 97 -30
l-3 -8q-24 13 -65 13q-56 0 -88 -50t-32 -152q0 -91 29.5 -147t77.5 -64v-10z" />
    <glyph glyph-name="ntilde" unicode="&#xf1;" horiz-adv-x="493" 
d="M338 303q0 79 -81 79q-41 0 -78 -24v7q23 31 61.5 52t81.5 21q61 0 92 -33.5t31 -92.5v-312h-107v303zM50 427l107 12v-439h-107v427zM119 502q15 45 45.5 69.5t69.5 24.5h99q21 0 33 8.5t25 28.5h8q-29 -100 -110 -100h-103q-39 0 -59 -31h-8z" />
    <glyph glyph-name="ograve" unicode="&#xf2;" horiz-adv-x="512" 
d="M237 -8q-91 8 -151.5 71t-60.5 152t60.5 152t151.5 71v-8q-26 -6 -43 -21q-57 -45 -57 -194q0 -147 57 -194q19 -16 43 -20v-9zM274 1q23 4 44 20q57 47 57 194q0 149 -57 194q-18 15 -44 21v8q91 -8 152 -71t61 -152q0 -88 -61 -151.5t-152 -71.5v9zM152 546l28 72
l165 -101l-4 -8z" />
    <glyph glyph-name="oacute" unicode="&#xf3;" horiz-adv-x="512" 
d="M169 517l73.5 45.5l91.5 55.5l28 -72l-190 -37zM237 -8q-91 8 -151.5 71t-60.5 152t60.5 152t151.5 71v-8q-26 -6 -43 -21q-57 -45 -57 -194q0 -147 57 -194q19 -16 43 -20v-9zM274 1q23 4 44 20q57 47 57 194q0 149 -57 194q-18 15 -44 21v8q91 -8 152 -71t61 -152
q0 -88 -61 -151.5t-152 -71.5v9z" />
    <glyph glyph-name="ocircumflex" unicode="&#xf4;" horiz-adv-x="512" 
d="M138 514l115 133h6l114 -133l-5 -7l-110 71h-5l-110 -71zM237 -8q-91 8 -151.5 71t-60.5 152t60.5 152t151.5 71v-8q-26 -6 -43 -21q-57 -45 -57 -194q0 -147 57 -194q19 -16 43 -20v-9zM274 1q23 4 44 20q57 47 57 194q0 149 -57 194q-18 15 -44 21v8q91 -8 152 -71
t61 -152q0 -88 -61 -151.5t-152 -71.5v9z" />
    <glyph glyph-name="otilde" unicode="&#xf5;" horiz-adv-x="512" 
d="M237 -8q-91 8 -151.5 71t-60.5 152t60.5 152t151.5 71v-8q-26 -6 -43 -21q-57 -45 -57 -194q0 -147 57 -194q19 -16 43 -20v-9zM274 1q23 4 44 20q57 47 57 194q0 149 -57 194q-18 15 -44 21v8q91 -8 152 -71t61 -152q0 -88 -61 -151.5t-152 -71.5v9zM122 502
q15 45 45.5 69.5t69.5 24.5h99q21 0 33 8.5t25 28.5h8q-29 -100 -110 -100h-103q-39 0 -59 -31h-8z" />
    <glyph glyph-name="odieresis" unicode="&#xf6;" horiz-adv-x="512" 
d="M176 518q-20 0 -33 13.5t-13 32.5t13 32t33 13q18 0 31.5 -13t13.5 -32t-13.5 -32.5t-31.5 -13.5zM335 518q-18 0 -31.5 13.5t-13.5 32.5t13.5 32t31.5 13q20 0 33 -13t13 -32t-13 -32.5t-33 -13.5zM237 -8q-91 8 -151.5 71t-60.5 152t60.5 152t151.5 71v-8
q-26 -6 -43 -21q-57 -45 -57 -194q0 -147 57 -194q19 -16 43 -20v-9zM274 1q23 4 44 20q57 47 57 194q0 149 -57 194q-18 15 -44 21v8q91 -8 152 -71t61 -152q0 -88 -61 -151.5t-152 -71.5v9z" />
    <glyph glyph-name="divide" unicode="&#xf7;" horiz-adv-x="429" 
d="M213 72q-14 0 -24 10.5t-10 24.5t10 24.5t24 10.5t24.5 -10.5t10.5 -24.5t-10.5 -24.5t-24.5 -10.5zM52 238h324v-27h-324v27zM213 306q-14 0 -24 10t-10 25q0 14 10 24.5t24 10.5t24.5 -10.5t10.5 -24.5q0 -15 -10.5 -25t-24.5 -10z" />
    <glyph glyph-name="oslash" unicode="&#xf8;" horiz-adv-x="512" 
d="M274 1q23 4 44 20q57 47 57 194q0 111 -30 162l-163 -345q3 -5 12 -11q19 -16 43 -20v-9q-35 4 -67 15l-34 -72l-17 9l34 71q-59 27 -93.5 80.5t-34.5 119.5q0 89 60.5 152t151.5 71v-8q-26 -6 -43 -21q-57 -45 -57 -194q0 -116 32 -166l165 344q-7 9 -16 16
q-18 15 -44 21v8q35 -3 73 -17l32 67l16 -7l-32 -68q57 -28 90.5 -80.5t33.5 -117.5q0 -88 -61 -151.5t-152 -71.5v9z" />
    <glyph glyph-name="ugrave" unicode="&#xf9;" horiz-adv-x="494" 
d="M177 -7q-64 0 -96 35t-32 95v304l106 13v-310q0 -80 81 -80q42 0 79 25v-8q-20 -30 -58 -52t-80 -22zM337 427l106 13v-433l-106 -12v432zM142 546l28 72l165 -101l-4 -8z" />
    <glyph glyph-name="uacute" unicode="&#xfa;" horiz-adv-x="494" 
d="M160 517l73.5 45.5l91.5 55.5l28 -72l-190 -37zM177 -7q-64 0 -96 35t-32 95v304l106 13v-310q0 -80 81 -80q42 0 79 25v-8q-20 -30 -58 -52t-80 -22zM337 427l106 13v-433l-106 -12v432z" />
    <glyph glyph-name="ucircumflex" unicode="&#xfb;" horiz-adv-x="494" 
d="M129 514l115 133h6l114 -133l-5 -7l-110 71h-5l-110 -71zM177 -7q-64 0 -96 35t-32 95v304l106 13v-310q0 -80 81 -80q42 0 79 25v-8q-20 -30 -58 -52t-80 -22zM337 427l106 13v-433l-106 -12v432z" />
    <glyph glyph-name="udieresis" unicode="&#xfc;" horiz-adv-x="494" 
d="M167 518q-20 0 -33 13.5t-13 32.5t13 32t33 13q18 0 31.5 -13t13.5 -32t-13.5 -32.5t-31.5 -13.5zM326 518q-18 0 -31.5 13.5t-13.5 32.5t13.5 32t31.5 13q20 0 33 -13t13 -32t-13 -32.5t-33 -13.5zM177 -7q-64 0 -96 35t-32 95v304l106 13v-310q0 -80 81 -80q42 0 79 25
v-8q-20 -30 -58 -52t-80 -22zM337 427l106 13v-433l-106 -12v432z" />
    <glyph glyph-name="yacute" unicode="&#xfd;" horiz-adv-x="399" 
d="M1 430h112l143 -317l-44 -109h-19zM83 -178q-19 0 -32.5 12.5t-13.5 32.5t13.5 32.5t32.5 12.5t32.5 -12.5t13.5 -32.5t-13.5 -32.5t-32.5 -12.5zM320 311q7 48 12 119h78q-53 -77 -83 -125zM137 517l73.5 45.5l91.5 55.5l28 -72l-190 -37z" />
    <glyph glyph-name="thorn" unicode="&#xfe;" horiz-adv-x="524" 
d="M50 675l107 13v-661q30 -21 72 -26v-9q-45 2 -72 10v-180h-107v853zM257 1q59 4 93.5 57.5t34.5 153.5q0 180 -116 180q-58 0 -88 -25v9q51 62 138 62t132.5 -54.5t45.5 -154.5q0 -106 -63 -168.5t-177 -68.5v9z" />
    <glyph glyph-name="ydieresis" unicode="&#xff;" horiz-adv-x="399" 
d="M1 430h112l143 -317l-44 -109h-19zM83 -178q-19 0 -32.5 12.5t-13.5 32.5t13.5 32.5t32.5 12.5t32.5 -12.5t13.5 -32.5t-13.5 -32.5t-32.5 -12.5zM320 311q7 48 12 119h78q-53 -77 -83 -125zM144 518q-20 0 -33 13.5t-13 32.5t13 32t33 13q18 0 31.5 -13t13.5 -32
t-13.5 -32.5t-31.5 -13.5zM303 518q-18 0 -31.5 13.5t-13.5 32.5t13.5 32t31.5 13q20 0 33 -13t13 -32t-13 -32.5t-33 -13.5z" />
    <glyph glyph-name="Amacron" unicode="&#x100;" horiz-adv-x="551" 
d="M129 260h185l-95 248l50 129h32l243 -637h-129l-91 236h-205zM1 0l85 146l12 -4q-9 -108 -9 -142h-88zM167 732h235v-36h-235v36z" />
    <glyph glyph-name="amacron" unicode="&#x101;" horiz-adv-x="426" 
d="M138 -8q-55 0 -84.5 30t-29.5 75q0 31 13.5 53.5t28 31.5t38.5 19q52 17 142 36v-9q-69 -24 -88 -35q-31 -25 -31 -77q0 -80 57 -80q30 0 65 26v-8q-41 -62 -111 -62zM271 305q0 53 -24.5 75t-77.5 22q-43 0 -67 -10v8q19 15 58 26.5t77 11.5q140 0 140 -116v-322h-106
v305zM93 286q-20 0 -31.5 12t-11.5 30q0 19 11.5 31t31.5 12t31.5 -12t11.5 -31q0 -18 -11.5 -30t-31.5 -12zM120 582h214v-35h-214v35z" />
    <glyph glyph-name="Abreve" unicode="&#x102;" horiz-adv-x="551" 
d="M129 260h185l-95 248l50 129h32l243 -637h-129l-91 236h-205zM1 0l85 146l12 -4q-9 -108 -9 -142h-88zM285 675q-101 0 -113 116h11q6 -27 33 -43.5t69 -16.5q41 0 68.5 16.5t33.5 43.5h10q-12 -116 -112 -116z" />
    <glyph glyph-name="abreve" unicode="&#x103;" horiz-adv-x="426" 
d="M138 -8q-55 0 -84.5 30t-29.5 75q0 31 13.5 53.5t28 31.5t38.5 19q52 17 142 36v-9q-69 -24 -88 -35q-31 -25 -31 -77q0 -80 57 -80q30 0 65 26v-8q-41 -62 -111 -62zM271 305q0 53 -24.5 75t-77.5 22q-43 0 -67 -10v8q19 15 58 26.5t77 11.5q140 0 140 -116v-322h-106
v305zM93 286q-20 0 -31.5 12t-11.5 30q0 19 11.5 31t31.5 12t31.5 -12t11.5 -31q0 -18 -11.5 -30t-31.5 -12zM227 505q-45 0 -74.5 32t-34.5 85h11q6 -29 31 -45.5t67 -16.5q41 0 66 16.5t31 45.5h11q-5 -52 -34 -84.5t-74 -32.5z" />
    <glyph glyph-name="Aogonek" unicode="&#x104;" horiz-adv-x="551" 
d="M129 260h185l-95 248l50 129h32l243 -637h-129l-91 236h-205zM1 0l85 146l12 -4q-9 -108 -9 -142h-88zM387 -219q-40 0 -64.5 20.5t-24.5 58.5q0 69 118 120h11q-30 -26 -43.5 -46.5t-13.5 -47.5q0 -56 55 -56q38 0 65 30l7 -5q-13 -21 -23.5 -34.5t-34 -26.5t-52.5 -13z
" />
    <glyph glyph-name="aogonek" unicode="&#x105;" horiz-adv-x="426" 
d="M138 -8q-55 0 -84.5 30t-29.5 75q0 31 13.5 53.5t28 31.5t38.5 19q52 17 142 36v-9q-69 -24 -88 -35q-31 -25 -31 -77q0 -80 57 -80q30 0 65 26v-8q-41 -62 -111 -62zM271 305q0 53 -24.5 75t-77.5 22q-43 0 -67 -10v8q19 15 58 26.5t77 11.5q140 0 140 -116v-322h-106
v305zM93 286q-20 0 -31.5 12t-11.5 30q0 19 11.5 31t31.5 12t31.5 -12t11.5 -31q0 -18 -11.5 -30t-31.5 -12zM294 -219q-40 0 -64.5 20.5t-24.5 58.5q0 69 118 120h11q-30 -26 -43.5 -46.5t-13.5 -47.5q0 -56 55 -56q38 0 65 30l7 -5q-13 -21 -23.5 -34.5t-34 -26.5
t-52.5 -13z" />
    <glyph glyph-name="Cacute" unicode="&#x106;" horiz-adv-x="580" 
d="M347 -8q-146 8 -231 93.5t-85 229.5q0 135 94 224.5t225 98.5v-11q-92 -15 -142 -96t-50 -216q0 -136 48.5 -216.5t140.5 -95.5v-11zM387 3q82 24 165 93v-81q-59 -17 -165 -23v11zM547 539q-47 37 -80.5 57t-76.5 31v11q97 -4 157 -21v-78zM283 683q9 6 82.5 45t90.5 51
l25 -66q-15 -1 -98 -19t-98 -20z" />
    <glyph glyph-name="cacute" unicode="&#x107;" horiz-adv-x="411" 
d="M158 517l73.5 45.5l91.5 55.5l28 -72l-190 -37zM235 -8q-97 0 -153 61.5t-56 157.5q0 102 69 160t175 67v-9q-61 -8 -98.5 -57t-37.5 -127q0 -77 39 -126t106 -49q70 0 121 43v-10q-16 -42 -57 -76.5t-108 -34.5zM334 317q-22 0 -37 15t-15 37t15 37t37 15q23 0 37.5 -15
t14.5 -37q0 -23 -14.5 -37.5t-37.5 -14.5z" />
    <glyph glyph-name="Ccircumflex" unicode="&#x108;" horiz-adv-x="580" 
d="M242 680l119 120h6l118 -120l-5 -6l-113 61h-6l-114 -61zM347 -8q-146 8 -231 93.5t-85 229.5q0 135 94 224.5t225 98.5v-11q-92 -15 -142 -96t-50 -216q0 -136 48.5 -216.5t140.5 -95.5v-11zM387 3q82 24 165 93v-81q-59 -17 -165 -23v11zM547 539q-47 37 -80.5 57
t-76.5 31v11q97 -4 157 -21v-78z" />
    <glyph glyph-name="ccircumflex" unicode="&#x109;" horiz-adv-x="411" 
d="M127 514l115 133h6l114 -133l-5 -7l-110 71h-5l-110 -71zM235 -8q-97 0 -153 61.5t-56 157.5q0 102 69 160t175 67v-9q-61 -8 -98.5 -57t-37.5 -127q0 -77 39 -126t106 -49q70 0 121 43v-10q-16 -42 -57 -76.5t-108 -34.5zM334 317q-22 0 -37 15t-15 37t15 37t37 15
q23 0 37.5 -15t14.5 -37q0 -23 -14.5 -37.5t-37.5 -14.5z" />
    <glyph glyph-name="Cdotaccent" unicode="&#x10a;" horiz-adv-x="580" 
d="M347 -8q-146 8 -231 93.5t-85 229.5q0 135 94 224.5t225 98.5v-11q-92 -15 -142 -96t-50 -216q0 -136 48.5 -216.5t140.5 -95.5v-11zM387 3q82 24 165 93v-81q-59 -17 -165 -23v11zM547 539q-47 37 -80.5 57t-76.5 31v11q97 -4 157 -21v-78zM363 684q-24 0 -42 16.5
t-18 42.5t17.5 42.5t42.5 16.5t43 -16.5t18 -42.5t-18 -42.5t-43 -16.5z" />
    <glyph glyph-name="cdotaccent" unicode="&#x10b;" horiz-adv-x="411" 
d="M235 -8q-97 0 -153 61.5t-56 157.5q0 102 69 160t175 67v-9q-61 -8 -98.5 -57t-37.5 -127q0 -77 39 -126t106 -49q70 0 121 43v-10q-16 -42 -57 -76.5t-108 -34.5zM334 317q-22 0 -37 15t-15 37t15 37t37 15q23 0 37.5 -15t14.5 -37q0 -23 -14.5 -37.5t-37.5 -14.5z
M244 500q-24 0 -41.5 16.5t-17.5 41.5q0 26 17 42t42 16t42.5 -16t17.5 -42t-17.5 -42t-42.5 -16z" />
    <glyph glyph-name="Ccaron" unicode="&#x10c;" horiz-adv-x="580" 
d="M244 793l6 7l111 -61h6l111 61l5 -7l-116 -119h-7zM347 -8q-146 8 -231 93.5t-85 229.5q0 135 94 224.5t225 98.5v-11q-92 -15 -142 -96t-50 -216q0 -136 48.5 -216.5t140.5 -95.5v-11zM387 3q82 24 165 93v-81q-59 -17 -165 -23v11zM547 539q-47 37 -80.5 57t-76.5 31
v11q97 -4 157 -21v-78z" />
    <glyph glyph-name="ccaron" unicode="&#x10d;" horiz-adv-x="411" 
d="M127 641l6 6l109 -71h6l109 71l5 -6l-114 -134h-7zM235 -8q-97 0 -153 61.5t-56 157.5q0 102 69 160t175 67v-9q-61 -8 -98.5 -57t-37.5 -127q0 -77 39 -126t106 -49q70 0 121 43v-10q-16 -42 -57 -76.5t-108 -34.5zM334 317q-22 0 -37 15t-15 37t15 37t37 15
q23 0 37.5 -15t14.5 -37q0 -23 -14.5 -37.5t-37.5 -14.5z" />
    <glyph glyph-name="Dcaron" unicode="&#x10e;" horiz-adv-x="643" 
d="M170 793l6 7l111 -61h6l111 61l5 -7l-116 -119h-7zM243 10q110 6 177 80t67 225q0 290 -245 304v11q74 -1 138.5 -18.5t118 -53.5t84.5 -98t31 -145q0 -80 -31 -142t-84 -98.5t-117.5 -55t-138.5 -19.5v10zM64 630h122v-630h-122v630z" />
    <glyph glyph-name="dcaron" unicode="&#x10f;" horiz-adv-x="508" 
d="M488 521q4 21 11.5 83.5t11.5 83.5h69q-7 -21 -39.5 -84t-40.5 -83h-12zM208 -8q-82 0 -131.5 58t-49.5 158q0 101 69 163.5t162 66.5v-8q-55 -6 -88 -59t-33 -143q0 -91 34 -138t89 -47q37 0 69 28v-9q-13 -29 -43.5 -49.5t-77.5 -20.5zM351 405q-20 16 -56 25v8
q35 -2 56 -6v243l107 13v-684l-107 -10v411z" />
    <glyph glyph-name="Dcroat" unicode="&#x110;" horiz-adv-x="655" 
d="M13 327h64v303h122v-303h142v-19h-142v-308h-122v308h-64v19zM255 10q111 6 176.5 79.5t65.5 225.5q0 290 -243 304v11q74 -1 138.5 -18.5t118 -53.5t84.5 -98t31 -145q0 -65 -20.5 -117.5t-55 -88.5t-82.5 -60.5t-101 -36t-112 -12.5v10z" />
    <glyph glyph-name="dcroat" unicode="&#x111;" horiz-adv-x="508" 
d="M251 549h100v126l107 13v-139h65v-18h-65v-527l-107 -10v411q-24 19 -57 25v8q36 -2 57 -6v99h-100v18zM208 -8q-82 0 -131.5 58t-49.5 158q0 101 68.5 163.5t161.5 66.5v-8q-55 -6 -87.5 -59t-32.5 -143q0 -91 34 -138t89 -47q37 0 69 28v-9q-13 -29 -43.5 -49.5
t-77.5 -20.5z" />
    <glyph glyph-name="Emacron" unicode="&#x112;" horiz-adv-x="516" 
d="M64 630h122v-630h-122v630zM243 10q150 35 248 68v-78h-248v10zM394 283l-151 30v11q102 17 151 29v-70zM484 557q-153 47 -242 62v11h242v-73zM170 732h235v-36h-235v36z" />
    <glyph glyph-name="emacron" unicode="&#x113;" 
d="M237 -8q-99 0 -155.5 64t-56.5 165q0 89 60 150t139 67v-9q-90 -23 -90 -174q0 -91 40.5 -137t109.5 -46q78 0 129 44v-12q-18 -43 -63 -77.5t-113 -34.5zM169 270l145 11q0 63 -16 103t-42 45v9q76 -6 114.5 -55.5t38.5 -121.5h-240v9zM129 582h214v-35h-214v35z" />
    <glyph glyph-name="Ebreve" unicode="&#x114;" horiz-adv-x="516" 
d="M64 630h122v-630h-122v630zM243 10q150 35 248 68v-78h-248v10zM394 283l-151 30v11q102 17 151 29v-70zM484 557q-153 47 -242 62v11h242v-73zM288 675q-101 0 -113 116h11q6 -27 33 -43.5t69 -16.5t69 16.5t33 43.5h10q-12 -116 -112 -116z" />
    <glyph glyph-name="ebreve" unicode="&#x115;" 
d="M237 -8q-99 0 -155.5 64t-56.5 165q0 89 60 150t139 67v-9q-90 -23 -90 -174q0 -91 40.5 -137t109.5 -46q78 0 129 44v-12q-18 -43 -63 -77.5t-113 -34.5zM169 270l145 11q0 63 -16 103t-42 45v9q76 -6 114.5 -55.5t38.5 -121.5h-240v9zM236 505q-45 0 -74.5 32t-34.5 85
h11q6 -29 31 -45.5t67 -16.5q41 0 66 16.5t31 45.5h11q-5 -52 -34 -84.5t-74 -32.5z" />
    <glyph glyph-name="Edotaccent" unicode="&#x116;" horiz-adv-x="516" 
d="M287 684q-24 0 -42 16.5t-18 42.5t17.5 42.5t42.5 16.5t43 -16.5t18 -42.5t-18 -42.5t-43 -16.5zM64 630h122v-630h-122v630zM243 10q150 35 248 68v-78h-248v10zM394 283l-151 30v11q102 17 151 29v-70zM484 557q-153 47 -242 62v11h242v-73z" />
    <glyph glyph-name="edotaccent" unicode="&#x117;" 
d="M237 -8q-99 0 -155.5 64t-56.5 165q0 89 60 150t139 67v-9q-90 -23 -90 -174q0 -91 40.5 -137t109.5 -46q78 0 129 44v-12q-18 -43 -63 -77.5t-113 -34.5zM169 270l145 11q0 63 -16 103t-42 45v9q76 -6 114.5 -55.5t38.5 -121.5h-240v9zM235 500q-24 0 -41.5 16.5
t-17.5 41.5q0 26 17 42t42 16t42.5 -16t17.5 -42t-17.5 -42t-42.5 -16z" />
    <glyph glyph-name="Eogonek" unicode="&#x118;" horiz-adv-x="516" 
d="M359 -219q-40 0 -64.5 20.5t-24.5 58.5q0 69 118 120h11q-30 -26 -43.5 -46.5t-13.5 -47.5q0 -56 55 -56q38 0 65 30l7 -5q-13 -21 -23.5 -34.5t-34 -26.5t-52.5 -13zM64 630h122v-630h-122v630zM243 10q150 35 248 68v-78h-248v10zM394 283l-151 30v11q102 17 151 29
v-70zM484 557q-153 47 -242 62v11h242v-73z" />
    <glyph glyph-name="eogonek" unicode="&#x119;" 
d="M245 -219q-40 0 -64.5 20.5t-24.5 58.5q0 69 118 120h11q-30 -26 -43.5 -46.5t-13.5 -47.5q0 -56 55 -56q38 0 65 30l7 -5q-13 -21 -23.5 -34.5t-34 -26.5t-52.5 -13zM237 -8q-99 0 -155.5 64t-56.5 165q0 89 60 150t139 67v-9q-90 -23 -90 -174q0 -91 40.5 -137
t109.5 -46q78 0 129 44v-12q-18 -43 -63 -77.5t-113 -34.5zM169 270l145 11q0 63 -16 103t-42 45v9q76 -6 114.5 -55.5t38.5 -121.5h-240v9z" />
    <glyph glyph-name="Ecaron" unicode="&#x11a;" horiz-adv-x="516" 
d="M168 793l6 7l111 -61h6l111 61l5 -7l-116 -119h-7zM64 630h122v-630h-122v630zM243 10q150 35 248 68v-78h-248v10zM394 283l-151 30v11q102 17 151 29v-70zM484 557q-153 47 -242 62v11h242v-73z" />
    <glyph glyph-name="ecaron" unicode="&#x11b;" 
d="M118 641l6 6l109 -71h6l109 71l5 -6l-114 -134h-7zM237 -8q-99 0 -155.5 64t-56.5 165q0 89 60 150t139 67v-9q-90 -23 -90 -174q0 -91 40.5 -137t109.5 -46q78 0 129 44v-12q-18 -43 -63 -77.5t-113 -34.5zM169 270l145 11q0 63 -16 103t-42 45v9q76 -6 114.5 -55.5
t38.5 -121.5h-240v9z" />
    <glyph glyph-name="Gcircumflex" unicode="&#x11c;" horiz-adv-x="636" 
d="M255 680l119 120h6l118 -120l-5 -6l-113 61h-6l-114 -61zM337 -8q-144 8 -225.5 98t-81.5 225q0 141 92 226t243 97v-11q-94 -16 -151 -98t-57 -214q0 -58 9.5 -109t30 -95.5t56.5 -73t84 -35.5v-10zM378 2q63 9 97 25v239h112v-235q-82 -35 -209 -39v10zM575 537
q-84 62 -166 90v11q111 -5 166 -19v-82z" />
    <glyph glyph-name="gcircumflex" unicode="&#x11d;" horiz-adv-x="461" 
d="M103 514l115 133h6l114 -133l-5 -7l-110 71h-5l-110 -71zM231 -200q153 18 153 111q0 61 -81 61h-168q-103 0 -103 89q0 53 75 96l5 -6q-22 -15 -22 -44q0 -35 40 -35h180q68 0 106.5 -30t38.5 -91q0 -64 -59.5 -107t-164.5 -53v9zM201 -209q-199 5 -199 85q0 58 107 73
l1 -8q-16 -5 -29.5 -21t-13.5 -42q0 -70 134 -78v-9zM205 151q-65 4 -116.5 42t-51.5 101q0 65 51 102.5t117 41.5v-8q-70 -13 -70 -136q0 -122 70 -135v-8zM230 159q69 13 69 135q0 123 -69 136v8q65 -4 116 -42t51 -102q0 -63 -50.5 -101t-116.5 -42v8zM419 385
q-20 0 -33 13.5t-13 33.5t13 33.5t33 13.5t33.5 -13.5t13.5 -33.5t-13.5 -33.5t-33.5 -13.5z" />
    <glyph glyph-name="Gbreve" unicode="&#x11e;" horiz-adv-x="636" 
d="M377 675q-101 0 -113 116h11q6 -27 33 -43.5t69 -16.5q41 0 68.5 16.5t33.5 43.5h10q-12 -116 -112 -116zM337 -8q-144 8 -225.5 98t-81.5 225q0 141 92 226t243 97v-11q-94 -16 -151 -98t-57 -214q0 -58 9.5 -109t30 -95.5t56.5 -73t84 -35.5v-10zM378 2q63 9 97 25v239
h112v-235q-82 -35 -209 -39v10zM575 537q-84 62 -166 90v11q111 -5 166 -19v-82z" />
    <glyph glyph-name="gbreve" unicode="&#x11f;" horiz-adv-x="461" 
d="M231 -200q153 18 153 111q0 61 -81 61h-168q-103 0 -103 89q0 53 75 96l5 -6q-22 -15 -22 -44q0 -35 40 -35h180q68 0 106.5 -30t38.5 -91q0 -64 -59.5 -107t-164.5 -53v9zM201 -209q-199 5 -199 85q0 58 107 73l1 -8q-16 -5 -29.5 -21t-13.5 -42q0 -70 134 -78v-9z
M205 151q-65 4 -116.5 42t-51.5 101q0 65 51 102.5t117 41.5v-8q-70 -13 -70 -136q0 -122 70 -135v-8zM230 159q69 13 69 135q0 123 -69 136v8q65 -4 116 -42t51 -102q0 -63 -50.5 -101t-116.5 -42v8zM419 385q-20 0 -33 13.5t-13 33.5t13 33.5t33 13.5t33.5 -13.5
t13.5 -33.5t-13.5 -33.5t-33.5 -13.5zM221 505q-45 0 -74.5 32t-34.5 85h11q6 -29 31 -45.5t67 -16.5q41 0 66 16.5t31 45.5h11q-5 -52 -34 -84.5t-74 -32.5z" />
    <glyph glyph-name="Gdotaccent" unicode="&#x120;" horiz-adv-x="636" 
d="M376 684q-24 0 -42 16.5t-18 42.5t17.5 42.5t42.5 16.5t43 -16.5t18 -42.5t-18 -42.5t-43 -16.5zM337 -8q-144 8 -225.5 98t-81.5 225q0 141 92 226t243 97v-11q-94 -16 -151 -98t-57 -214q0 -58 9.5 -109t30 -95.5t56.5 -73t84 -35.5v-10zM378 2q63 9 97 25v239h112
v-235q-82 -35 -209 -39v10zM575 537q-84 62 -166 90v11q111 -5 166 -19v-82z" />
    <glyph glyph-name="gdotaccent" unicode="&#x121;" horiz-adv-x="461" 
d="M231 -200q153 18 153 111q0 61 -81 61h-168q-103 0 -103 89q0 53 75 96l5 -6q-22 -15 -22 -44q0 -35 40 -35h180q68 0 106.5 -30t38.5 -91q0 -64 -59.5 -107t-164.5 -53v9zM201 -209q-199 5 -199 85q0 58 107 73l1 -8q-16 -5 -29.5 -21t-13.5 -42q0 -70 134 -78v-9z
M205 151q-65 4 -116.5 42t-51.5 101q0 65 51 102.5t117 41.5v-8q-70 -13 -70 -136q0 -122 70 -135v-8zM230 159q69 13 69 135q0 123 -69 136v8q65 -4 116 -42t51 -102q0 -63 -50.5 -101t-116.5 -42v8zM419 385q-20 0 -33 13.5t-13 33.5t13 33.5t33 13.5t33.5 -13.5
t13.5 -33.5t-13.5 -33.5t-33.5 -13.5zM220 500q-24 0 -41.5 16.5t-17.5 41.5q0 26 17 42t42 16t42.5 -16t17.5 -42t-17.5 -42t-42.5 -16z" />
    <glyph glyph-name="Gcommaaccent" unicode="&#x122;" horiz-adv-x="636" 
d="M306 -194q0 3 6 64t9 75h91q-6 -12 -47.5 -69t-47.5 -70h-11zM337 -8q-144 8 -225.5 98t-81.5 225q0 141 92 226t243 97v-11q-94 -16 -151 -98t-57 -214q0 -58 9.5 -109t30 -95.5t56.5 -73t84 -35.5v-10zM378 2q63 9 97 25v239h112v-235q-82 -35 -209 -39v10zM575 537
q-84 62 -166 90v11q111 -5 166 -19v-82z" />
    <glyph glyph-name="gcommaaccent" unicode="&#x123;" horiz-adv-x="461" 
d="M231 -200q153 18 153 111q0 61 -81 61h-168q-103 0 -103 89q0 53 75 96l5 -6q-22 -15 -22 -44q0 -35 40 -35h180q68 0 106.5 -30t38.5 -91q0 -64 -59.5 -107t-164.5 -53v9zM201 -209q-199 5 -199 85q0 58 107 73l1 -8q-16 -5 -29.5 -21t-13.5 -42q0 -70 134 -78v-9z
M205 151q-65 4 -116.5 42t-51.5 101q0 65 51 102.5t117 41.5v-8q-70 -13 -70 -136q0 -122 70 -135v-8zM230 159q69 13 69 135q0 123 -69 136v8q65 -4 116 -42t51 -102q0 -63 -50.5 -101t-116.5 -42v8zM419 385q-20 0 -33 13.5t-13 33.5t13 33.5t33 13.5t33.5 -13.5
t13.5 -33.5t-13.5 -33.5t-33.5 -13.5z" />
    <glyph glyph-name="Hcircumflex" unicode="&#x124;" horiz-adv-x="659" 
d="M64 630h122v-630h-122v630zM219 342h222v-24h-222v24zM473 630h122v-630h-122v630zM208 680l119 120h6l118 -120l-5 -6l-113 61h-6l-114 -61z" />
    <glyph glyph-name="hcircumflex" unicode="&#x125;" horiz-adv-x="493" 
d="M338 302q0 80 -81 80q-39 0 -78 -25v8q23 31 61.5 52t81.5 21q61 0 92 -33.5t31 -93.5v-311h-107v302zM50 676l107 12v-688h-107v676zM133 730l119 120h6l118 -120l-5 -6l-113 61h-6l-114 -61z" />
    <glyph glyph-name="Hbar" unicode="&#x126;" horiz-adv-x="705" 
d="M-23 449h80v-24h-80v24zM87 630h123v-630h-123v630zM242 342h222v-24h-222v24zM242 449h222v-24h-222v24zM496 630h122v-630h-122v630zM649 449h79v-24h-79v24z" />
    <glyph glyph-name="hbar" unicode="&#x127;" horiz-adv-x="493" 
d="M-11 549h64v127l107 12v-139h100v-18h-100v-531h-107v531h-64v18zM341 302q0 80 -81 80q-36 0 -78 -25v8q23 31 62 52t81 21q61 0 92 -33.5t31 -93.5v-311h-107v302z" />
    <glyph glyph-name="Itilde" unicode="&#x128;" horiz-adv-x="251" 
d="M64 630h122v-630h-122v630zM-6 670q14 45 44.5 70.5t69.5 25.5h102q22 0 33.5 8.5t24.5 27.5h8q-30 -101 -110 -101h-105q-40 0 -60 -31h-7z" />
    <glyph glyph-name="itilde" unicode="&#x129;" horiz-adv-x="207" 
d="M50 426l107 14v-440h-107v426zM-29 502q15 45 45.5 69.5t69.5 24.5h99q21 0 33 8.5t25 28.5h8q-29 -100 -110 -100h-103q-39 0 -59 -31h-8z" />
    <glyph glyph-name="Imacron" unicode="&#x12a;" horiz-adv-x="251" 
d="M21 732h209v-36h-209v36zM64 630h122v-630h-122v630z" />
    <glyph glyph-name="imacron" unicode="&#x12b;" horiz-adv-x="207" 
d="M16 585h176v-35h-176v35zM50 426l107 14v-440h-107v426z" />
    <glyph glyph-name="Ibreve" unicode="&#x12c;" horiz-adv-x="251" 
d="M64 630h122v-630h-122v630zM127 675q-101 0 -113 116h11q6 -27 33 -43.5t69 -16.5q41 0 68.5 16.5t33.5 43.5h10q-12 -116 -112 -116z" />
    <glyph glyph-name="ibreve" unicode="&#x12d;" horiz-adv-x="207" 
d="M50 426l107 14v-440h-107v426zM105 505q-45 0 -74.5 32t-34.5 85h11q6 -29 31 -45.5t67 -16.5q41 0 66 16.5t31 45.5h11q-5 -52 -34 -84.5t-74 -32.5z" />
    <glyph glyph-name="Iogonek" unicode="&#x12e;" horiz-adv-x="251" 
d="M64 630h122v-630h-122v630zM116 -219q-40 0 -64.5 20.5t-24.5 58.5q0 69 118 120h11q-30 -26 -43.5 -46.5t-13.5 -47.5q0 -56 55 -56q38 0 65 30l7 -5q-13 -21 -23.5 -34.5t-34 -26.5t-52.5 -13z" />
    <glyph glyph-name="iogonek" unicode="&#x12f;" horiz-adv-x="207" 
d="M50 423l107 13v-436h-107v423zM103 500q-24 0 -41.5 16.5t-17.5 41.5q0 26 17 42t42 16t42 -16t17 -42q0 -25 -17.5 -41.5t-41.5 -16.5zM91 -219q-40 0 -64.5 20.5t-24.5 58.5q0 69 118 120h11q-30 -26 -43.5 -46.5t-13.5 -47.5q0 -56 55 -56q38 0 65 30l7 -5
q-13 -21 -23.5 -34.5t-34 -26.5t-52.5 -13z" />
    <glyph glyph-name="Idotaccent" unicode="&#x130;" horiz-adv-x="251" 
d="M64 630h122v-630h-122v630zM126 684q-24 0 -42 16.5t-18 42.5t17.5 42.5t42.5 16.5t43 -16.5t18 -42.5t-18 -42.5t-43 -16.5z" />
    <glyph glyph-name="dotlessi" unicode="&#x131;" horiz-adv-x="207" 
d="M50 426l107 14v-440h-107v426z" />
    <glyph glyph-name="IJ" unicode="&#x132;" horiz-adv-x="610" 
d="M360 2q40 9 54.5 38t14.5 86v504h122v-447q0 -93 -54 -140t-137 -51v10zM65 630h122v-630h-122v630zM299 18q-23 0 -39.5 16.5t-16.5 41.5q0 24 16.5 40.5t39.5 16.5q24 0 41 -16.5t17 -40.5q0 -25 -17 -41.5t-41 -16.5z" />
    <glyph glyph-name="ij" unicode="&#x133;" horiz-adv-x="409" 
d="M50 423l107 13v-436h-107v423zM103 500q-24 0 -41.5 16.5t-17.5 41.5q0 26 17 42t42 16t42 -16t17 -42q0 -25 -17.5 -41.5t-41.5 -16.5zM305 500q-24 0 -41.5 16.5t-17.5 41.5q0 26 17 42t42 16t42 -16t17 -42q0 -25 -17.5 -41.5t-41.5 -16.5zM181 -156q71 18 71 108v471
l107 13v-419q0 -90 -49 -130.5t-129 -50.5v8zM135 -144q-19 0 -32 12.5t-13 32.5t13.5 33t31.5 13q19 0 32.5 -13t13.5 -32q0 -20 -13.5 -33t-32.5 -13z" />
    <glyph glyph-name="Jcircumflex" unicode="&#x134;" horiz-adv-x="397" 
d="M154 680l119 120h6l118 -120l-5 -6l-113 61h-6l-114 -61zM129 2q86 18 86 128v500h122v-454q0 -91 -60 -135.5t-148 -48.5v10zM60 18q-23 0 -39.5 16.5t-16.5 41.5q0 24 16.5 40.5t39.5 16.5q24 0 41 -16.5t17 -40.5q0 -25 -17 -41.5t-41 -16.5z" />
    <glyph glyph-name="jcircumflex" unicode="&#x135;" horiz-adv-x="209" 
d="M-10 -156q32 10 47.5 33.5t15.5 74.5v474l107 14v-423q0 -90 -46 -130.5t-124 -50.5v8zM-63 -144q-19 0 -32.5 12.5t-13.5 32.5t13.5 33t32.5 13q18 0 32 -13.5t14 -31.5q0 -20 -13.5 -33t-32.5 -13zM-13 514l115 133h6l114 -133l-5 -7l-110 71h-5l-110 -71z" />
    <glyph glyph-name="Kcommaaccent" unicode="&#x136;" horiz-adv-x="612" 
d="M258 -194q0 3 6 64t9 75h91q-6 -12 -47.5 -69t-47.5 -70h-11zM64 630h122v-630h-122v630zM466 0q-119 153 -221 303l86 78l139 -198l131 -175v-8h-135zM429 499l46 131h119l-157 -138z" />
    <glyph glyph-name="kcommaaccent" unicode="&#x137;" horiz-adv-x="460" 
d="M183 -194q0 3 6 64t9 75h91q-6 -12 -47.5 -69t-47.5 -70h-11zM345 0l-47.5 59t-61 77.5t-44.5 63.5l74 72q27 -43 59 -87l77.5 -103l59.5 -77v-5h-117zM50 675l107 13v-688h-107v675zM314 339q12 52 13 91h115q-34 -23 -122 -98z" />
    <glyph glyph-name="Lacute" unicode="&#x139;" horiz-adv-x="503" 
d="M44 683q9 6 82.5 45t90.5 51l25 -66q-15 -1 -98 -19t-98 -20zM65 630h122v-630h-122v630zM243 10q37 10 71 21t53 18l58.5 22.5l59.5 23.5v-95h-242v10z" />
    <glyph glyph-name="lacute" unicode="&#x13a;" horiz-adv-x="208" 
d="M24 733q9 6 82.5 45t90.5 51l25 -66q-15 -2 -98 -19.5t-98 -19.5zM51 675l106 13v-688h-106v675z" />
    <glyph glyph-name="Lcommaaccent" unicode="&#x13b;" horiz-adv-x="503" 
d="M221 -194q0 3 6 64t9 75h91q-6 -12 -47.5 -69t-47.5 -70h-11zM65 630h122v-630h-122v630zM243 10q37 10 71 21t53 18l58.5 22.5l59.5 23.5v-95h-242v10z" />
    <glyph glyph-name="lcommaaccent" unicode="&#x13c;" horiz-adv-x="208" 
d="M46 -194q0 3 6 64t9 75h91q-6 -12 -47.5 -69t-47.5 -70h-11zM51 675l106 13v-688h-106v675z" />
    <glyph glyph-name="Lcaron" unicode="&#x13d;" horiz-adv-x="503" 
d="M244 464q4 21 11.5 83.5t11.5 83.5h69q-7 -21 -39.5 -84t-40.5 -83h-12zM65 630h122v-630h-122v630zM243 10q37 10 71 21t53 18l58.5 22.5l59.5 23.5v-95h-242v10z" />
    <glyph glyph-name="lcaron" unicode="&#x13e;" horiz-adv-x="208" 
d="M200 521q4 21 11.5 83.5t11.5 83.5h69q-7 -21 -39.5 -84t-40.5 -83h-12zM51 675l106 13v-688h-106v675z" />
    <glyph glyph-name="Ldot" unicode="&#x13f;" horiz-adv-x="503" 
d="M380 282q-24 0 -40 15t-16 40q0 26 16 41t40 15t41 -15.5t17 -40.5t-17 -40t-41 -15zM65 630h122v-630h-122v630zM243 10q37 10 71 21t53 18l58.5 22.5l59.5 23.5v-95h-242v10z" />
    <glyph glyph-name="ldot" unicode="&#x140;" horiz-adv-x="315" 
d="M263 262q-24 0 -40.5 16t-16.5 41q0 24 16.5 40.5t40.5 16.5t40.5 -16.5t16.5 -40.5q0 -25 -16.5 -41t-40.5 -16zM50 675l106 13v-688h-106v675z" />
    <glyph glyph-name="Lslash" unicode="&#x141;" horiz-adv-x="503" 
d="M0 224l67 28v378h122v-325l156 67l7 -19l-163 -69v-284h-122v232l-60 -25zM245 10q45 12 81.5 24.5t83 31t77.5 29.5v-95h-242v10z" />
    <glyph glyph-name="lslash" unicode="&#x142;" horiz-adv-x="220" 
d="M-12 280l69 39v356l106 13v-308l70 41l9 -16l-79 -46v-359h-106v298l-60 -35z" />
    <glyph glyph-name="Nacute" unicode="&#x143;" horiz-adv-x="624" 
d="M252 683q9 6 82.5 45t90.5 51l25 -66q-15 -1 -98 -19t-98 -20zM128 484q-48 66 -113 146h154l381 -539v-94h-80zM37 0q27 92 43 168h12q19 -93 43 -168h-98zM538 466q-18 82 -44 164h99q-20 -63 -44 -164h-11z" />
    <glyph glyph-name="nacute" unicode="&#x144;" horiz-adv-x="493" 
d="M167 517l73.5 45.5l91.5 55.5l28 -72l-190 -37zM338 303q0 79 -81 79q-41 0 -78 -24v7q23 31 61.5 52t81.5 21q61 0 92 -33.5t31 -92.5v-312h-107v303zM50 427l107 12v-439h-107v427z" />
    <glyph glyph-name="Ncommaaccent" unicode="&#x145;" horiz-adv-x="624" 
d="M236 -194q0 3 6 64t9 75h91q-6 -12 -47.5 -69t-47.5 -70h-11zM128 484q-48 66 -113 146h154l381 -539v-94h-80zM37 0q27 92 43 168h12q19 -93 43 -168h-98zM538 466q-18 82 -44 164h99q-20 -63 -44 -164h-11z" />
    <glyph glyph-name="ncommaaccent" unicode="&#x146;" horiz-adv-x="493" 
d="M190 -194q0 3 6 64t9 75h91q-6 -12 -47.5 -69t-47.5 -70h-11zM338 303q0 79 -81 79q-41 0 -78 -24v7q23 31 61.5 52t81.5 21q61 0 92 -33.5t31 -92.5v-312h-107v303zM50 427l107 12v-439h-107v427z" />
    <glyph glyph-name="Ncaron" unicode="&#x147;" horiz-adv-x="624" 
d="M213 793l6 7l111 -61h6l111 61l5 -7l-116 -119h-7zM128 484q-48 66 -113 146h154l381 -539v-94h-80zM37 0q27 92 43 168h12q19 -93 43 -168h-98zM538 466q-18 82 -44 164h99q-20 -63 -44 -164h-11z" />
    <glyph glyph-name="ncaron" unicode="&#x148;" horiz-adv-x="493" 
d="M135 641l6 6l109 -71h6l109 71l5 -6l-114 -134h-7zM338 303q0 79 -81 79q-41 0 -78 -24v7q23 31 61.5 52t81.5 21q61 0 92 -33.5t31 -92.5v-312h-107v303zM50 427l107 12v-439h-107v427z" />
    <glyph glyph-name="napostrophe" unicode="&#x149;" horiz-adv-x="573" 
d="M418 303q0 79 -81 79q-41 0 -78 -24v7q23 31 61.5 52t81.5 21q61 0 92 -33.5t31 -92.5v-312h-107v303zM130 427l107 12v-439h-107v427zM25 443q6 21 18 97.5t15 89.5h87q-7 -17 -51.5 -93.5t-52.5 -93.5h-16z" />
    <glyph glyph-name="Eng" unicode="&#x14a;" horiz-adv-x="624" 
d="M346 -192q85 17 85 128v116l-303 432q-48 66 -113 146h154l381 -539v-109q0 -90 -59.5 -133.5t-144.5 -50.5v10zM37 0q27 92 43 168h12q19 -93 43 -168h-98zM275 -180q-24 0 -39.5 15.5t-15.5 39.5t15.5 39.5t39.5 15.5q25 0 40.5 -16t15.5 -39t-15.5 -39t-40.5 -16z
M538 466q-18 82 -44 164h99q-20 -63 -44 -164h-11z" />
    <glyph glyph-name="eng" unicode="&#x14b;" horiz-adv-x="493" 
d="M275 -156q32 10 47.5 33.5t15.5 74.5v351q0 79 -81 79q-41 0 -78 -24v7q23 31 61.5 52t81.5 21q61 0 92 -33.5t31 -92.5v-295q0 -90 -46.5 -130.5t-123.5 -50.5v8zM50 427l107 12v-439h-107v427zM221 -144q-19 0 -32 12.5t-13 32.5t13.5 33t31.5 13q19 0 32.5 -13
t13.5 -32q0 -20 -13.5 -33t-32.5 -13z" />
    <glyph glyph-name="Omacron" unicode="&#x14c;" horiz-adv-x="698" 
d="M231 732h235v-36h-235v36zM327 -8q-125 6 -211 100t-86 223t86 223t211 100v-10q-60 -9 -99.5 -57t-55 -112t-15.5 -144t15.5 -144t55 -112t99.5 -57v-10zM371 2q61 9 100.5 57t54.5 112t15 144t-15 144t-54.5 112t-100.5 57v10q125 -6 211 -100t86 -223t-86 -223
t-211 -100v10z" />
    <glyph glyph-name="omacron" unicode="&#x14d;" horiz-adv-x="512" 
d="M149 582h214v-35h-214v35zM237 -8q-91 8 -151.5 71t-60.5 152t60.5 152t151.5 71v-8q-26 -6 -43 -21q-57 -45 -57 -194q0 -147 57 -194q19 -16 43 -20v-9zM274 1q23 4 44 20q57 47 57 194q0 149 -57 194q-18 15 -44 21v8q91 -8 152 -71t61 -152q0 -88 -61 -151.5
t-152 -71.5v9z" />
    <glyph glyph-name="Obreve" unicode="&#x14e;" horiz-adv-x="698" 
d="M349 675q-101 0 -113 116h11q6 -27 33 -43.5t69 -16.5q41 0 68.5 16.5t33.5 43.5h10q-12 -116 -112 -116zM327 -8q-125 6 -211 100t-86 223t86 223t211 100v-10q-60 -9 -99.5 -57t-55 -112t-15.5 -144t15.5 -144t55 -112t99.5 -57v-10zM371 2q61 9 100.5 57t54.5 112
t15 144t-15 144t-54.5 112t-100.5 57v10q125 -6 211 -100t86 -223t-86 -223t-211 -100v10z" />
    <glyph glyph-name="obreve" unicode="&#x14f;" horiz-adv-x="512" 
d="M237 -8q-91 8 -151.5 71t-60.5 152t60.5 152t151.5 71v-8q-26 -6 -43 -21q-57 -45 -57 -194q0 -147 57 -194q19 -16 43 -20v-9zM274 1q23 4 44 20q57 47 57 194q0 149 -57 194q-18 15 -44 21v8q91 -8 152 -71t61 -152q0 -88 -61 -151.5t-152 -71.5v9zM256 505
q-45 0 -74.5 32t-34.5 85h11q6 -29 31 -45.5t67 -16.5q41 0 66 16.5t31 45.5h11q-5 -52 -34 -84.5t-74 -32.5z" />
    <glyph glyph-name="Ohungarumlaut" unicode="&#x150;" horiz-adv-x="698" 
d="M273 694l68 129l60 -34l-122 -98zM398 694l68 129l59 -34l-122 -98zM327 -8q-125 6 -211 100t-86 223t86 223t211 100v-10q-60 -9 -99.5 -57t-55 -112t-15.5 -144t15.5 -144t55 -112t99.5 -57v-10zM371 2q61 9 100.5 57t54.5 112t15 144t-15 144t-54.5 112t-100.5 57v10
q125 -6 211 -100t86 -223t-86 -223t-211 -100v10z" />
    <glyph glyph-name="ohungarumlaut" unicode="&#x151;" horiz-adv-x="512" 
d="M190 500l70 146l54 -35l-119 -116zM306 500l70 146l54 -35l-119 -116zM237 -8q-91 8 -151.5 71t-60.5 152t60.5 152t151.5 71v-8q-26 -6 -43 -21q-57 -45 -57 -194q0 -147 57 -194q19 -16 43 -20v-9zM274 1q23 4 44 20q57 47 57 194q0 149 -57 194q-18 15 -44 21v8
q91 -8 152 -71t61 -152q0 -88 -61 -151.5t-152 -71.5v9z" />
    <glyph glyph-name="OE" unicode="&#x152;" horiz-adv-x="849" 
d="M360 0q-138 6 -234.5 90.5t-96.5 224.5t96.5 224.5t234.5 90.5v-10q-98 -10 -150 -88.5t-52 -216.5q0 -136 52 -215.5t150 -89.5v-10zM411 630h123v-630h-123v630zM590 10q126 31 234 68v-78h-234v10zM732 283q-29 5 -70 14.5t-72 15.5v11q111 22 142 29v-70zM818 557
q-127 40 -229 62v11h229v-73z" />
    <glyph glyph-name="oe" unicode="&#x153;" horiz-adv-x="766" 
d="M266 1q22 4 42 20q53 44 53 194q0 76 -11.5 122.5t-41.5 71.5q-16 15 -42 21v8q96 -11 148 -93q21 40 59 64.5t79 28.5v-9q-45 -11 -63.5 -55t-18.5 -119q0 -91 39.5 -137t107.5 -46q81 0 129 41v-13q-50 -108 -169 -108q-53 0 -96 25.5t-67 68.5q-50 -83 -148 -94v9z
M230 -8q-88 8 -146.5 71t-58.5 152t58.5 152t146.5 71v-8q-24 -6 -41 -21q-30 -25 -41.5 -71.5t-11.5 -122.5q0 -150 53 -194q20 -16 41 -20v-9zM505 270l141 11q0 68 -18.5 105t-47.5 43v9q77 -4 119.5 -56t42.5 -121h-237v9z" />
    <glyph glyph-name="Racute" unicode="&#x154;" horiz-adv-x="565" 
d="M200 683q9 6 82.5 45t90.5 51l25 -66q-15 -1 -98 -19t-98 -20zM434 0l-91.5 142t-102.5 163q137 31 137 159q0 77 -35 111.5t-106 43.5v11q264 -6 264 -174q0 -53 -39.5 -91t-99.5 -58q22 -38 55 -87l80.5 -116l68.5 -98v-6h-131zM64 630h122v-630h-122v630z" />
    <glyph glyph-name="racute" unicode="&#x155;" horiz-adv-x="338" 
d="M126 517l73.5 45.5l91.5 55.5l28 -72l-190 -37zM181 325q9 47 40 80t77 33q21 0 30 -4v-88q-15 7 -47 7q-62 0 -100 -38v10zM50 427l107 12v-439h-107v427z" />
    <glyph glyph-name="Rcommaaccent" unicode="&#x156;" horiz-adv-x="565" 
d="M237 -194q0 3 6 64t9 75h91q-6 -12 -47.5 -69t-47.5 -70h-11zM434 0l-91.5 142t-102.5 163q137 31 137 159q0 77 -35 111.5t-106 43.5v11q264 -6 264 -174q0 -53 -39.5 -91t-99.5 -58q22 -38 55 -87l80.5 -116l68.5 -98v-6h-131zM64 630h122v-630h-122v630z" />
    <glyph glyph-name="rcommaaccent" unicode="&#x157;" horiz-adv-x="338" 
d="M41 -194q0 3 6 64t9 75h91q-6 -12 -47.5 -69t-47.5 -70h-11zM181 325q9 47 40 80t77 33q21 0 30 -4v-88q-15 7 -47 7q-62 0 -100 -38v10zM50 427l107 12v-439h-107v427z" />
    <glyph glyph-name="Rcaron" unicode="&#x158;" horiz-adv-x="565" 
d="M161 793l6 7l111 -61h6l111 61l5 -7l-116 -119h-7zM434 0l-91.5 142t-102.5 163q137 31 137 159q0 77 -35 111.5t-106 43.5v11q264 -6 264 -174q0 -53 -39.5 -91t-99.5 -58q22 -38 55 -87l80.5 -116l68.5 -98v-6h-131zM64 630h122v-630h-122v630z" />
    <glyph glyph-name="rcaron" unicode="&#x159;" horiz-adv-x="338" 
d="M96 641l6 6l109 -71h6l109 71l5 -6l-114 -134h-7zM181 325q9 47 40 80t77 33q21 0 30 -4v-88q-15 7 -47 7q-62 0 -100 -38v10zM50 427l107 12v-439h-107v427z" />
    <glyph glyph-name="Sacute" unicode="&#x15a;" horiz-adv-x="473" 
d="M226 2q48 10 80 40.5t32 88.5q0 44 -23 68t-91 62l-47 24q-66 34 -101 73.5t-35 100.5q0 77 57.5 126t132.5 53v-10q-41 -6 -69.5 -33.5t-28.5 -67.5q0 -49 22.5 -73.5t95.5 -64.5l40 -21q39 -22 56.5 -33t41.5 -33t33.5 -49.5t9.5 -64.5q0 -85 -62.5 -138.5
t-143.5 -57.5v10zM182 -8q-98 5 -147 23v80q65 -67 147 -93v-10zM403 549q-68 66 -128 79v10q68 0 128 -16v-73zM175 683q9 6 82.5 45t90.5 51l25 -66q-15 -1 -98 -19t-98 -20z" />
    <glyph glyph-name="sacute" unicode="&#x15b;" horiz-adv-x="362" 
d="M102 517l73.5 45.5l91.5 55.5l28 -72l-190 -37zM178 1q31 4 54.5 25t23.5 55q0 29 -16 45.5t-52 32.5l-64 29q-93 44 -93 121q0 51 41 88t103 41v-8q-28 -4 -46.5 -20t-18.5 -43q0 -48 55 -72l79 -36q91 -42 91 -122q0 -63 -43.5 -102t-113.5 -43v9zM147 -8
q-77 6 -114 17v77q67 -68 114 -85v-9zM306 355q-46 53 -105 75v8q59 -1 105 -15v-68z" />
    <glyph glyph-name="Scircumflex" unicode="&#x15c;" horiz-adv-x="473" 
d="M134 680l119 120h6l118 -120l-5 -6l-113 61h-6l-114 -61zM226 2q48 10 80 40.5t32 88.5q0 44 -23 68t-91 62l-47 24q-66 34 -101 73.5t-35 100.5q0 77 57.5 126t132.5 53v-10q-41 -6 -69.5 -33.5t-28.5 -67.5q0 -49 22.5 -73.5t95.5 -64.5l40 -21q39 -22 56.5 -33
t41.5 -33t33.5 -49.5t9.5 -64.5q0 -85 -62.5 -138.5t-143.5 -57.5v10zM182 -8q-98 5 -147 23v80q65 -67 147 -93v-10zM403 549q-68 66 -128 79v10q68 0 128 -16v-73z" />
    <glyph glyph-name="scircumflex" unicode="&#x15d;" horiz-adv-x="362" 
d="M71 514l115 133h6l114 -133l-5 -7l-110 71h-5l-110 -71zM178 1q31 4 54.5 25t23.5 55q0 29 -16 45.5t-52 32.5l-64 29q-93 44 -93 121q0 51 41 88t103 41v-8q-28 -4 -46.5 -20t-18.5 -43q0 -48 55 -72l79 -36q91 -42 91 -122q0 -63 -43.5 -102t-113.5 -43v9zM147 -8
q-77 6 -114 17v77q67 -68 114 -85v-9zM306 355q-46 53 -105 75v8q59 -1 105 -15v-68z" />
    <glyph glyph-name="Scedilla" unicode="&#x15e;" horiz-adv-x="473" 
d="M226 2q48 10 80 40.5t32 88.5q0 44 -23 68t-91 62l-47 24q-66 34 -101 73.5t-35 100.5q0 77 57.5 126t132.5 53v-10q-41 -6 -69.5 -33.5t-28.5 -67.5q0 -49 22.5 -73.5t95.5 -64.5l40 -21q39 -22 56.5 -33t41.5 -33t33.5 -49.5t9.5 -64.5q0 -85 -62.5 -138.5
t-143.5 -57.5v10zM182 -8q-98 5 -147 23v80q65 -67 147 -93v-10zM403 549q-68 66 -128 79v10q68 0 128 -16v-73zM112 -217q-12 0 -20 8.5t-8 19.5t8 19t20 8q11 0 19 -8t8 -19t-8 -19.5t-19 -8.5zM160 -205q19 15 19 30q0 9 -19 38q-15 28 -15 42q0 21 22.5 40.5t57.5 31.5
l5 -7q-27 -20 -27 -36q0 -11 16 -36q21 -34 21 -48q0 -20 -22 -36.5t-55 -25.5z" />
    <glyph glyph-name="scedilla" unicode="&#x15f;" horiz-adv-x="362" 
d="M178 1q31 4 54.5 25t23.5 55q0 29 -16 45.5t-52 32.5l-64 29q-93 44 -93 121q0 51 41 88t103 41v-8q-28 -4 -46.5 -20t-18.5 -43q0 -48 55 -72l79 -36q91 -42 91 -122q0 -63 -43.5 -102t-113.5 -43v9zM147 -8q-77 6 -114 17v77q67 -68 114 -85v-9zM306 355
q-46 53 -105 75v8q59 -1 105 -15v-68zM166 -201q11 9 11 18q0 12 -6.5 20.5t-26.5 26.5q-25 23 -25 49q0 37 61 65l6 -6q-13 -15 -13 -27q0 -17 25 -42q32 -32 32 -53q0 -30 -60 -57zM123 -223q-11 0 -18.5 8t-7.5 19t7.5 18.5t18.5 7.5t18.5 -7.5t7.5 -18.5t-7.5 -19
t-18.5 -8z" />
    <glyph glyph-name="Scaron" unicode="&#x160;" horiz-adv-x="473" 
d="M136 793l6 7l111 -61h6l111 61l5 -7l-116 -119h-7zM226 2q48 10 80 40.5t32 88.5q0 44 -23 68t-91 62l-47 24q-66 34 -101 73.5t-35 100.5q0 77 57.5 126t132.5 53v-10q-41 -6 -69.5 -33.5t-28.5 -67.5q0 -49 22.5 -73.5t95.5 -64.5l40 -21q39 -22 56.5 -33t41.5 -33
t33.5 -49.5t9.5 -64.5q0 -85 -62.5 -138.5t-143.5 -57.5v10zM182 -8q-98 5 -147 23v80q65 -67 147 -93v-10zM403 549q-68 66 -128 79v10q68 0 128 -16v-73z" />
    <glyph glyph-name="scaron" unicode="&#x161;" horiz-adv-x="362" 
d="M71 641l6 6l109 -71h6l109 71l5 -6l-114 -134h-7zM178 1q31 4 54.5 25t23.5 55q0 29 -16 45.5t-52 32.5l-64 29q-93 44 -93 121q0 51 41 88t103 41v-8q-28 -4 -46.5 -20t-18.5 -43q0 -48 55 -72l79 -36q91 -42 91 -122q0 -63 -43.5 -102t-113.5 -43v9zM147 -8
q-77 6 -114 17v77q67 -68 114 -85v-9zM306 355q-46 53 -105 75v8q59 -1 105 -15v-68z" />
    <glyph glyph-name="Tcommaaccent" unicode="&#x162;" horiz-adv-x="572" 
d="M227 -194q0 3 6 64t9 75h91q-6 -12 -47.5 -69t-47.5 -70h-11zM9 630h178v-11q-58 -19 -178 -80v91zM225 630h122v-630h-122v630zM563 539q-120 61 -177 80v11h177v-91z" />
    <glyph glyph-name="tcommaaccent" unicode="&#x163;" horiz-adv-x="320" 
d="M122 -194q0 3 6 64t9 75h91q-6 -12 -47.5 -69t-47.5 -70h-11zM187 -8q-118 0 -118 132v271h-64v35h64v110l106 37v-147h131v-35h-131v-259q0 -44 15.5 -67.5t56.5 -23.5q49 0 73 16v-11q-14 -23 -50 -40.5t-83 -17.5z" />
    <glyph glyph-name="Tcaron" unicode="&#x164;" horiz-adv-x="572" 
d="M167 793l6 7l111 -61h6l111 61l5 -7l-116 -119h-7zM9 630h178v-11q-58 -19 -178 -80v91zM225 630h122v-630h-122v630zM563 539q-120 61 -177 80v11h177v-91z" />
    <glyph glyph-name="tcaron" unicode="&#x165;" horiz-adv-x="320" 
d="M218 521q4 21 11.5 83.5t11.5 83.5h69q-7 -21 -39.5 -84t-40.5 -83h-12zM187 -8q-118 0 -118 132v271h-64v35h64v110l106 37v-147h131v-35h-131v-259q0 -44 15.5 -67.5t56.5 -23.5q49 0 73 16v-11q-14 -23 -50 -40.5t-83 -17.5z" />
    <glyph glyph-name="Tbar" unicode="&#x166;" horiz-adv-x="572" 
d="M82 356h113v-24h-113v24zM9 630h178v-11q-58 -19 -178 -80v91zM225 630h122v-630h-122v630zM377 356h113v-24h-113v24zM563 539q-120 61 -177 80v11h177v-91z" />
    <glyph glyph-name="tbar" unicode="&#x167;" horiz-adv-x="320" 
d="M3 320h64v75h-64v35h65v110l106 37v-147h130v-35h-130v-75h130v-18h-130v-166q0 -44 15.5 -67.5t55.5 -23.5q48 0 74 16v-11q-14 -23 -50 -40.5t-84 -17.5q-118 0 -118 132v178h-64v18z" />
    <glyph glyph-name="Utilde" unicode="&#x168;" horiz-adv-x="612" 
d="M306 -8q-112 0 -178.5 59.5t-66.5 177.5v401h122v-397q0 -87 44 -130t124 -43q104 0 150 55l8 -7q-21 -50 -74 -83t-129 -33zM528 452q-32 130 -46 178h102q-19 -68 -45 -178h-11zM208 670q14 45 44.5 70.5t69.5 25.5h102q22 0 33.5 8.5t24.5 27.5h8q-30 -101 -110 -101
h-105q-40 0 -60 -31h-7z" />
    <glyph glyph-name="utilde" unicode="&#x169;" horiz-adv-x="494" 
d="M177 -7q-64 0 -96 35t-32 95v304l106 13v-310q0 -80 81 -80q42 0 79 25v-8q-20 -30 -58 -52t-80 -22zM337 427l106 13v-433l-106 -12v432zM112 502q15 45 45.5 69.5t69.5 24.5h99q21 0 33 8.5t25 28.5h8q-29 -100 -110 -100h-103q-39 0 -59 -31h-8z" />
    <glyph glyph-name="Umacron" unicode="&#x16a;" horiz-adv-x="612" 
d="M306 -8q-112 0 -178.5 59.5t-66.5 177.5v401h122v-397q0 -87 44 -130t124 -43q104 0 150 55l8 -7q-21 -50 -74 -83t-129 -33zM528 452q-32 130 -46 178h102q-19 -68 -45 -178h-11zM223 732h235v-36h-235v36z" />
    <glyph glyph-name="umacron" unicode="&#x16b;" horiz-adv-x="494" 
d="M177 -7q-64 0 -96 35t-32 95v304l106 13v-310q0 -80 81 -80q42 0 79 25v-8q-20 -30 -58 -52t-80 -22zM337 427l106 13v-433l-106 -12v432zM140 582h214v-35h-214v35z" />
    <glyph glyph-name="Ubreve" unicode="&#x16c;" horiz-adv-x="612" 
d="M306 -8q-112 0 -178.5 59.5t-66.5 177.5v401h122v-397q0 -87 44 -130t124 -43q104 0 150 55l8 -7q-21 -50 -74 -83t-129 -33zM528 452q-32 130 -46 178h102q-19 -68 -45 -178h-11zM341 675q-101 0 -113 116h11q6 -27 33 -43.5t69 -16.5q41 0 68.5 16.5t33.5 43.5h10
q-12 -116 -112 -116z" />
    <glyph glyph-name="ubreve" unicode="&#x16d;" horiz-adv-x="494" 
d="M177 -7q-64 0 -96 35t-32 95v304l106 13v-310q0 -80 81 -80q42 0 79 25v-8q-20 -30 -58 -52t-80 -22zM337 427l106 13v-433l-106 -12v432zM247 505q-45 0 -74.5 32t-34.5 85h11q6 -29 31 -45.5t67 -16.5q41 0 66 16.5t31 45.5h11q-5 -52 -34 -84.5t-74 -32.5z" />
    <glyph glyph-name="Uring" unicode="&#x16e;" horiz-adv-x="612" 
d="M306 -8q-112 0 -178.5 59.5t-66.5 177.5v401h122v-397q0 -87 44 -130t124 -43q104 0 150 55l8 -7q-21 -50 -74 -83t-129 -33zM528 452q-32 130 -46 178h102q-19 -68 -45 -178h-11zM352 665q21 2 36 17.5t15 40.5q0 52 -51 60v14q28 -2 48 -22.5t20 -51.5q0 -30 -21 -50.5
t-47 -22.5v15zM330 650q-27 2 -47.5 22t-20.5 51t20 51.5t48 22.5v-14q-51 -8 -51 -60q0 -25 15 -40.5t36 -17.5v-15z" />
    <glyph glyph-name="uring" unicode="&#x16f;" horiz-adv-x="494" 
d="M257 506q21 2 35 17.5t14 41.5q0 52 -49 59v14q28 -2 47 -21.5t19 -51.5q0 -31 -20 -51t-46 -22v14zM235 492q-27 2 -46.5 21.5t-19.5 51.5q0 31 19 51t47 22v-14q-49 -7 -49 -59q0 -26 14 -41.5t35 -17.5v-14zM177 -7q-64 0 -96 35t-32 95v304l106 13v-310q0 -80 81 -80
q42 0 79 25v-8q-20 -30 -58 -52t-80 -22zM337 427l106 13v-433l-106 -12v432z" />
    <glyph glyph-name="Uhungarumlaut" unicode="&#x170;" horiz-adv-x="612" 
d="M265 694l68 129l60 -34l-122 -98zM390 694l68 129l59 -34l-122 -98zM306 -8q-112 0 -178.5 59.5t-66.5 177.5v401h122v-397q0 -87 44 -130t124 -43q104 0 150 55l8 -7q-21 -50 -74 -83t-129 -33zM528 452q-32 130 -46 178h102q-19 -68 -45 -178h-11z" />
    <glyph glyph-name="uhungarumlaut" unicode="&#x171;" horiz-adv-x="494" 
d="M177 -7q-64 0 -96 35t-32 95v304l106 13v-310q0 -80 81 -80q42 0 79 25v-8q-20 -30 -58 -52t-80 -22zM337 427l106 13v-433l-106 -12v432zM181 500l70 146l54 -35l-119 -116zM297 500l70 146l54 -35l-119 -116z" />
    <glyph glyph-name="Uogonek" unicode="&#x172;" horiz-adv-x="612" 
d="M328 -219q-40 0 -64.5 20.5t-24.5 58.5q0 69 118 120h11q-30 -26 -43.5 -46.5t-13.5 -47.5q0 -56 55 -56q38 0 65 30l7 -5q-13 -21 -23.5 -34.5t-34 -26.5t-52.5 -13zM306 -8q-112 0 -178.5 59.5t-66.5 177.5v401h122v-397q0 -87 44 -130t124 -43q104 0 150 55l8 -7
q-21 -50 -74 -83t-129 -33zM528 452q-32 130 -46 178h102q-19 -68 -45 -178h-11z" />
    <glyph glyph-name="uogonek" unicode="&#x173;" horiz-adv-x="494" 
d="M319 -219q-40 0 -64.5 20.5t-24.5 58.5q0 69 118 120h11q-30 -26 -43.5 -46.5t-13.5 -47.5q0 -56 55 -56q38 0 65 30l7 -5q-13 -21 -23.5 -34.5t-34 -26.5t-52.5 -13zM177 -7q-64 0 -96 35t-32 95v304l106 13v-310q0 -80 81 -80q42 0 79 25v-8q-20 -30 -58 -52t-80 -22z
M337 427l106 13v-433l-106 -12v432z" />
    <glyph glyph-name="Wcircumflex" unicode="&#x174;" horiz-adv-x="835" 
d="M283 680l119 120h6l118 -120l-5 -6l-113 61h-6l-114 -61zM12 630h130l173 -500l-50 -133h-33zM333 630h130l173 -500l-51 -133h-32zM732 467q12 124 14 163h93q-78 -132 -97 -168z" />
    <glyph glyph-name="wcircumflex" unicode="&#x175;" horiz-adv-x="616" 
d="M191 514l115 133h6l114 -133l-5 -7l-110 71h-5l-110 -71zM4 430h113l127 -324l-45 -107h-26zM242 430h113l124 -324l-45 -107h-26zM535 311q8 53 12 119h78q-16 -21 -83 -125z" />
    <glyph glyph-name="Ycircumflex" unicode="&#x176;" horiz-adv-x="539" 
d="M197 292l-200 338h135l187 -316v-314h-122v292zM408 483q20 51 51 147h94q-24 -24 -138 -153zM177 680l119 120h6l118 -120l-5 -6l-113 61h-6l-114 -61z" />
    <glyph glyph-name="ycircumflex" unicode="&#x177;" horiz-adv-x="399" 
d="M1 430h112l143 -317l-44 -109h-19zM83 -178q-19 0 -32.5 12.5t-13.5 32.5t13.5 32.5t32.5 12.5t32.5 -12.5t13.5 -32.5t-13.5 -32.5t-32.5 -12.5zM320 311q7 48 12 119h78q-53 -77 -83 -125zM106 514l115 133h6l114 -133l-5 -7l-110 71h-5l-110 -71z" />
    <glyph glyph-name="Ydieresis" unicode="&#x178;" horiz-adv-x="539" 
d="M197 292l-200 338h135l187 -316v-314h-122v292zM408 483q20 51 51 147h94q-24 -24 -138 -153zM204 685q-20 0 -34 14.5t-14 34.5t14 33.5t34 13.5t34 -13.5t14 -33.5t-14 -34.5t-34 -14.5zM392 685q-19 0 -33 14.5t-14 34.5t14 33.5t33 13.5q20 0 34.5 -13.5t14.5 -33.5
t-14.5 -34.5t-34.5 -14.5z" />
    <glyph glyph-name="Zacute" unicode="&#x179;" horiz-adv-x="556" 
d="M204 683q9 6 82.5 45t90.5 51l25 -66q-15 -1 -98 -19t-98 -20zM45 630h244v-11q-107 -25 -251 -74zM399 630h134l-373 -630h-133zM263 10q36 7 73.5 17.5t56.5 16.5t67 23l63 22l-8 -89h-252v10z" />
    <glyph glyph-name="zacute" unicode="&#x17a;" horiz-adv-x="413" 
d="M136 517l73.5 45.5l91.5 55.5l28 -72l-190 -37zM36 430h143v-8q-61 -20 -147 -68zM276 430h119l-259 -430h-118zM226 9q89 27 167 72l-5 -81h-162v9z" />
    <glyph glyph-name="Zdotaccent" unicode="&#x17b;" horiz-adv-x="556" 
d="M45 630h244v-11q-107 -25 -251 -74zM399 630h134l-373 -630h-133zM263 10q36 7 73.5 17.5t56.5 16.5t67 23l63 22l-8 -89h-252v10zM288 684q-24 0 -42 16.5t-18 42.5t17.5 42.5t42.5 16.5t43 -16.5t18 -42.5t-18 -42.5t-43 -16.5z" />
    <glyph glyph-name="zdotaccent" unicode="&#x17c;" horiz-adv-x="413" 
d="M36 430h143v-8q-61 -20 -147 -68zM276 430h119l-259 -430h-118zM226 9q89 27 167 72l-5 -81h-162v9zM222 500q-24 0 -41.5 16.5t-17.5 41.5q0 26 17 42t42 16t42.5 -16t17.5 -42t-17.5 -42t-42.5 -16z" />
    <glyph glyph-name="Zcaron" unicode="&#x17d;" horiz-adv-x="556" 
d="M169 793l6 7l111 -61h6l111 61l5 -7l-116 -119h-7zM45 630h244v-11q-107 -25 -251 -74zM399 630h134l-373 -630h-133zM263 10q36 7 73.5 17.5t56.5 16.5t67 23l63 22l-8 -89h-252v10z" />
    <glyph glyph-name="zcaron" unicode="&#x17e;" horiz-adv-x="413" 
d="M105 641l6 6l109 -71h6l109 71l5 -6l-114 -134h-7zM36 430h143v-8q-61 -20 -147 -68zM276 430h119l-259 -430h-118zM226 9q89 27 167 72l-5 -81h-162v9z" />
    <glyph glyph-name="longs" unicode="&#x17f;" horiz-adv-x="214" 
d="M51 521q0 151 200 166v-8q-93 -17 -93 -106v-573h-107v521zM285 573q-20 0 -34 13t-14 33t13.5 32.5t34.5 12.5q20 0 33.5 -12.5t13.5 -32.5q0 -21 -13 -33.5t-34 -12.5z" />
    <glyph glyph-name="florin" unicode="&#x192;" horiz-adv-x="296" 
d="M40 351h63l9 46q31 160 203 174l-2 -8q-38 -8 -59.5 -35.5t-30.5 -78.5l-20 -98h93l-7 -34h-92l-50 -254q-20 -99 -70.5 -148.5t-134.5 -57.5l2 9q40 9 59 42t34 106l59 303h-62zM336 467q-18 0 -30 11.5t-12 29.5q0 17 12 28.5t30 11.5q19 0 30.5 -11.5t11.5 -28.5
q0 -18 -11.5 -29.5t-30.5 -11.5zM-80 -120q-17 0 -28.5 11t-11.5 28t11.5 28.5t28.5 11.5t29 -11.5t12 -28.5t-12 -28t-29 -11z" />
    <glyph glyph-name="Aringacute" unicode="&#x1fa;" horiz-adv-x="551" 
d="M129 260h185l-95 248l50 129h32l243 -637h-129l-91 236h-205zM1 0l85 146l12 -4q-9 -108 -9 -142h-88zM203 838q9 6 82.5 45t90.5 51l25 -66q-15 -2 -98 -20t-98 -19zM295 683q21 2 36 17.5t15 40.5q0 52 -51 60v14q28 -2 48 -22.5t20 -51.5q0 -30 -21 -50.5t-47 -22.5
v15zM273 668q-27 2 -47.5 22t-20.5 51t20 51.5t48 22.5v-14q-51 -8 -51 -60q0 -25 15 -40.5t36 -17.5v-15z" />
    <glyph glyph-name="aringacute" unicode="&#x1fb;" horiz-adv-x="426" 
d="M138 -8q-55 0 -84.5 30t-29.5 75q0 31 13.5 53.5t28 31.5t38.5 19q52 17 142 36v-9q-69 -24 -88 -35q-31 -25 -31 -77q0 -80 57 -80q30 0 65 26v-8q-41 -62 -111 -62zM271 305q0 53 -24.5 75t-77.5 22q-43 0 -67 -10v8q19 15 58 26.5t77 11.5q140 0 140 -116v-322h-106
v305zM93 286q-20 0 -31.5 12t-11.5 30q0 19 11.5 31t31.5 12t31.5 -12t11.5 -31q0 -18 -11.5 -30t-31.5 -12zM237 506q21 2 35 17.5t14 41.5q0 52 -49 59v14q28 -2 47 -21.5t19 -51.5q0 -31 -20 -51t-46 -22v14zM215 492q-27 2 -46.5 21.5t-19.5 51.5q0 31 19 51t47 22v-14
q-49 -7 -49 -59q0 -26 14 -41.5t35 -17.5v-14zM145 687q9 6 82.5 45t90.5 51l25 -66q-15 -1 -98 -19t-98 -20z" />
    <glyph glyph-name="AEacute" unicode="&#x1fc;" horiz-adv-x="809" 
d="M416 683q9 6 82.5 45t90.5 51l25 -66q-15 -1 -98 -19t-98 -20zM191 328h173v302h122v-630h-122v304h-187zM542 10q144 34 242 68v-78h-242v10zM777 557q-149 47 -236 62v11h236v-73zM-9 0q47 61 106 146l11 -4l-10 -41.5t-12.5 -57.5t-6.5 -43h-88zM687 283
q-67 17 -145 30v11q81 13 145 29v-70z" />
    <glyph glyph-name="aeacute" unicode="&#x1fd;" horiz-adv-x="662" 
d="M262 517l73.5 45.5l91.5 55.5l28 -72l-190 -37zM468 -8q-96 0 -152.5 61t-56.5 174v78q0 54 -23 75.5t-75 21.5q-41 0 -64 -10v8q18 14 56.5 26t74.5 12q87 0 109 -58q45 51 113 58v-9q-84 -21 -84 -174q0 -91 39.5 -137t107.5 -46q79 0 130 41v-13q-20 -43 -63 -75.5
t-112 -32.5zM138 -8q-54 0 -84 30.5t-30 74.5q0 31 13 53t27 31.5t37 19.5q42 15 136 36v-9q-62 -21 -82 -35q-28 -17 -28 -77q0 -77 63 -77q39 0 75 34v-7q-13 -28 -49 -51t-78 -23zM402 270l144 11q0 67 -19.5 104.5t-48.5 43.5v9q76 -4 118.5 -56t42.5 -121h-237v9z
M86 285q-20 0 -31.5 12t-11.5 30q0 19 11.5 31t31.5 12t31.5 -12t11.5 -31q0 -18 -11.5 -30t-31.5 -12z" />
    <glyph glyph-name="Oslashacute" unicode="&#x1fe;" horiz-adv-x="698" 
d="M371 2q46 7 79.5 35.5t52.5 72.5t27.5 95t8.5 110q0 137 -42 217l-271 -473q39 -48 101 -57v-10q-68 5 -121 32l-51 -90l-19 11l51 89q-73 42 -115 116.5t-42 164.5q0 129 86 223t211 100v-10q-60 -9 -99 -57t-54 -112t-15 -144q0 -155 53 -237l273 475q-44 65 -114 75
v10q74 -4 138 -42l51 88l18 -10l-51 -89q65 -45 103 -116t38 -154q0 -129 -86 -223t-211 -100v10zM268 683q9 6 82.5 45t90.5 51l25 -66q-15 -1 -98 -19t-98 -20z" />
    <glyph glyph-name="oslashacute" unicode="&#x1ff;" horiz-adv-x="512" 
d="M274 1q23 4 44 20q57 47 57 194q0 111 -30 162l-163 -345q3 -5 12 -11q19 -16 43 -20v-9q-35 4 -67 15l-34 -72l-17 9l34 71q-59 27 -93.5 80.5t-34.5 119.5q0 89 60.5 152t151.5 71v-8q-26 -6 -43 -21q-57 -45 -57 -194q0 -116 32 -166l165 344q-7 9 -16 16
q-18 15 -44 21v8q35 -3 73 -17l32 67l16 -7l-32 -68q57 -28 90.5 -80.5t33.5 -117.5q0 -88 -61 -151.5t-152 -71.5v9zM169 517l73.5 45.5l91.5 55.5l28 -72l-190 -37z" />
    <glyph glyph-name="Scommaaccent" unicode="&#x218;" horiz-adv-x="473" 
d="M154 -194q0 3 6 64t9 75h91q-6 -12 -47.5 -69t-47.5 -70h-11zM226 2q48 10 80 40.5t32 88.5q0 44 -23 68t-91 62l-47 24q-66 34 -101 73.5t-35 100.5q0 77 57.5 126t132.5 53v-10q-41 -6 -69.5 -33.5t-28.5 -67.5q0 -49 22.5 -73.5t95.5 -64.5l40 -21q39 -22 56.5 -33
t41.5 -33t33.5 -49.5t9.5 -64.5q0 -85 -62.5 -138.5t-143.5 -57.5v10zM182 -8q-98 5 -147 23v80q65 -67 147 -93v-10zM403 549q-68 66 -128 79v10q68 0 128 -16v-73z" />
    <glyph glyph-name="scommaaccent" unicode="&#x219;" horiz-adv-x="362" 
d="M115 -194q0 3 6 64t9 75h91q-6 -12 -47.5 -69t-47.5 -70h-11zM178 1q31 4 54.5 25t23.5 55q0 29 -16 45.5t-52 32.5l-64 29q-93 44 -93 121q0 51 41 88t103 41v-8q-28 -4 -46.5 -20t-18.5 -43q0 -48 55 -72l79 -36q91 -42 91 -122q0 -63 -43.5 -102t-113.5 -43v9zM147 -8
q-77 6 -114 17v77q67 -68 114 -85v-9zM306 355q-46 53 -105 75v8q59 -1 105 -15v-68z" />
    <glyph glyph-name="uni021A" unicode="&#x21a;" horiz-adv-x="572" 
d="M227 -194q0 3 6 64t9 75h91q-6 -12 -47.5 -69t-47.5 -70h-11zM9 630h178v-11q-58 -19 -178 -80v91zM225 630h122v-630h-122v630zM563 539q-120 61 -177 80v11h177v-91z" />
    <glyph glyph-name="uni021B" unicode="&#x21b;" horiz-adv-x="320" 
d="M122 -194q0 3 6 64t9 75h91q-6 -12 -47.5 -69t-47.5 -70h-11zM187 -8q-118 0 -118 132v271h-64v35h64v110l106 37v-147h131v-35h-131v-259q0 -44 15.5 -67.5t56.5 -23.5q49 0 73 16v-11q-14 -23 -50 -40.5t-83 -17.5z" />
    <glyph glyph-name="uni0237" unicode="&#x237;" horiz-adv-x="210" 
d="M-10 -156q32 10 47.5 33.5t15.5 74.5v474l107 14v-423q0 -90 -46 -130.5t-124 -50.5v8zM-63 -144q-19 0 -32.5 12.5t-13.5 32.5t13.5 33t32.5 13q18 0 32 -13.5t14 -31.5q0 -20 -13.5 -33t-32.5 -13z" />
    <glyph glyph-name="circumflex" unicode="&#x2c6;" 
d="M99 514l115 133h6l114 -133l-5 -7l-110 71h-5l-110 -71z" />
    <glyph glyph-name="caron" unicode="&#x2c7;" 
d="M99 641l6 6l109 -71h6l109 71l5 -6l-114 -134h-7z" />
    <glyph glyph-name="breve" unicode="&#x2d8;" 
d="M217 505q-45 0 -74.5 32t-34.5 85h11q6 -29 31 -45.5t67 -16.5q41 0 66 16.5t31 45.5h11q-5 -52 -34 -84.5t-74 -32.5z" />
    <glyph glyph-name="dotaccent" unicode="&#x2d9;" 
d="M216 500q-24 0 -41.5 16.5t-17.5 41.5q0 26 17 42t42 16t42.5 -16t17.5 -42t-17.5 -42t-42.5 -16z" />
    <glyph glyph-name="ring" unicode="&#x2da;" 
d="M228 506q21 2 35 17.5t14 41.5q0 52 -49 59v14q28 -2 47 -21.5t19 -51.5q0 -31 -20 -51t-46 -22v14zM206 492q-27 2 -46.5 21.5t-19.5 51.5q0 31 19 51t47 22v-14q-49 -7 -49 -59q0 -26 14 -41.5t35 -17.5v-14z" />
    <glyph glyph-name="ogonek" unicode="&#x2db;" 
d="M209 -219q-40 0 -64.5 20.5t-24.5 58.5q0 69 118 120h11q-30 -26 -43.5 -46.5t-13.5 -47.5q0 -56 55 -56q38 0 65 30l7 -5q-13 -21 -23.5 -34.5t-34 -26.5t-52.5 -13z" />
    <glyph glyph-name="tilde" unicode="&#x2dc;" 
d="M80 502q15 45 45.5 69.5t69.5 24.5h99q21 0 33 8.5t25 28.5h8q-29 -100 -110 -100h-103q-39 0 -59 -31h-8z" />
    <glyph glyph-name="hungarumlaut" unicode="&#x2dd;" 
d="M77 500l70 146l54 -35l-119 -116zM193 500l70 146l54 -35l-119 -116z" />
    <glyph glyph-name="Wgrave" unicode="&#x1e80;" horiz-adv-x="835" 
d="M495 674q-15 2 -98 20t-98 19l25 66q17 -12 90.5 -51t82.5 -45zM12 630h130l173 -500l-50 -133h-33zM333 630h130l173 -500l-51 -133h-32zM732 467q12 124 14 163h93q-78 -132 -97 -168z" />
    <glyph glyph-name="wgrave" unicode="&#x1e81;" horiz-adv-x="616" 
d="M4 430h113l127 -324l-45 -107h-26zM242 430h113l124 -324l-45 -107h-26zM535 311q8 53 12 119h78q-16 -21 -83 -125zM205 546l28 72l165 -101l-4 -8z" />
    <glyph glyph-name="Wacute" unicode="&#x1e82;" horiz-adv-x="835" 
d="M324 683q9 6 82.5 45t90.5 51l25 -66q-15 -1 -98 -19t-98 -20zM12 630h130l173 -500l-50 -133h-33zM333 630h130l173 -500l-51 -133h-32zM732 467q12 124 14 163h93q-78 -132 -97 -168z" />
    <glyph glyph-name="wacute" unicode="&#x1e83;" horiz-adv-x="616" 
d="M223 517l73.5 45.5l91.5 55.5l28 -72l-190 -37zM4 430h113l127 -324l-45 -107h-26zM242 430h113l124 -324l-45 -107h-26zM535 311q8 53 12 119h78q-16 -21 -83 -125z" />
    <glyph glyph-name="Wdieresis" unicode="&#x1e84;" horiz-adv-x="835" 
d="M310 685q-20 0 -34 14.5t-14 34.5t14 33.5t34 13.5t34 -13.5t14 -33.5t-14 -34.5t-34 -14.5zM498 685q-19 0 -33 14.5t-14 34.5t14 33.5t33 13.5q20 0 34.5 -13.5t14.5 -33.5t-14.5 -34.5t-34.5 -14.5zM12 630h130l173 -500l-50 -133h-33zM333 630h130l173 -500l-51 -133
h-32zM732 467q12 124 14 163h93q-78 -132 -97 -168z" />
    <glyph glyph-name="wdieresis" unicode="&#x1e85;" horiz-adv-x="616" 
d="M229 518q-20 0 -33 13.5t-13 32.5t13 32t33 13q18 0 31.5 -13t13.5 -32t-13.5 -32.5t-31.5 -13.5zM388 518q-18 0 -31.5 13.5t-13.5 32.5t13.5 32t31.5 13q20 0 33 -13t13 -32t-13 -32.5t-33 -13.5zM4 430h113l127 -324l-45 -107h-26zM242 430h113l124 -324l-45 -107h-26
zM535 311q8 53 12 119h78q-16 -21 -83 -125z" />
    <glyph glyph-name="Ygrave" unicode="&#x1ef2;" horiz-adv-x="539" 
d="M197 292l-200 338h135l187 -316v-314h-122v292zM408 483q20 51 51 147h94q-24 -24 -138 -153zM389 674q-15 2 -98 20t-98 19l25 66q17 -12 90.5 -51t82.5 -45z" />
    <glyph glyph-name="ygrave" unicode="&#x1ef3;" horiz-adv-x="399" 
d="M1 430h112l143 -317l-44 -109h-19zM83 -178q-19 0 -32.5 12.5t-13.5 32.5t13.5 32.5t32.5 12.5t32.5 -12.5t13.5 -32.5t-13.5 -32.5t-32.5 -12.5zM320 311q7 48 12 119h78q-53 -77 -83 -125zM119 546l28 72l165 -101l-4 -8z" />
    <glyph glyph-name="uni2009" unicode="&#x2009;" horiz-adv-x="80" 
 />
    <glyph glyph-name="endash" unicode="&#x2013;" horiz-adv-x="461" 
d="M31 279h400v-27h-400v27z" />
    <glyph glyph-name="emdash" unicode="&#x2014;" horiz-adv-x="721" 
d="M31 279h660v-27h-660v27z" />
    <glyph glyph-name="quoteleft" unicode="&#x2018;" horiz-adv-x="165" 
d="M21 443q7 19 52 94.5t52 92.5h16q-6 -21 -18 -97.5t-15 -89.5h-87z" />
    <glyph glyph-name="quoteright" unicode="&#x2019;" horiz-adv-x="165" 
d="M24 443q6 21 18 97.5t15 89.5h87q-7 -17 -51.5 -93.5t-52.5 -93.5h-16z" />
    <glyph glyph-name="quotesinglbase" unicode="&#x201a;" horiz-adv-x="160" 
d="M21 -104q5 20 17 96t15 91h88q-6 -12 -51 -89.5t-54 -97.5h-15z" />
    <glyph glyph-name="quotedblleft" unicode="&#x201c;" horiz-adv-x="290" 
d="M21 443q7 19 52 94.5t52 92.5h16q-6 -21 -18 -97.5t-15 -89.5h-87zM146 443q7 15 51 91t53 96h16q-5 -20 -17 -96t-15 -91h-88z" />
    <glyph glyph-name="quotedblright" unicode="&#x201d;" horiz-adv-x="290" 
d="M24 443q6 21 18 97.5t15 89.5h87q-7 -17 -51.5 -93.5t-52.5 -93.5h-16zM149 443q6 21 18 97.5t15 89.5h88q-6 -12 -51 -89.5t-54 -97.5h-16z" />
    <glyph glyph-name="quotedblbase" unicode="&#x201e;" horiz-adv-x="286" 
d="M21 -104q6 22 17.5 97.5t14.5 89.5h88q-6 -12 -51 -89.5t-54 -97.5h-15zM146 -104q5 20 17.5 96t15.5 91h87q-7 -17 -51.5 -93.5t-52.5 -93.5h-16z" />
    <glyph glyph-name="dagger" unicode="&#x2020;" horiz-adv-x="439" 
d="M44 458h128v-18h-128v18zM210 630h23v-728h-23v728zM271 458h128v-18h-128v18z" />
    <glyph glyph-name="daggerdbl" unicode="&#x2021;" horiz-adv-x="439" 
d="M44 92h128v-18h-128v18zM44 458h128v-18h-128v18zM210 630h23v-728h-23v728zM271 92h128v-18h-128v18zM271 458h128v-18h-128v18z" />
    <glyph glyph-name="bullet" unicode="&#x2022;" horiz-adv-x="263" 
d="M132 193q-33 0 -55.5 22.5t-22.5 55.5t22.5 56t55.5 23t55 -23t22 -56t-22 -55.5t-55 -22.5z" />
    <glyph glyph-name="ellipsis" unicode="&#x2026;" horiz-adv-x="727" 
d="M123 -8q-25 0 -42 16t-17 42t17 42t42 16q24 0 41 -16t17 -42t-17 -42t-41 -16zM364 -8q-25 0 -42 16t-17 42t17 42t42 16t41.5 -16t16.5 -42t-16.5 -42t-41.5 -16zM605 -8q-25 0 -42 16t-17 42t17 42t42 16t41.5 -16t16.5 -42t-16.5 -42t-41.5 -16z" />
    <glyph glyph-name="perthousand" unicode="&#x2030;" horiz-adv-x="941" 
d="M153 315q-54 7 -93 43t-39 100q0 63 39.5 99t92.5 43v-10q-61 -12 -61 -132q0 -122 61 -134v-9zM178 324q61 13 61 134q0 119 -61 132v10q53 -7 92.5 -43t39.5 -99q0 -64 -39 -100t-93 -43v9zM442 -8q-53 7 -93 43t-40 100t39.5 99.5t93.5 42.5v-9q-61 -12 -61 -133
t61 -133v-10zM467 2q61 13 61 133t-61 133v9q54 -7 93 -42.5t39 -99.5q0 -63 -39.5 -99.5t-92.5 -43.5v10zM765 -8q-53 7 -92.5 43.5t-39.5 99.5q0 64 39.5 99.5t92.5 42.5v-9q-61 -13 -61 -133t61 -133v-10zM791 2q61 13 61 133t-61 133v9q54 -7 93 -42.5t39 -99.5
q0 -63 -39.5 -99.5t-92.5 -43.5v10zM108 4l386 597l18 -12l-387 -597z" />
    <glyph glyph-name="guilsinglleft" unicode="&#x2039;" horiz-adv-x="190" 
d="M32 220v9l118 125l8 -4l-65 -125l65 -125l-8 -4z" />
    <glyph glyph-name="guilsinglright" unicode="&#x203a;" horiz-adv-x="190" 
d="M32 100l65 125l-65 125l8 4l119 -125v-9l-119 -124z" />
    <glyph glyph-name="fraction" unicode="&#x2044;" horiz-adv-x="152" 
d="M-165 4l464 634l17 -13l-464 -633z" />
    <glyph glyph-name="Euro" unicode="&#x20ac;" horiz-adv-x="511" 
d="M17 348h75q21 89 87.5 147t167.5 71v-8q-68 -15 -107.5 -70.5t-48.5 -139.5h163v-16h-164q-1 -11 -1 -33q0 -36 2 -46h124v-15h-123q22 -172 173 -172q80 0 137 44v-11q-16 -41 -59.5 -74t-121.5 -33q-104 0 -166.5 67t-70.5 179h-67v15h66v13q0 34 6 66h-72v16zM423 448
q-19 0 -32 13t-13 33t13 33t32 13q20 0 33 -13t13 -33t-13 -33t-33 -13z" />
    <glyph glyph-name="trademark" unicode="&#x2122;" horiz-adv-x="556" 
d="M169 630h64v-43q-45 29 -64 37v6zM287 476q5 -41 13 -75h-42q17 49 22 75h7zM79 624q-18 -7 -64 -37v43h64v-6zM412 454l-24 -56h-5l-119 232h56zM98 630h52v-229h-52v229zM451 630h52l9 -229h-52z" />
    <glyph glyph-name="onethird" unicode="&#x2153;" horiz-adv-x="516" 
d="M208 -202q43 6 71 31t28 70q0 43 -17.5 59.5t-59.5 16.5h-13v10h13q38 0 53 20t15 58q0 66 -75 66q-27 0 -44 -11v8q26 24 81 24q50 0 80.5 -20.5t30.5 -60.5q0 -76 -102 -88v-1q114 -5 114 -83q0 -49 -50 -75.5t-125 -30.5v7zM173 -191q-14 0 -23 9t-9 22q0 14 9 23
t23 9q13 0 22 -9t9 -23q0 -13 -9 -22t-22 -9zM173 40q-13 0 -22 8.5t-9 22.5q0 13 9 22t22 9t22 -9t9 -22q0 -14 -9 -22.5t-22 -8.5zM149 603l55 13v-35h-55v22zM21 220h481v-19h-481v19zM226 622l72 14v-357h-72v343z" />
    <glyph glyph-name="twothirds" unicode="&#x2154;" horiz-adv-x="516" 
d="M208 -202q43 6 71 31t28 70q0 43 -17.5 59.5t-59.5 16.5h-13v10h13q38 0 53 20t15 58q0 66 -75 66q-27 0 -44 -11v8q26 24 81 24q50 0 80.5 -20.5t30.5 -60.5q0 -76 -102 -88v-1q114 -5 114 -83q0 -49 -50 -75.5t-125 -30.5v7zM197 354q110 98 110 177q0 39 -19 57
t-61 18q-35 0 -61 -14v7q12 13 41 23.5t61 10.5q115 0 115 -96q0 -94 -176 -183h-10zM175 -193q-14 0 -23 9t-9 23q0 13 9 22t23 9q13 0 22 -9t9 -22q0 -14 -9 -23t-22 -9zM174 41q-13 0 -22 8.5t-9 22.5q0 13 9 22t22 9t22 -9t9 -22q0 -14 -9 -22.5t-22 -8.5zM167 515
q-14 0 -23.5 9.5t-9.5 23.5t9.5 23.5t23.5 9.5t23.5 -9.5t9.5 -23.5t-9.5 -23.5t-23.5 -9.5zM21 220h481v-19h-481v19zM183 337h216l-3 -57h-269z" />
    <glyph glyph-name="oneeighth" unicode="&#x215b;" horiz-adv-x="516" 
d="M260 -208q-49 0 -85.5 21t-36.5 59q0 14 5 25t17.5 19.5t19 12t22.5 11.5l6 -5q-26 -21 -26 -58q0 -35 20.5 -55.5t57.5 -20.5q72 0 72 58q0 27 -20 44t-70 43q-22 11 -35.5 19.5t-28.5 21.5t-22.5 30t-7.5 38q0 40 33 67.5t86 27.5q48 0 76.5 -18t28.5 -48
q0 -43 -60 -66l-6 5q27 25 27 59q0 59 -66 59q-27 0 -44.5 -13t-17.5 -36q0 -24 19 -42t58 -38q29 -15 41.5 -22.5t31 -22t25.5 -31t7 -38.5q0 -49 -36.5 -77.5t-90.5 -28.5zM148 603l55 13v-35h-55v22zM21 220h481v-19h-481v19zM225 622l73 14v-357h-73v343z" />
    <glyph glyph-name="threeeighths" unicode="&#x215c;" horiz-adv-x="516" 
d="M265 -208q-49 0 -85.5 21t-36.5 59q0 14 5 25t17.5 19.5t19 12t22.5 11.5l6 -5q-26 -21 -26 -58q0 -35 20.5 -55.5t57.5 -20.5q72 0 72 58q0 27 -20.5 44t-70.5 43q-29 15 -46 27t-32 33.5t-15 48.5q0 40 33 67.5t86 27.5q48 0 76.5 -18t28.5 -48q0 -42 -61 -66l-5 5
q27 27 27 59q0 59 -66 59q-28 0 -45 -13t-17 -36q0 -24 19 -42t58 -38q28 -15 40.5 -22.5t30.5 -22t25.5 -31t7.5 -38.5q0 -49 -36 -77.5t-90 -28.5zM208 282q43 6 71 31t28 70q0 42 -17.5 58.5t-59.5 16.5h-13v11h13q39 0 53.5 19.5t14.5 58.5q0 66 -75 66q-27 0 -44 -11v7
q30 25 81 25q50 0 80.5 -20.5t30.5 -60.5q0 -76 -102 -88v-2q114 -5 114 -82q0 -48 -50.5 -76t-124.5 -30v7zM175 291q-14 0 -23 9t-9 22q0 14 9 23t23 9q13 0 22 -9t9 -23q0 -13 -9 -22t-22 -9zM174 524q-13 0 -22 9t-9 22q0 14 9 23t22 9q14 0 22.5 -9t8.5 -23
q0 -13 -8.5 -22t-22.5 -9zM21 220h481v-19h-481v19z" />
    <glyph glyph-name="fiveeighths" unicode="&#x215d;" horiz-adv-x="516" 
d="M265 -208q-49 0 -85.5 21t-36.5 59q0 14 5 25t17.5 19.5t19 12t22.5 11.5l6 -5q-26 -21 -26 -58q0 -35 20.5 -55.5t57.5 -20.5q72 0 72 58q0 27 -20.5 44t-70.5 43q-29 15 -46 27t-32 33.5t-15 48.5q0 40 33 67.5t86 27.5q48 0 76.5 -18t28.5 -48q0 -42 -61 -66l-5 5
q27 27 27 59q0 59 -66 59q-28 0 -45 -13t-17 -36q0 -24 19 -42t58 -38q28 -15 40.5 -22.5t30.5 -22t25.5 -31t7.5 -38.5q0 -49 -36 -77.5t-90 -28.5zM205 281q107 8 107 94q0 69 -95 69q-24 0 -45 -4v55q30 6 64 6q141 0 141 -102q0 -116 -172 -124v6zM179 290
q-14 0 -23 9.5t-9 22.5q0 14 9 23t23 9q13 0 22.5 -9t9.5 -23q0 -13 -9.5 -22.5t-22.5 -9.5zM21 220h481v-19h-481v19zM172 630h196l1 -54h-197v54z" />
    <glyph glyph-name="seveneighths" unicode="&#x215e;" horiz-adv-x="516" 
d="M265 -208q-49 0 -85.5 21t-36.5 59q0 14 5 25t17.5 19.5t19 12t22.5 11.5l6 -5q-26 -21 -26 -58q0 -35 20.5 -55.5t57.5 -20.5q72 0 72 58q0 27 -20.5 44t-70.5 43q-29 15 -46 27t-32 33.5t-15 48.5q0 40 33 67.5t86 27.5q48 0 76.5 -18t28.5 -48q0 -42 -61 -66l-5 5
q27 27 27 59q0 59 -66 59q-28 0 -45 -13t-17 -36q0 -24 19 -42t58 -38q28 -15 40.5 -22.5t30.5 -22t25.5 -31t7.5 -38.5q0 -49 -36 -77.5t-90 -28.5zM21 220h481v-19h-481v19zM385 549h9l-115 -268h-70zM181 630h242l-21 -59h-221v59z" />
    <glyph glyph-name="minus" unicode="&#x2212;" horiz-adv-x="429" 
d="M52 232h324v-28h-324v28z" />
    <glyph glyph-name="uni24C5" unicode="&#x24c5;" horiz-adv-x="699" 
d="M331 -6q-132 10 -218 97.5t-86 223.5t86 223.5t218 97.5v-13q-127 -10 -207.5 -94.5t-80.5 -213.5q0 -130 80.5 -214t207.5 -94v-13zM350 284q58 6 80 31t22 84q0 58 -22 84t-80 32v9q185 -8 185 -125q0 -61 -48.5 -89t-136.5 -35v9zM369 7q126 10 206.5 94t80.5 214
q0 129 -80 213.5t-207 94.5v13q132 -10 218 -97.5t86 -223.5t-86 -223.5t-218 -97.5v13zM232 524h82v-418h-82v418z" />
    <glyph glyph-name="c_t" unicode="&#xe220;" horiz-adv-x="720" 
d="M228 -8q-92 0 -147 61.5t-55 157.5q0 93 62 149t155 73v-9q-109 -41 -109 -179q0 -77 39.5 -126t106.5 -49q65 0 116 43v-10q-16 -41 -58.5 -76t-109.5 -35zM586 -8q-118 0 -118 132v271h-54v35h54v117q0 61 -21.5 92.5t-70.5 37.5v11q97 -5 148 -46.5t51 -116.5v-95h130
v-35h-130v-258q0 -44 15.5 -68t55.5 -24q48 0 74 16v-10q-15 -23 -50.5 -41t-83.5 -18zM327 322q-21 0 -35.5 15t-14.5 36q0 38 32 49q-50 16 -77.5 51t-27.5 82q0 57 40.5 93t95.5 40v-11q-50 -4 -86.5 -36.5t-36.5 -85.5q0 -49 30 -82.5t82 -46.5q50 -11 50 -53
q0 -22 -14.5 -36.5t-37.5 -14.5z" />
    <glyph glyph-name="Y.alt" unicode="&#xe498;" horiz-adv-x="578" 
d="M439 483q28 56 67 147h94l-153 -153zM222 236q0 104 -33.5 177t-91.5 135q-59 59 -108 76v6h61q89 0 150 -57q145 -145 145 -325v-248h-123v236z" />
    <glyph glyph-name="g.alt" unicode="&#xe4c6;" horiz-adv-x="503" 
d="M202 9q-81 0 -128 51.5t-47 140.5q0 105 66.5 169t158.5 68v-8q-116 -18 -116 -201q0 -86 32.5 -124.5t85.5 -38.5q45 0 71 26v-9q-9 -26 -41.5 -50t-81.5 -24zM177 -169q80 9 124.5 46t44.5 115v417q-26 17 -57 21v8q107 -2 164 -16v-413q0 -95 -69 -139t-207 -48v9z
M113 -156q-21 0 -34.5 11.5t-13.5 31.5q0 19 14 31t34 12q21 0 34 -11.5t13 -31.5t-13 -31.5t-34 -11.5z" />
    <glyph glyph-name="k.alt" unicode="&#xe4ca;" horiz-adv-x="463" 
d="M389 0q-29 0 -43 8t-30 32q-27 32 -75 95.5t-49 64.5l74 72q55 -85 140 -193q34 -44 62 -74v-5h-79zM50 675l107 13v-688h-107v675zM314 339q12 58 13 91h115q-55 -39 -122 -98z" />
    <glyph glyph-name="at.sc" unicode="&#xf60b;" horiz-adv-x="595" 
d="M203 109q-31 0 -49 22t-18 63q0 78 68 141.5t148 73.5l-1 -10q-57 -12 -97.5 -69t-40.5 -127q0 -30 9 -41t26 -11q16 0 33 11t27 25l7 -6q-14 -26 -46 -49t-66 -23zM283 -9q-114 0 -183.5 61.5t-69.5 175.5q0 124 88 204t222 80q114 0 174.5 -55.5t60.5 -143.5
q0 -87 -56.5 -143t-149.5 -56h-53l56 288l75 17l4 -2l-55 -283q71 4 114 55t43 124q0 79 -53 130t-160 51q-126 0 -208 -75.5t-80 -190.5q0 -105 63 -162t168 -57q142 0 226 67l9 -14q-79 -71 -235 -71z" />
    <glyph glyph-name="braceleft.sc" unicode="&#xf60c;" horiz-adv-x="267" 
d="M24 260q43 1 59 14.5t16 51.5v72q0 57 39.5 83t102.5 26v-11q-67 -2 -67 -68v-83q0 -45 -25.5 -64.5t-77.5 -25.5v-3q52 -6 77.5 -25.5t25.5 -64.5v-83q0 -66 67 -68v-11q-63 0 -102.5 26t-39.5 82v73q0 38 -15.5 51t-59.5 15v13z" />
    <glyph glyph-name="braceright.sc" unicode="&#xf60d;" horiz-adv-x="267" 
d="M243 247q-44 -2 -60 -15t-16 -51v-73q0 -56 -39 -82t-102 -26v11q67 2 67 68v83q0 45 25.5 64.5t76.5 25.5v3q-51 6 -76.5 25.5t-25.5 64.5v83q0 66 -67 68v11q141 0 141 -109v-72q0 -38 16.5 -51.5t59.5 -14.5v-13z" />
    <glyph glyph-name="bracketleft.sc" unicode="&#xf60e;" horiz-adv-x="258" 
d="M68 507h173v-20h-103v-467h103v-20h-173v507z" />
    <glyph glyph-name="bracketright.sc" unicode="&#xf60f;" horiz-adv-x="258" 
d="M17 0v20h103v467h-103v20h172v-507h-172z" />
    <glyph glyph-name="plus.sc" unicode="&#xf615;" horiz-adv-x="429" 
d="M200 247h-148v28h148v148h28v-148h148v-28h-148v-148h-28v148z" />
    <glyph glyph-name="minus.sc" unicode="&#xf616;" horiz-adv-x="429" 
d="M52 275h324v-27h-324v27z" />
    <glyph glyph-name="equal.sc" unicode="&#xf617;" horiz-adv-x="429" 
d="M52 207h324v-28h-324v28zM52 358h324v-27h-324v27z" />
    <glyph glyph-name="parenleft.sc" unicode="&#xf618;" horiz-adv-x="233" 
d="M124 254q0 -145 72 -254h-18q-125 105 -125 254q0 79 36.5 144.5t89.5 108.5h18q-73 -112 -73 -253z" />
    <glyph glyph-name="parenright.sc" unicode="&#xf619;" horiz-adv-x="233" 
d="M110 254q0 141 -73 253h18q53 -43 89.5 -108.5t36.5 -144.5q0 -149 -125 -254h-18q72 109 72 254z" />
    <glyph glyph-name="quotedblleft.sc" unicode="&#xf61c;" horiz-adv-x="290" 
d="M22 348q9 19 54 84.5t53 85.5h16q-6 -21 -17.5 -89.5t-14.5 -80.5h-91zM144 348q9 19 54 85t53 85h16q-6 -22 -17.5 -90t-14.5 -80h-91z" />
    <glyph glyph-name="quotedblright.sc" unicode="&#xf61d;" horiz-adv-x="290" 
d="M23 348q6 21 17.5 89.5t14.5 80.5h91q-9 -20 -53.5 -86t-53.5 -84h-16zM145 348q6 21 17.5 89.5t14.5 80.5h91q-10 -20 -54.5 -86t-52.5 -84h-16z" />
    <glyph glyph-name="quoteleft.sc" unicode="&#xf61f;" horiz-adv-x="168" 
d="M20 348q10 22 55 89.5t52 80.5h15q-6 -21 -17.5 -89.5t-14.5 -80.5h-90z" />
    <glyph glyph-name="quoteright.sc" unicode="&#xf620;" horiz-adv-x="168" 
d="M22 348q6 22 17.5 90t14.5 80h91q-8 -20 -53.5 -86.5t-53.5 -83.5h-16z" />
    <glyph glyph-name="AEacute.sc" unicode="&#xf624;" horiz-adv-x="684" 
d="M359 575l73.5 45.5l91.5 55.5l28 -72l-190 -37zM156 266h148v241h111v-507h-111v240h-162zM461 9q68 16 197 59v-68h-197v9zM653 441q-23 7 -60.5 19.5t-67 21t-65.5 15.5v10h193v-66zM-6 0l34 46l32 44l25 35l11 -3q-13 -73 -18 -122h-84zM585 224q-16 3 -38.5 8.5
t-41.5 9.5t-44 8v11q74 14 124 26v-63z" />
    <glyph glyph-name="Oslashacute.sc" unicode="&#xf627;" horiz-adv-x="596" 
d="M212 575l73.5 45.5l91.5 55.5l28 -72l-190 -37zM104 -52l49 84q-57 35 -89.5 94t-32.5 128q0 103 72 178.5t177 79.5v-10q-48 -6 -78.5 -44t-42.5 -89t-12 -115q0 -110 33 -175l219 378q-32 38 -81 45v10q54 -3 99 -24l41 70l19 -11l-40 -69q60 -33 95 -92.5t35 -131.5
q0 -106 -71.5 -180.5t-177.5 -80.5v10q133 21 133 251q0 119 -38 183l-220 -380q34 -47 87 -54v-10q-59 3 -107 28l-49 -84z" />
    <glyph glyph-name="Ccircumflex.sc" unicode="&#xf628;" horiz-adv-x="505" 
d="M195 565l115 133h6l114 -133l-5 -7l-110 71h-5l-110 -71zM302 -6q-124 6 -198 75t-74 185q0 108 81.5 180.5t193.5 78.5v-10q-157 -26 -157 -249q0 -226 154 -250v-10zM338 4q56 15 139 86v-78q-46 -14 -139 -18v10zM472 421q-60 60 -131 82v10q86 -2 131 -17v-75z" />
    <glyph glyph-name="Cdotaccent.sc" unicode="&#xf629;" horiz-adv-x="505" 
d="M302 -6q-124 6 -198 75t-74 185q0 108 81.5 180.5t193.5 78.5v-10q-157 -26 -157 -249q0 -226 154 -250v-10zM338 4q56 15 139 86v-78q-46 -14 -139 -18v10zM472 421q-60 60 -131 82v10q86 -2 131 -17v-75zM312 555q-24 0 -41.5 16.5t-17.5 41.5q0 26 17 42t42 16
t42.5 -16t17.5 -42t-17.5 -42t-42.5 -16z" />
    <glyph glyph-name="Ebreve.sc" unicode="&#xf62a;" horiz-adv-x="444" 
d="M56 507h111v-507h-111v507zM212 9q100 24 207 60v-69h-207v9zM340 224q-92 21 -128 26v11q87 16 128 26v-63zM413 441l-61.5 19t-72.5 21.5t-67 15.5v10h201v-66zM247 558q-45 0 -74.5 32t-34.5 85h11q6 -29 31 -45.5t67 -16.5q41 0 66 16.5t31 45.5h11q-5 -52 -34 -84.5
t-74 -32.5z" />
    <glyph glyph-name="Eng.sc" unicode="&#xf62b;" horiz-adv-x="537" 
d="M41 0q2 7 36 151h11q26 -118 36 -151h-83zM229 -141q-20 0 -33.5 13.5t-13.5 33.5t13.5 34t33.5 14t34 -14t14 -34t-14 -33.5t-34 -13.5zM458 359q-23 101 -36 148h83q-4 -12 -37 -148h-10zM285 -154q74 17 74 101v108l-253 335q-39 50 -96 117h138l321 -421v-100
q0 -133 -184 -150v10z" />
    <glyph glyph-name="Gcircumflex.sc" unicode="&#xf62c;" horiz-adv-x="546" 
d="M201 565l115 133h6l114 -133l-5 -7l-110 71h-5l-110 -71zM286 -6q-122 6 -189 78t-67 182q0 114 73.5 181.5t199.5 77.5v-10q-156 -25 -156 -249q0 -230 139 -250v-10zM324 4q48 6 78 19v201h104v-199q-69 -27 -182 -31v10zM486 420q-85 65 -145 83v10q89 -2 145 -16v-77
z" />
    <glyph glyph-name="Gdotaccent.sc" unicode="&#xf62d;" horiz-adv-x="546" 
d="M286 -6q-122 6 -189 78t-67 182q0 114 73.5 181.5t199.5 77.5v-10q-156 -25 -156 -249q0 -230 139 -250v-10zM324 4q48 6 78 19v201h104v-199q-69 -27 -182 -31v10zM486 420q-85 65 -145 83v10q89 -2 145 -16v-77zM318 555q-24 0 -41.5 16.5t-17.5 41.5q0 26 17 42t42 16
t42.5 -16t17.5 -42t-17.5 -42t-42.5 -16z" />
    <glyph glyph-name="Hbar.sc" unicode="&#xf62e;" horiz-adv-x="619" 
d="M-18 376h74v-25h-74v25zM563 376h73v-25h-73v25zM226 376h166v-25h-166v25zM85 507h112v-507h-112v507zM226 276h166v-25h-166v25zM422 507h111v-507h-111v507z" />
    <glyph glyph-name="Hcircumflex.sc" unicode="&#xf62f;" horiz-adv-x="563" 
d="M164 565l115 133h6l114 -133l-5 -7l-110 71h-5l-110 -71zM56 507h111v-507h-111v507zM196 276h171v-25h-171v25zM396 507h112v-507h-112v507z" />
    <glyph glyph-name="Ibreve.sc" unicode="&#xf630;" horiz-adv-x="223" 
d="M56 507h111v-507h-111v507zM113 558q-45 0 -74.5 32t-34.5 85h11q6 -29 31 -45.5t67 -16.5q41 0 66 16.5t31 45.5h11q-5 -52 -34 -84.5t-74 -32.5z" />
    <glyph glyph-name="IJ.sc" unicode="&#xf631;" horiz-adv-x="535" 
d="M310 4q36 7 50 30t14 70v403h109v-364q0 -74 -49.5 -110.5t-123.5 -39.5v11zM56 507h110v-507h-110v507zM260 13q-20 0 -35 15t-15 35q0 21 15 36t35 15q21 0 36 -15t15 -36q0 -20 -15 -35t-36 -15z" />
    <glyph glyph-name="Itilde.sc" unicode="&#xf632;" horiz-adv-x="223" 
d="M56 507h111v-507h-111v507zM-22 553q15 45 45.5 69.5t69.5 24.5h99q21 0 33 8.5t25 28.5h8q-29 -100 -110 -100h-103q-39 0 -59 -31h-8z" />
    <glyph glyph-name="Jcircumflex.sc" unicode="&#xf633;" horiz-adv-x="347" 
d="M121 565l115 133h6l114 -133l-5 -7l-110 71h-5l-110 -71zM114 4q70 13 70 100v403h111v-364q0 -74 -53.5 -110.5t-127.5 -39.5v11zM57 13q-20 0 -35 15t-15 35q0 21 15 36t35 15q21 0 36 -15t15 -36q0 -20 -15 -35t-36 -15z" />
    <glyph glyph-name="Ldot.sc" unicode="&#xf634;" horiz-adv-x="432" 
d="M56 507h111v-507h-111v507zM214 10l66.5 23t67 26t63.5 25v-84h-197v10zM325 232q-23 0 -39 15t-16 39t16 39t39 15q24 0 40 -15t16 -39t-16.5 -39t-39.5 -15z" />
    <glyph glyph-name="Obreve.sc" unicode="&#xf635;" horiz-adv-x="596" 
d="M279 -7q-105 6 -177 81.5t-72 179.5q0 103 72 178.5t177 79.5v-10q-70 -9 -101.5 -78t-31.5 -170q0 -65 11.5 -116t42.5 -89t79 -46v-10zM317 3q132 20 132 251q0 232 -132 248v10q105 -4 177 -78.5t72 -179.5q0 -106 -71.5 -180.5t-177.5 -80.5v10zM298 558
q-45 0 -74.5 32t-34.5 85h11q6 -29 31 -45.5t67 -16.5q41 0 66 16.5t31 45.5h11q-5 -52 -34 -84.5t-74 -32.5z" />
    <glyph glyph-name="Scircumflex.sc" unicode="&#xf636;" horiz-adv-x="403" 
d="M98 565l115 133h6l114 -133l-5 -7l-110 71h-5l-110 -71zM199 3q86 15 86 99q0 32 -21.5 52t-77.5 48l-39 20q-55 27 -83 60t-28 86q0 63 48 102t112 43v-10q-33 -4 -54.5 -25.5t-21.5 -53.5q0 -36 18.5 -57t71.5 -47l34 -17q47 -24 70 -39.5t40.5 -44.5t17.5 -70
q0 -68 -52.5 -111t-120.5 -45v10zM160 -7q-78 2 -127 19v76q70 -68 127 -85v-10zM346 434q-70 58 -111 69v10q61 0 111 -13v-66z" />
    <glyph glyph-name="Tbar.sc" unicode="&#xf637;" horiz-adv-x="485" 
d="M13 507h139v-11q-31 -14 -139 -78v89zM69 303h87v-25h-87v25zM185 507h112v-507h-112v507zM470 418q-91 57 -139 78v11h139v-89zM326 303h87v-25h-87v25z" />
    <glyph glyph-name="Ubreve.sc" unicode="&#xf638;" horiz-adv-x="524" 
d="M260 -6q-95 0 -151.5 48t-56.5 143v322h112v-316q0 -70 38.5 -104t106.5 -34q79 0 119 46l8 -6q-19 -41 -64 -70t-112 -29zM451 353q-13 61 -39 154h88q-20 -68 -38 -154h-11zM287 558q-45 0 -74.5 32t-34.5 85h11q6 -29 31 -45.5t67 -16.5q41 0 66 16.5t31 45.5h11
q-5 -52 -34 -84.5t-74 -32.5z" />
    <glyph glyph-name="Utilde.sc" unicode="&#xf639;" horiz-adv-x="524" 
d="M260 -6q-95 0 -151.5 48t-56.5 143v322h112v-316q0 -70 38.5 -104t106.5 -34q79 0 119 46l8 -6q-19 -41 -64 -70t-112 -29zM451 353q-13 61 -39 154h88q-20 -68 -38 -154h-11zM152 553q15 45 45.5 69.5t69.5 24.5h99q21 0 33 8.5t25 28.5h8q-29 -100 -110 -100h-103
q-39 0 -59 -31h-8z" />
    <glyph glyph-name="Wacute.sc" unicode="&#xf63a;" horiz-adv-x="722" 
d="M15 507h121l144 -401l-45 -108h-37zM282 507h121l144 -401l-44 -108h-37zM622 369l14 138h88q-70 -108 -91 -146zM271 575l73.5 45.5l91.5 55.5l28 -72l-190 -37z" />
    <glyph glyph-name="Wcircumflex.sc" unicode="&#xf63b;" horiz-adv-x="722" 
d="M240 565l115 133h6l114 -133l-5 -7l-110 71h-5l-110 -71zM15 507h121l144 -401l-45 -108h-37zM282 507h121l144 -401l-44 -108h-37zM622 369l14 138h88q-70 -108 -91 -146z" />
    <glyph glyph-name="Wdieresis.sc" unicode="&#xf63c;" horiz-adv-x="722" 
d="M278 574q-20 0 -33 13.5t-13 32.5t13 32t33 13q18 0 31.5 -13t13.5 -32t-13.5 -32.5t-31.5 -13.5zM437 574q-18 0 -31.5 13.5t-13.5 32.5t13.5 32t31.5 13q20 0 33 -13t13 -32t-13 -32.5t-33 -13.5zM15 507h121l144 -401l-45 -108h-37zM282 507h121l144 -401l-44 -108
h-37zM622 369l14 138h88q-70 -108 -91 -146z" />
    <glyph glyph-name="Wgrave.sc" unicode="&#xf63d;" horiz-adv-x="722" 
d="M15 507h121l144 -401l-45 -108h-37zM282 507h121l144 -401l-44 -108h-37zM622 369l14 138h88q-70 -108 -91 -146zM254 604l28 72l165 -101l-4 -8z" />
    <glyph glyph-name="Ycircumflex.sc" unicode="&#xf63e;" horiz-adv-x="478" 
d="M143 565l115 133h6l114 -133l-5 -7l-110 71h-5l-110 -71zM174 228l-171 279h123l159 -261v-246h-111v228zM349 380q32 82 47 127h86l-62.5 -65.5l-61.5 -65.5z" />
    <glyph glyph-name="Ygrave.sc" unicode="&#xf63f;" horiz-adv-x="478" 
d="M174 228l-171 279h123l159 -261v-246h-111v228zM349 380q32 82 47 127h86l-62.5 -65.5l-61.5 -65.5zM156 604l28 72l165 -101l-4 -8z" />
    <glyph glyph-name="Abreve.sc" unicode="&#xf640;" horiz-adv-x="473" 
d="M107 213h153l-78 194l42 105h37l203 -512h-118l-76 188h-173zM1 0q24 36 76 125l12 -3q-6 -66 -6 -122h-82zM244 558q-45 0 -74.5 32t-34.5 85h11q6 -29 31 -45.5t67 -16.5q41 0 66 16.5t31 45.5h11q-5 -52 -34 -84.5t-74 -32.5z" />
    <glyph glyph-name="Amacron.sc" unicode="&#xf641;" horiz-adv-x="473" 
d="M107 213h153l-78 194l42 105h37l203 -512h-118l-76 188h-173zM1 0q24 36 76 125l12 -3q-6 -66 -6 -122h-82zM136 627h214v-35h-214v35z" />
    <glyph glyph-name="Aogonek.sc" unicode="&#xf642;" horiz-adv-x="473" 
d="M107 213h153l-78 194l42 105h37l203 -512h-118l-76 188h-173zM1 0q24 36 76 125l12 -3q-6 -66 -6 -122h-82zM327 -219q-40 0 -64.5 20.5t-24.5 58.5q0 69 118 120h11q-30 -26 -43.5 -46.5t-13.5 -47.5q0 -56 55 -56q38 0 65 30l7 -5q-13 -21 -23.5 -34.5t-34 -26.5
t-52.5 -13z" />
    <glyph glyph-name="Cacute.sc" unicode="&#xf643;" horiz-adv-x="505" 
d="M226 575l73.5 45.5l91.5 55.5l28 -72l-190 -37zM302 -6q-124 6 -198 75t-74 185q0 108 81.5 180.5t193.5 78.5v-10q-157 -26 -157 -249q0 -226 154 -250v-10zM338 4q56 15 139 86v-78q-46 -14 -139 -18v10zM472 421q-60 60 -131 82v10q86 -2 131 -17v-75z" />
    <glyph glyph-name="Ccaron.sc" unicode="&#xf644;" horiz-adv-x="505" 
d="M195 692l6 6l109 -71h6l109 71l5 -6l-114 -134h-7zM302 -6q-124 6 -198 75t-74 185q0 108 81.5 180.5t193.5 78.5v-10q-157 -26 -157 -249q0 -226 154 -250v-10zM338 4q56 15 139 86v-78q-46 -14 -139 -18v10zM472 421q-60 60 -131 82v10q86 -2 131 -17v-75z" />
    <glyph glyph-name="Dcaron.sc" unicode="&#xf645;" horiz-adv-x="554" 
d="M214 10q93 6 142.5 63t49.5 181q0 126 -49.5 182t-143.5 60v11q50 -1 94.5 -9.5t85 -27.5t69.5 -47.5t46 -71.5t17 -97q0 -86 -45 -144.5t-112.5 -83t-153.5 -26.5v10zM56 507h111v-507h-111v507zM132 692l6 6l109 -71h6l109 71l5 -6l-114 -134h-7z" />
    <glyph glyph-name="Dcroat.sc" unicode="&#xf646;" horiz-adv-x="575" 
d="M235 10q94 6 145 63t51 181q0 125 -51 181.5t-145 60.5v11q63 -1 116.5 -15t98.5 -42.5t71 -78.5t26 -117q0 -65 -25.5 -114.5t-70 -79t-99 -44.5t-117.5 -16v10zM187 0h-110v246h-64v25h64v236h110v-236h119v-25h-119v-246z" />
    <glyph glyph-name="Ecaron.sc" unicode="&#xf647;" horiz-adv-x="444" 
d="M129 692l6 6l109 -71h6l109 71l5 -6l-114 -134h-7zM56 507h111v-507h-111v507zM212 9q100 24 207 60v-69h-207v9zM340 224q-92 21 -128 26v11q87 16 128 26v-63zM413 441l-61.5 19t-72.5 21.5t-67 15.5v10h201v-66z" />
    <glyph glyph-name="Edotaccent.sc" unicode="&#xf648;" horiz-adv-x="444" 
d="M246 555q-24 0 -41.5 16.5t-17.5 41.5q0 26 17 42t42 16t42.5 -16t17.5 -42t-17.5 -42t-42.5 -16zM56 507h111v-507h-111v507zM212 9q100 24 207 60v-69h-207v9zM340 224q-92 21 -128 26v11q87 16 128 26v-63zM413 441l-61.5 19t-72.5 21.5t-67 15.5v10h201v-66z" />
    <glyph glyph-name="Emacron.sc" unicode="&#xf649;" horiz-adv-x="444" 
d="M135 627h214v-35h-214v35zM56 507h111v-507h-111v507zM212 9q100 24 207 60v-69h-207v9zM340 224q-92 21 -128 26v11q87 16 128 26v-63zM413 441l-61.5 19t-72.5 21.5t-67 15.5v10h201v-66z" />
    <glyph glyph-name="Eogonek.sc" unicode="&#xf64a;" horiz-adv-x="444" 
d="M289 -219q-40 0 -64.5 20.5t-24.5 58.5q0 69 118 120h11q-30 -26 -43.5 -46.5t-13.5 -47.5q0 -56 55 -56q38 0 65 30l7 -5q-13 -21 -23.5 -34.5t-34 -26.5t-52.5 -13zM56 507h111v-507h-111v507zM212 9q100 24 207 60v-69h-207v9zM340 224q-92 21 -128 26v11
q87 16 128 26v-63zM413 441l-61.5 19t-72.5 21.5t-67 15.5v10h201v-66z" />
    <glyph glyph-name="Gbreve.sc" unicode="&#xf64b;" horiz-adv-x="546" 
d="M286 -6q-122 6 -189 78t-67 182q0 114 73.5 181.5t199.5 77.5v-10q-156 -25 -156 -249q0 -230 139 -250v-10zM324 4q48 6 78 19v201h104v-199q-69 -27 -182 -31v10zM486 420q-85 65 -145 83v10q89 -2 145 -16v-77zM319 558q-45 0 -74.5 32t-34.5 85h11q6 -29 31 -45.5
t67 -16.5q41 0 66 16.5t31 45.5h11q-5 -52 -34 -84.5t-74 -32.5z" />
    <glyph glyph-name="Gcommaaccent.sc" unicode="&#xf64c;" horiz-adv-x="546" 
d="M247 -194q0 3 6 64t9 75h91q-6 -12 -47.5 -69t-47.5 -70h-11zM286 -6q-122 6 -189 78t-67 182q0 114 73.5 181.5t199.5 77.5v-10q-156 -25 -156 -249q0 -230 139 -250v-10zM324 4q48 6 78 19v201h104v-199q-69 -27 -182 -31v10zM486 420q-85 65 -145 83v10q89 -2 145 -16
v-77z" />
    <glyph glyph-name="Imacron.sc" unicode="&#xf64d;" horiz-adv-x="223" 
d="M17 633h188v-36h-188v36zM56 507h111v-507h-111v507z" />
    <glyph glyph-name="Iogonek.sc" unicode="&#xf64e;" horiz-adv-x="223" 
d="M56 507h111v-507h-111v507zM99 -219q-40 0 -64.5 20.5t-24.5 58.5q0 69 118 120h11q-30 -26 -43.5 -46.5t-13.5 -47.5q0 -56 55 -56q38 0 65 30l7 -5q-13 -21 -23.5 -34.5t-34 -26.5t-52.5 -13z" />
    <glyph glyph-name="Kcommaaccent.sc" unicode="&#xf64f;" horiz-adv-x="527" 
d="M216 -194q0 3 6 64t9 75h91q-6 -12 -47.5 -69t-47.5 -70h-11zM391 0q-70 80 -181 236l72 80q83 -115 135 -181q43 -57 105 -126v-9h-131zM56 507h111v-507h-111v507zM362 393q8 21 16.5 40.5l18 40.5t14.5 33h105l-147 -120z" />
    <glyph glyph-name="Lacute.sc" unicode="&#xf650;" horiz-adv-x="432" 
d="M56 507h111v-507h-111v507zM214 10l66.5 23t67 26t63.5 25v-84h-197v10zM29 575l73.5 45.5l91.5 55.5l28 -72l-190 -37z" />
    <glyph glyph-name="Lcaron.sc" unicode="&#xf651;" horiz-adv-x="432" 
d="M56 507h111v-507h-111v507zM214 10l66.5 23t67 26t63.5 25v-84h-197v10zM218 360q4 20 11 75.5t10 72.5h62q-6 -18 -35.5 -73.5t-36.5 -74.5h-11z" />
    <glyph glyph-name="Lcommaaccent.sc" unicode="&#xf652;" horiz-adv-x="432" 
d="M56 507h111v-507h-111v507zM214 10l66.5 23t67 26t63.5 25v-84h-197v10zM180 -194q0 3 6 64t9 75h91q-6 -12 -47.5 -69t-47.5 -70h-11z" />
    <glyph glyph-name="Nacute.sc" unicode="&#xf653;" horiz-adv-x="538" 
d="M215 575l73.5 45.5l91.5 55.5l28 -72l-190 -37zM106 390q-39 50 -96 117h140l319 -419v-90h-67zM40 0q6 20 37 151h11q23 -109 37 -151h-85zM458 359q-19 86 -38 148h86q-12 -42 -38 -148h-10z" />
    <glyph glyph-name="Ncaron.sc" unicode="&#xf654;" horiz-adv-x="538" 
d="M183 692l6 6l109 -71h6l109 71l5 -6l-114 -134h-7zM106 390q-39 50 -96 117h140l319 -419v-90h-67zM40 0q6 20 37 151h11q23 -109 37 -151h-85zM458 359q-19 86 -38 148h86q-12 -42 -38 -148h-10z" />
    <glyph glyph-name="Ncommaaccent.sc" unicode="&#xf655;" horiz-adv-x="538" 
d="M197 -194q0 3 6 64t9 75h91q-6 -12 -47.5 -69t-47.5 -70h-11zM106 390q-39 50 -96 117h140l319 -419v-90h-67zM40 0q6 20 37 151h11q23 -109 37 -151h-85zM458 359q-19 86 -38 148h86q-12 -42 -38 -148h-10z" />
    <glyph glyph-name="Ohungarumlaut.sc" unicode="&#xf656;" horiz-adv-x="596" 
d="M279 -7q-105 6 -177 81.5t-72 179.5q0 103 72 178.5t177 79.5v-10q-70 -9 -101.5 -78t-31.5 -170q0 -65 11.5 -116t42.5 -89t79 -46v-10zM317 3q132 20 132 251q0 232 -132 248v10q105 -4 177 -78.5t72 -179.5q0 -106 -71.5 -180.5t-177.5 -80.5v10zM232 551l70 146
l54 -35l-119 -116zM348 551l70 146l54 -35l-119 -116z" />
    <glyph glyph-name="Omacron.sc" unicode="&#xf657;" horiz-adv-x="596" 
d="M279 -7q-105 6 -177 81.5t-72 179.5q0 103 72 178.5t177 79.5v-10q-70 -9 -101.5 -78t-31.5 -170q0 -65 11.5 -116t42.5 -89t79 -46v-10zM317 3q132 20 132 251q0 232 -132 248v10q105 -4 177 -78.5t72 -179.5q0 -106 -71.5 -180.5t-177.5 -80.5v10zM191 627h214v-35
h-214v35z" />
    <glyph glyph-name="Racute.sc" unicode="&#xf658;" horiz-adv-x="483" 
d="M155 575l73.5 45.5l91.5 55.5l28 -72l-190 -37zM357 0q-110 175 -149 242q114 25 114 130q0 61 -26 89t-88 35v11q105 -3 165 -34t60 -106q0 -87 -116 -127l77.5 -116t79.5 -120v-4h-117zM56 507h111v-507h-111v507z" />
    <glyph glyph-name="Rcaron.sc" unicode="&#xf659;" horiz-adv-x="483" 
d="M124 692l6 6l109 -71h6l109 71l5 -6l-114 -134h-7zM357 0q-110 175 -149 242q114 25 114 130q0 61 -26 89t-88 35v11q105 -3 165 -34t60 -106q0 -87 -116 -127l77.5 -116t79.5 -120v-4h-117zM56 507h111v-507h-111v507z" />
    <glyph glyph-name="Rcommaaccent.sc" unicode="&#xf65a;" horiz-adv-x="483" 
d="M189 -194q0 3 6 64t9 75h91q-6 -12 -47.5 -69t-47.5 -70h-11zM357 0q-110 175 -149 242q114 25 114 130q0 61 -26 89t-88 35v11q105 -3 165 -34t60 -106q0 -87 -116 -127l77.5 -116t79.5 -120v-4h-117zM56 507h111v-507h-111v507z" />
    <glyph glyph-name="Sacute.sc" unicode="&#xf65b;" horiz-adv-x="403" 
d="M129 575l73.5 45.5l91.5 55.5l28 -72l-190 -37zM199 3q86 15 86 99q0 32 -21.5 52t-77.5 48l-39 20q-55 27 -83 60t-28 86q0 63 48 102t112 43v-10q-33 -4 -54.5 -25.5t-21.5 -53.5q0 -36 18.5 -57t71.5 -47l34 -17q47 -24 70 -39.5t40.5 -44.5t17.5 -70
q0 -68 -52.5 -111t-120.5 -45v10zM160 -7q-78 2 -127 19v76q70 -68 127 -85v-10zM346 434q-70 58 -111 69v10q61 0 111 -13v-66z" />
    <glyph glyph-name="Scedilla.sc" unicode="&#xf65c;" horiz-adv-x="403" 
d="M199 3q86 15 86 99q0 32 -21.5 52t-77.5 48l-39 20q-55 27 -83 60t-28 86q0 63 48 102t112 43v-10q-33 -4 -54.5 -25.5t-21.5 -53.5q0 -36 18.5 -57t71.5 -47l34 -17q47 -24 70 -39.5t40.5 -44.5t17.5 -70q0 -68 -52.5 -111t-120.5 -45v10zM160 -7q-78 2 -127 19v76
q70 -68 127 -85v-10zM346 434q-70 58 -111 69v10q61 0 111 -13v-66zM94 -217q-12 0 -20 8.5t-8 19.5t8 19t20 8q11 0 19 -8t8 -19t-8 -19.5t-19 -8.5zM142 -205q19 15 19 30q0 9 -19 38q-15 28 -15 42q0 21 22.5 40.5t57.5 31.5l5 -7q-27 -20 -27 -36q0 -11 16 -36
q21 -34 21 -48q0 -20 -22 -36.5t-55 -25.5z" />
    <glyph glyph-name="Scommaaccent.sc" unicode="&#xf65d;" horiz-adv-x="403" 
d="M122 -194q0 3 6 64t9 75h91q-6 -12 -47.5 -69t-47.5 -70h-11zM199 3q86 15 86 99q0 32 -21.5 52t-77.5 48l-39 20q-55 27 -83 60t-28 86q0 63 48 102t112 43v-10q-33 -4 -54.5 -25.5t-21.5 -53.5q0 -36 18.5 -57t71.5 -47l34 -17q47 -24 70 -39.5t40.5 -44.5t17.5 -70
q0 -68 -52.5 -111t-120.5 -45v10zM160 -7q-78 2 -127 19v76q70 -68 127 -85v-10zM346 434q-70 58 -111 69v10q61 0 111 -13v-66z" />
    <glyph glyph-name="Tcaron.sc" unicode="&#xf65e;" horiz-adv-x="485" 
d="M14 507h139v-11q-31 -14 -139 -78v89zM187 507h111v-507h-111v507zM471 418q-91 57 -139 78v11h139v-89zM125 692l6 6l109 -71h6l109 71l5 -6l-114 -134h-7z" />
    <glyph glyph-name="Tcommaaccent.sc" unicode="&#xf65f;" horiz-adv-x="485" 
d="M14 507h139v-11q-31 -14 -139 -78v89zM187 507h111v-507h-111v507zM471 418q-91 57 -139 78v11h139v-89zM183 -194q0 3 6 64t9 75h91q-6 -12 -47.5 -69t-47.5 -70h-11z" />
    <glyph glyph-name="Uhungarumlaut.sc" unicode="&#xf660;" horiz-adv-x="524" 
d="M221 551l70 146l54 -35l-119 -116zM337 551l70 146l54 -35l-119 -116zM260 -6q-95 0 -151.5 48t-56.5 143v322h112v-316q0 -70 38.5 -104t106.5 -34q79 0 119 46l8 -6q-19 -41 -64 -70t-112 -29zM451 353q-13 61 -39 154h88q-20 -68 -38 -154h-11z" />
    <glyph glyph-name="Umacron.sc" unicode="&#xf661;" horiz-adv-x="524" 
d="M180 627h214v-35h-214v35zM260 -6q-95 0 -151.5 48t-56.5 143v322h112v-316q0 -70 38.5 -104t106.5 -34q79 0 119 46l8 -6q-19 -41 -64 -70t-112 -29zM451 353q-13 61 -39 154h88q-20 -68 -38 -154h-11z" />
    <glyph glyph-name="Uogonek.sc" unicode="&#xf662;" horiz-adv-x="524" 
d="M277 -219q-40 0 -64.5 20.5t-24.5 58.5q0 69 118 120h11q-30 -26 -43.5 -46.5t-13.5 -47.5q0 -56 55 -56q38 0 65 30l7 -5q-13 -21 -23.5 -34.5t-34 -26.5t-52.5 -13zM260 -6q-95 0 -151.5 48t-56.5 143v322h112v-316q0 -70 38.5 -104t106.5 -34q79 0 119 46l8 -6
q-19 -41 -64 -70t-112 -29zM451 353q-13 61 -39 154h88q-20 -68 -38 -154h-11z" />
    <glyph glyph-name="Uring.sc" unicode="&#xf663;" horiz-adv-x="524" 
d="M304 537q21 2 35 17.5t14 41.5q0 52 -49 59v14q28 -2 47 -21.5t19 -51.5q0 -31 -20 -51t-46 -22v14zM282 523q-27 2 -46.5 21.5t-19.5 51.5q0 31 19 51t47 22v-14q-49 -7 -49 -59q0 -26 14 -41.5t35 -17.5v-14zM260 -6q-95 0 -151.5 48t-56.5 143v322h112v-316
q0 -70 38.5 -104t106.5 -34q79 0 119 46l8 -6q-19 -41 -64 -70t-112 -29zM451 353q-13 61 -39 154h88q-20 -68 -38 -154h-11z" />
    <glyph glyph-name="Zacute.sc" unicode="&#xf664;" horiz-adv-x="485" 
d="M161 575l73.5 45.5l91.5 55.5l28 -72l-190 -37zM39 507h207v-12q-55 -14 -212 -69zM337 507h119l-316 -507h-118zM229 10q40 10 73.5 20t83.5 28t68 24l-6 -82h-219v10z" />
    <glyph glyph-name="Zdotaccent.sc" unicode="&#xf665;" horiz-adv-x="485" 
d="M39 507h207v-12q-55 -14 -212 -69zM337 507h119l-316 -507h-118zM229 10q40 10 73.5 20t83.5 28t68 24l-6 -82h-219v10zM247 555q-24 0 -41.5 16.5t-17.5 41.5q0 26 17 42t42 16t42.5 -16t17.5 -42t-17.5 -42t-42.5 -16z" />
    <glyph glyph-name="Idotaccent.sc" unicode="&#xf666;" horiz-adv-x="223" 
d="M56 507h111v-507h-111v507zM112 555q-24 0 -41.5 16.5t-17.5 41.5q0 26 17 42t42 16t42.5 -16t17.5 -42t-17.5 -42t-42.5 -16z" />
    <glyph glyph-name="germandbls.sc" unicode="&#xf667;" horiz-adv-x="792" 
d="M588 3q86 15 86 99q0 32 -21.5 52t-77.5 48l-39 20q-55 27 -83 60t-28 86q0 63 48 102t112 43v-10q-33 -4 -54.5 -25.5t-21.5 -53.5q0 -36 18.5 -57t71.5 -47l34 -17q47 -24 70 -39.5t40.5 -44.5t17.5 -70q0 -68 -52.5 -111t-120.5 -45v10zM549 -7q-78 2 -127 19v76
q70 -68 127 -85v-10zM735 434q-70 58 -111 69v10q61 0 111 -13v-66zM199 3q86 15 86 99q0 32 -21.5 52t-77.5 48l-39 20q-55 27 -83 60t-28 86q0 63 48 102t112 43v-10q-33 -4 -54.5 -25.5t-21.5 -53.5q0 -36 18.5 -57t71.5 -47l34 -17q47 -24 70 -39.5t40.5 -44.5t17.5 -70
q0 -68 -52.5 -111t-120.5 -45v10zM160 -7q-78 2 -127 19v76q70 -68 127 -85v-10zM346 434q-70 58 -111 69v10q61 0 111 -13v-66z" />
    <glyph glyph-name="Lslash.sc" unicode="&#xf6f9;" horiz-adv-x="432" 
d="M3 178l299 136l7 -16l-298 -136zM61 507h111v-507h-111v507zM219 10l66.5 23t67 26t63.5 25v-84h-197v10z" />
    <glyph glyph-name="OE.sc" unicode="&#xf6fa;" horiz-adv-x="722" 
d="M295 0q-111 4 -189 74.5t-78 179.5t77.5 178t189.5 75v-11q-152 -21 -152 -242q0 -223 152 -244v-10zM340 507h109v-507h-109v507zM497 9q88 21 199 58v-67h-199v9zM623 225q-82 19 -126 25v11l126 24v-60zM691 443l-60 18.5t-70 20.5t-65 15v10h195v-64z" />
    <glyph glyph-name="Scaron.sc" unicode="&#xf6fd;" horiz-adv-x="403" 
d="M98 692l6 6l109 -71h6l109 71l5 -6l-114 -134h-7zM199 3q86 15 86 99q0 32 -21.5 52t-77.5 48l-39 20q-55 27 -83 60t-28 86q0 63 48 102t112 43v-10q-33 -4 -54.5 -25.5t-21.5 -53.5q0 -36 18.5 -57t71.5 -47l34 -17q47 -24 70 -39.5t40.5 -44.5t17.5 -70
q0 -68 -52.5 -111t-120.5 -45v10zM160 -7q-78 2 -127 19v76q70 -68 127 -85v-10zM346 434q-70 58 -111 69v10q61 0 111 -13v-66z" />
    <glyph glyph-name="Zcaron.sc" unicode="&#xf6ff;" horiz-adv-x="485" 
d="M130 692l6 6l109 -71h6l109 71l5 -6l-114 -134h-7zM39 507h207v-12q-55 -14 -212 -69zM337 507h119l-316 -507h-118zM229 10q40 10 73.5 20t83.5 28t68 24l-6 -82h-219v10z" />
    <glyph glyph-name="exclam.sc" unicode="&#xf721;" horiz-adv-x="203" 
d="M101 -6q-21 0 -34.5 13.5t-13.5 34.5q0 20 13.5 33.5t34.5 13.5t34.5 -13.5t13.5 -33.5t-13.5 -34t-34.5 -14zM92 136q-2 53 -21.5 190t-21.5 181h105q-2 -44 -21.5 -181t-21.5 -190h-19z" />
    <glyph glyph-name="ampersand.sc" unicode="&#xf726;" horiz-adv-x="554" 
d="M171 -6q-69 0 -106.5 38.5t-37.5 99.5q0 48 31 86.5t77 60.5l5 -9q-37 -33 -37 -88q0 -52 38.5 -93.5t88.5 -41.5q39 0 73 30l7 -9q-51 -74 -139 -74zM182 278q-56 63 -56 123q0 49 39.5 79t91.5 32v-10q-44 -13 -44 -56q0 -19 8.5 -39.5t17.5 -33l30 -41.5l264 -332
h-126zM298 353q35 28 35 82q0 32 -12 46.5t-37 20.5v10q53 -3 81.5 -23.5t28.5 -53.5q0 -58 -91 -91zM426 222q22 64 30 100h90q-29 -24 -113 -108z" />
    <glyph glyph-name="question.sc" unicode="&#xf73f;" horiz-adv-x="349" 
d="M90 237q70 11 103 40t33 103q0 62 -31.5 88.5t-81.5 33.5v10q58 -3 103.5 -14.5t80 -41.5t34.5 -76q0 -40 -19 -70t-51.5 -47.5t-68.5 -27t-77 -12.5v-87h-25v101zM67 392q-20 0 -33.5 14t-13.5 34q0 19 13.5 33t33.5 14t33.5 -14t13.5 -33q0 -20 -13.5 -34t-33.5 -14z
M103 -6q-21 0 -35 13t-14 34q0 20 14 33.5t35 13.5t35 -13.5t14 -33.5q0 -21 -14 -34t-35 -13z" />
    <glyph glyph-name="A.sc" unicode="&#xf761;" horiz-adv-x="473" 
d="M107 213h153l-78 194l42 105h37l203 -512h-118l-76 188h-173zM1 0q24 36 76 125l12 -3q-6 -66 -6 -122h-82z" />
    <glyph glyph-name="B.sc" unicode="&#xf762;" horiz-adv-x="470" 
d="M207 10q129 9 129 133q0 63 -30 90t-91 30v10q100 9 100 113q0 59 -25.5 81t-82.5 29v11q103 -2 157 -30.5t54 -92.5q0 -47 -43.5 -75.5t-107.5 -37.5v-2q83 -12 130.5 -40t47.5 -88q0 -136 -238 -141v10zM56 507h111v-507h-111v507z" />
    <glyph glyph-name="C.sc" unicode="&#xf763;" horiz-adv-x="505" 
d="M302 -6q-124 6 -198 75t-74 185q0 108 81.5 180.5t193.5 78.5v-10q-157 -26 -157 -249q0 -226 154 -250v-10zM338 4q56 15 139 86v-78q-46 -14 -139 -18v10zM472 421q-60 60 -131 82v10q86 -2 131 -17v-75z" />
    <glyph glyph-name="D.sc" unicode="&#xf764;" horiz-adv-x="554" 
d="M214 10q93 6 142.5 63t49.5 181q0 126 -49.5 182t-143.5 60v11q50 -1 94.5 -9.5t85 -27.5t69.5 -47.5t46 -71.5t17 -97q0 -86 -45 -144.5t-112.5 -83t-153.5 -26.5v10zM56 507h111v-507h-111v507z" />
    <glyph glyph-name="E.sc" unicode="&#xf765;" horiz-adv-x="444" 
d="M56 507h111v-507h-111v507zM212 9q100 24 207 60v-69h-207v9zM340 224q-92 21 -128 26v11q87 16 128 26v-63zM413 441l-61.5 19t-72.5 21.5t-67 15.5v10h201v-66z" />
    <glyph glyph-name="F.sc" unicode="&#xf766;" horiz-adv-x="432" 
d="M57 507h112v-507h-112v507zM341 226q-89 21 -125 28v11q23 5 125 29v-68zM418 437l-49.5 17t-49.5 16t-45.5 12.5t-58.5 13.5v11h203v-70z" />
    <glyph glyph-name="G.sc" unicode="&#xf767;" horiz-adv-x="546" 
d="M286 -6q-122 6 -189 78t-67 182q0 114 73.5 181.5t199.5 77.5v-10q-156 -25 -156 -249q0 -230 139 -250v-10zM324 4q48 6 78 19v201h104v-199q-69 -27 -182 -31v10zM486 420q-85 65 -145 83v10q89 -2 145 -16v-77z" />
    <glyph glyph-name="H.sc" unicode="&#xf768;" horiz-adv-x="563" 
d="M56 507h111v-507h-111v507zM196 276h171v-25h-171v25zM396 507h112v-507h-112v507z" />
    <glyph glyph-name="I.sc" unicode="&#xf769;" horiz-adv-x="223" 
d="M56 507h111v-507h-111v507z" />
    <glyph glyph-name="J.sc" unicode="&#xf76a;" horiz-adv-x="347" 
d="M114 4q70 13 70 100v403h111v-364q0 -74 -53.5 -110.5t-127.5 -39.5v11zM57 13q-20 0 -35 15t-15 35q0 21 15 36t35 15q21 0 36 -15t15 -36q0 -20 -15 -35t-36 -15z" />
    <glyph glyph-name="K.sc" unicode="&#xf76b;" horiz-adv-x="527" 
d="M391 0q-70 80 -181 236l72 80q83 -115 135 -181q43 -57 105 -126v-9h-131zM56 507h111v-507h-111v507zM362 393q8 21 16.5 40.5l18 40.5t14.5 33h105l-147 -120z" />
    <glyph glyph-name="L.sc" unicode="&#xf76c;" horiz-adv-x="432" 
d="M56 507h111v-507h-111v507zM214 10l66.5 23t67 26t63.5 25v-84h-197v10z" />
    <glyph glyph-name="M.sc" unicode="&#xf76d;" horiz-adv-x="648" 
d="M47 507h123l197 -409l-58 -104h-14zM20 0q40 87 69 162h11q1 -59 6 -162h-86zM461 507h111l24 -507h-111z" />
    <glyph glyph-name="N.sc" unicode="&#xf76e;" horiz-adv-x="538" 
d="M106 390q-39 50 -96 117h140l319 -419v-90h-67zM40 0q6 20 37 151h11q23 -109 37 -151h-85zM458 359q-19 86 -38 148h86q-12 -42 -38 -148h-10z" />
    <glyph glyph-name="O.sc" unicode="&#xf76f;" horiz-adv-x="596" 
d="M279 -7q-105 6 -177 81.5t-72 179.5q0 103 72 178.5t177 79.5v-10q-70 -9 -101.5 -78t-31.5 -170q0 -65 11.5 -116t42.5 -89t79 -46v-10zM317 3q132 20 132 251q0 232 -132 248v10q105 -4 177 -78.5t72 -179.5q0 -106 -71.5 -180.5t-177.5 -80.5v10z" />
    <glyph glyph-name="P.sc" unicode="&#xf770;" horiz-adv-x="460" 
d="M212 228q66 7 92 36.5t26 98.5q0 68 -28.5 96t-89.5 37v11q231 -11 231 -143q0 -71 -59 -106t-172 -41v11zM56 507h111v-507h-111v507z" />
    <glyph glyph-name="Q.sc" unicode="&#xf771;" horiz-adv-x="592" 
d="M277 -7q-106 6 -176.5 81.5t-70.5 179.5q0 103 70.5 178.5t176.5 79.5v-10q-128 -17 -128 -248t128 -251v-10zM315 3q128 20 128 251q0 232 -128 248v10q106 -4 176.5 -78.5t70.5 -179.5q0 -106 -70.5 -180.5t-176.5 -80.5v10zM555 -142q-162 49 -259 97l1 11
q95 -13 271 -35z" />
    <glyph glyph-name="R.sc" unicode="&#xf772;" horiz-adv-x="483" 
d="M357 0q-110 175 -149 242q114 25 114 130q0 61 -26 89t-88 35v11q105 -3 165 -34t60 -106q0 -87 -116 -127l77.5 -116t79.5 -120v-4h-117zM56 507h111v-507h-111v507z" />
    <glyph glyph-name="S.sc" unicode="&#xf773;" horiz-adv-x="403" 
d="M199 3q86 15 86 99q0 32 -21.5 52t-77.5 48l-39 20q-55 27 -83 60t-28 86q0 63 48 102t112 43v-10q-33 -4 -54.5 -25.5t-21.5 -53.5q0 -36 18.5 -57t71.5 -47l34 -17q47 -24 70 -39.5t40.5 -44.5t17.5 -70q0 -68 -52.5 -111t-120.5 -45v10zM160 -7q-78 2 -127 19v76
q70 -68 127 -85v-10zM346 434q-70 58 -111 69v10q61 0 111 -13v-66z" />
    <glyph glyph-name="T.sc" unicode="&#xf774;" horiz-adv-x="485" 
d="M14 507h139v-11q-31 -14 -139 -78v89zM187 507h111v-507h-111v507zM471 418q-91 57 -139 78v11h139v-89z" />
    <glyph glyph-name="U.sc" unicode="&#xf775;" horiz-adv-x="524" 
d="M260 -6q-95 0 -151.5 48t-56.5 143v322h112v-316q0 -70 38.5 -104t106.5 -34q79 0 119 46l8 -6q-19 -41 -64 -70t-112 -29zM451 353q-13 61 -39 154h88q-20 -68 -38 -154h-11z" />
    <glyph glyph-name="V.sc" unicode="&#xf776;" horiz-adv-x="477" 
d="M7 507h121l163 -409l-45 -102h-37zM373 361q1 20 8 73t8 73h90q-72 -112 -96 -153z" />
    <glyph glyph-name="W.sc" unicode="&#xf777;" horiz-adv-x="722" 
d="M15 507h121l144 -401l-45 -108h-37zM282 507h121l144 -401l-44 -108h-37zM622 369l14 138h88q-70 -108 -91 -146z" />
    <glyph glyph-name="X.sc" unicode="&#xf778;" horiz-adv-x="481" 
d="M12 0l133 149l9 -5q-6 -14 -49 -144h-93zM19 507h125l329 -507h-126zM337 373q6 16 43 134h91q-34 -34 -74 -80.5t-51 -57.5z" />
    <glyph glyph-name="Y.sc" unicode="&#xf779;" horiz-adv-x="478" 
d="M174 228l-171 279h123l159 -261v-246h-111v228zM349 380q32 82 47 127h86l-62.5 -65.5l-61.5 -65.5z" />
    <glyph glyph-name="Z.sc" unicode="&#xf77a;" horiz-adv-x="485" 
d="M39 507h207v-12q-55 -14 -212 -69zM337 507h119l-316 -507h-118zM229 10q40 10 73.5 20t83.5 28t68 24l-6 -82h-219v10z" />
    <glyph glyph-name="exclamdown.sc" unicode="&#xf7a1;" horiz-adv-x="203" 
d="M101 510q21 0 34.5 -14t13.5 -34t-13.5 -33.5t-34.5 -13.5t-34.5 13.5t-13.5 33.5q0 21 13.5 34.5t34.5 13.5zM92 368h19q2 -53 21.5 -190t21.5 -181h-105q2 44 21.5 181t21.5 190z" />
    <glyph glyph-name="questiondown.sc" unicode="&#xf7bf;" horiz-adv-x="349" 
d="M259 269q-70 -11 -103 -40t-33 -103q0 -62 31.5 -88.5t81.5 -33.5v-10q-58 3 -103.5 14.5t-80 41.5t-34.5 76q0 40 19 70t51.5 47.5t68.5 27t77 12.5v87h25v-101zM282 114q20 0 33.5 -14t13.5 -34q0 -19 -13.5 -33t-33.5 -14t-33.5 14t-13.5 33q0 20 13.5 34t33.5 14z
M246 512q21 0 35 -13t14 -34q0 -20 -14 -33.5t-35 -13.5t-35 13.5t-14 33.5q0 21 14 34t35 13z" />
    <glyph glyph-name="Agrave.sc" unicode="&#xf7e0;" horiz-adv-x="473" 
d="M107 213h153l-78 194l42 105h37l203 -512h-118l-76 188h-173zM1 0q24 36 76 125l12 -3q-6 -66 -6 -122h-82zM139 604l28 72l165 -101l-4 -8z" />
    <glyph glyph-name="Aacute.sc" unicode="&#xf7e1;" horiz-adv-x="473" 
d="M157 575l73.5 45.5l91.5 55.5l28 -72l-190 -37zM107 213h153l-78 194l42 105h37l203 -512h-118l-76 188h-173zM1 0q24 36 76 125l12 -3q-6 -66 -6 -122h-82z" />
    <glyph glyph-name="Acircumflex.sc" unicode="&#xf7e2;" horiz-adv-x="473" 
d="M125 565l115 133h6l114 -133l-5 -7l-110 71h-5l-110 -71zM107 213h153l-78 194l42 105h37l203 -512h-118l-76 188h-173zM1 0q24 36 76 125l12 -3q-6 -66 -6 -122h-82z" />
    <glyph glyph-name="Atilde.sc" unicode="&#xf7e3;" horiz-adv-x="473" 
d="M107 213h153l-78 194l42 105h37l203 -512h-118l-76 188h-173zM1 0q24 36 76 125l12 -3q-6 -66 -6 -122h-82zM109 553q15 45 45.5 69.5t69.5 24.5h99q21 0 33 8.5t25 28.5h8q-29 -100 -110 -100h-103q-39 0 -59 -31h-8z" />
    <glyph glyph-name="Adieresis.sc" unicode="&#xf7e4;" horiz-adv-x="473" 
d="M164 574q-20 0 -33 13.5t-13 32.5t13 32t33 13q18 0 31.5 -13t13.5 -32t-13.5 -32.5t-31.5 -13.5zM323 574q-18 0 -31.5 13.5t-13.5 32.5t13.5 32t31.5 13q20 0 33 -13t13 -32t-13 -32.5t-33 -13.5zM107 213h153l-78 194l42 105h37l203 -512h-118l-76 188h-173zM1 0
q24 36 76 125l12 -3q-6 -66 -6 -122h-82z" />
    <glyph glyph-name="Aring.sc" unicode="&#xf7e5;" horiz-adv-x="473" 
d="M254 560q21 2 35 17.5t14 41.5q0 52 -49 59v14q28 -2 47 -21.5t19 -51.5q0 -31 -20 -51t-46 -22v14zM232 546q-27 2 -46.5 21.5t-19.5 51.5q0 31 19 51t47 22v-14q-49 -7 -49 -59q0 -26 14 -41.5t35 -17.5v-14zM107 213h153l-78 194l42 105h37l203 -512h-118l-76 188
h-173zM1 0q24 36 76 125l12 -3q-6 -66 -6 -122h-82z" />
    <glyph glyph-name="AE.sc" unicode="&#xf7e6;" horiz-adv-x="684" 
d="M156 266h148v241h111v-507h-111v240h-162zM461 9q68 16 197 59v-68h-197v9zM653 441q-23 7 -60.5 19.5t-67 21t-65.5 15.5v10h193v-66zM-6 0l34 46l32 44l25 35l11 -3q-13 -73 -18 -122h-84zM585 224q-16 3 -38.5 8.5t-41.5 9.5t-44 8v11q74 14 124 26v-63z" />
    <glyph glyph-name="Ccedilla.sc" unicode="&#xf7e7;" horiz-adv-x="505" 
d="M302 -6q-124 6 -198 75t-74 185q0 108 81.5 180.5t193.5 78.5v-10q-157 -26 -157 -249q0 -226 154 -250v-10zM338 4q56 15 139 86v-78q-46 -14 -139 -18v10zM472 421q-60 60 -131 82v10q86 -2 131 -17v-75zM204 -217q-12 0 -20 8.5t-8 19.5t8 19t20 8q11 0 19 -8t8 -19
t-8 -19.5t-19 -8.5zM252 -205q19 15 19 30q0 9 -19 38q-15 28 -15 42q0 21 22.5 40.5t57.5 31.5l5 -7q-27 -20 -27 -36q0 -11 16 -36q21 -34 21 -48q0 -20 -22 -36.5t-55 -25.5z" />
    <glyph glyph-name="Egrave.sc" unicode="&#xf7e8;" horiz-adv-x="444" 
d="M144 604l28 72l165 -101l-4 -8zM56 507h111v-507h-111v507zM212 9q100 24 207 60v-69h-207v9zM340 224q-92 21 -128 26v11q87 16 128 26v-63zM413 441l-61.5 19t-72.5 21.5t-67 15.5v10h201v-66z" />
    <glyph glyph-name="Eacute.sc" unicode="&#xf7e9;" horiz-adv-x="444" 
d="M151 575l73.5 45.5l91.5 55.5l28 -72l-190 -37zM56 507h111v-507h-111v507zM212 9q100 24 207 60v-69h-207v9zM340 224q-92 21 -128 26v11q87 16 128 26v-63zM413 441l-61.5 19t-72.5 21.5t-67 15.5v10h201v-66z" />
    <glyph glyph-name="Ecircumflex.sc" unicode="&#xf7ea;" horiz-adv-x="444" 
d="M129 565l115 133h6l114 -133l-5 -7l-110 71h-5l-110 -71zM56 507h111v-507h-111v507zM212 9q100 24 207 60v-69h-207v9zM340 224q-92 21 -128 26v11q87 16 128 26v-63zM413 441l-61.5 19t-72.5 21.5t-67 15.5v10h201v-66z" />
    <glyph glyph-name="Edieresis.sc" unicode="&#xf7eb;" horiz-adv-x="444" 
d="M167 574q-20 0 -33 13.5t-13 32.5t13 32t33 13q18 0 31.5 -13t13.5 -32t-13.5 -32.5t-31.5 -13.5zM326 574q-18 0 -31.5 13.5t-13.5 32.5t13.5 32t31.5 13q20 0 33 -13t13 -32t-13 -32.5t-33 -13.5zM56 507h111v-507h-111v507zM212 9q100 24 207 60v-69h-207v9zM340 224
q-92 21 -128 26v11q87 16 128 26v-63zM413 441l-61.5 19t-72.5 21.5t-67 15.5v10h201v-66z" />
    <glyph glyph-name="Igrave.sc" unicode="&#xf7ec;" horiz-adv-x="223" 
d="M56 507h111v-507h-111v507zM8 604l28 72l165 -101l-4 -8z" />
    <glyph glyph-name="Iacute.sc" unicode="&#xf7ed;" horiz-adv-x="223" 
d="M26 575l73.5 45.5l91.5 55.5l28 -72l-190 -37zM56 507h111v-507h-111v507z" />
    <glyph glyph-name="Icircumflex.sc" unicode="&#xf7ee;" horiz-adv-x="223" 
d="M-5 565l115 133h6l114 -133l-5 -7l-110 71h-5l-110 -71zM56 507h111v-507h-111v507z" />
    <glyph glyph-name="Idieresis.sc" unicode="&#xf7ef;" horiz-adv-x="223" 
d="M42 573q-19 0 -32 13.5t-13 32.5t13 32.5t32 13.5t32.5 -13.5t13.5 -32.5t-13.5 -32.5t-32.5 -13.5zM179 573q-19 0 -32 13.5t-13 32.5t13 32.5t32 13.5q20 0 33 -13.5t13 -32.5t-13 -32.5t-33 -13.5zM56 507h111v-507h-111v507z" />
    <glyph glyph-name="Eth.sc" unicode="&#xf7f0;" horiz-adv-x="575" 
d="M235 10q94 6 145 63t51 181q0 125 -51 181.5t-145 60.5v11q63 -1 116.5 -15t98.5 -42.5t71 -78.5t26 -117q0 -65 -25.5 -114.5t-70 -79t-99 -44.5t-117.5 -16v10zM187 0h-110v246h-64v25h64v236h110v-236h119v-25h-119v-246z" />
    <glyph glyph-name="Ntilde.sc" unicode="&#xf7f1;" horiz-adv-x="538" 
d="M106 390q-39 50 -96 117h140l319 -419v-90h-67zM40 0q6 20 37 151h11q23 -109 37 -151h-85zM458 359q-19 86 -38 148h86q-12 -42 -38 -148h-10zM167 553q15 45 45.5 69.5t69.5 24.5h99q21 0 33 8.5t25 28.5h8q-29 -100 -110 -100h-103q-39 0 -59 -31h-8z" />
    <glyph glyph-name="Ograve.sc" unicode="&#xf7f2;" horiz-adv-x="596" 
d="M279 -7q-105 6 -177 81.5t-72 179.5q0 103 72 178.5t177 79.5v-10q-70 -9 -101.5 -78t-31.5 -170q0 -65 11.5 -116t42.5 -89t79 -46v-10zM317 3q132 20 132 251q0 232 -132 248v10q105 -4 177 -78.5t72 -179.5q0 -106 -71.5 -180.5t-177.5 -80.5v10zM194 604l28 72
l165 -101l-4 -8z" />
    <glyph glyph-name="Oacute.sc" unicode="&#xf7f3;" horiz-adv-x="596" 
d="M279 -7q-105 6 -177 81.5t-72 179.5q0 103 72 178.5t177 79.5v-10q-70 -9 -101.5 -78t-31.5 -170q0 -65 11.5 -116t42.5 -89t79 -46v-10zM317 3q132 20 132 251q0 232 -132 248v10q105 -4 177 -78.5t72 -179.5q0 -106 -71.5 -180.5t-177.5 -80.5v10zM212 575l73.5 45.5
l91.5 55.5l28 -72l-190 -37z" />
    <glyph glyph-name="Ocircumflex.sc" unicode="&#xf7f4;" horiz-adv-x="596" 
d="M180 565l115 133h6l114 -133l-5 -7l-110 71h-5l-110 -71zM279 -7q-105 6 -177 81.5t-72 179.5q0 103 72 178.5t177 79.5v-10q-70 -9 -101.5 -78t-31.5 -170q0 -65 11.5 -116t42.5 -89t79 -46v-10zM317 3q132 20 132 251q0 232 -132 248v10q105 -4 177 -78.5t72 -179.5
q0 -106 -71.5 -180.5t-177.5 -80.5v10z" />
    <glyph glyph-name="Otilde.sc" unicode="&#xf7f5;" horiz-adv-x="596" 
d="M279 -7q-105 6 -177 81.5t-72 179.5q0 103 72 178.5t177 79.5v-10q-70 -9 -101.5 -78t-31.5 -170q0 -65 11.5 -116t42.5 -89t79 -46v-10zM317 3q132 20 132 251q0 232 -132 248v10q105 -4 177 -78.5t72 -179.5q0 -106 -71.5 -180.5t-177.5 -80.5v10zM164 553
q15 45 45.5 69.5t69.5 24.5h99q21 0 33 8.5t25 28.5h8q-29 -100 -110 -100h-103q-39 0 -59 -31h-8z" />
    <glyph glyph-name="Odieresis.sc" unicode="&#xf7f6;" horiz-adv-x="596" 
d="M218 574q-20 0 -33 13.5t-13 32.5t13 32t33 13q18 0 31.5 -13t13.5 -32t-13.5 -32.5t-31.5 -13.5zM377 574q-18 0 -31.5 13.5t-13.5 32.5t13.5 32t31.5 13q20 0 33 -13t13 -32t-13 -32.5t-33 -13.5zM279 -7q-105 6 -177 81.5t-72 179.5q0 103 72 178.5t177 79.5v-10
q-70 -9 -101.5 -78t-31.5 -170q0 -65 11.5 -116t42.5 -89t79 -46v-10zM317 3q132 20 132 251q0 232 -132 248v10q105 -4 177 -78.5t72 -179.5q0 -106 -71.5 -180.5t-177.5 -80.5v10z" />
    <glyph glyph-name="Oslash.sc" unicode="&#xf7f8;" horiz-adv-x="596" 
d="M104 -52l49 84q-57 35 -89.5 94t-32.5 128q0 103 72 178.5t177 79.5v-10q-48 -6 -78.5 -44t-42.5 -89t-12 -115q0 -110 33 -175l219 378q-32 38 -81 45v10q54 -3 99 -24l41 70l19 -11l-40 -69q60 -33 95 -92.5t35 -131.5q0 -106 -71.5 -180.5t-177.5 -80.5v10
q133 21 133 251q0 119 -38 183l-220 -380q34 -47 87 -54v-10q-59 3 -107 28l-49 -84z" />
    <glyph glyph-name="Ugrave.sc" unicode="&#xf7f9;" horiz-adv-x="524" 
d="M183 604l28 72l165 -101l-4 -8zM260 -6q-95 0 -151.5 48t-56.5 143v322h112v-316q0 -70 38.5 -104t106.5 -34q79 0 119 46l8 -6q-19 -41 -64 -70t-112 -29zM451 353q-13 61 -39 154h88q-20 -68 -38 -154h-11z" />
    <glyph glyph-name="Uacute.sc" unicode="&#xf7fa;" horiz-adv-x="524" 
d="M200 575l73.5 45.5l91.5 55.5l28 -72l-190 -37zM260 -6q-95 0 -151.5 48t-56.5 143v322h112v-316q0 -70 38.5 -104t106.5 -34q79 0 119 46l8 -6q-19 -41 -64 -70t-112 -29zM451 353q-13 61 -39 154h88q-20 -68 -38 -154h-11z" />
    <glyph glyph-name="Ucircumflex.sc" unicode="&#xf7fb;" horiz-adv-x="524" 
d="M169 565l115 133h6l114 -133l-5 -7l-110 71h-5l-110 -71zM260 -6q-95 0 -151.5 48t-56.5 143v322h112v-316q0 -70 38.5 -104t106.5 -34q79 0 119 46l8 -6q-19 -41 -64 -70t-112 -29zM451 353q-13 61 -39 154h88q-20 -68 -38 -154h-11z" />
    <glyph glyph-name="Udieresis.sc" unicode="&#xf7fc;" horiz-adv-x="524" 
d="M207 574q-20 0 -33 13.5t-13 32.5t13 32t33 13q18 0 31.5 -13t13.5 -32t-13.5 -32.5t-31.5 -13.5zM366 574q-18 0 -31.5 13.5t-13.5 32.5t13.5 32t31.5 13q20 0 33 -13t13 -32t-13 -32.5t-33 -13.5zM260 -6q-95 0 -151.5 48t-56.5 143v322h112v-316q0 -70 38.5 -104
t106.5 -34q79 0 119 46l8 -6q-19 -41 -64 -70t-112 -29zM451 353q-13 61 -39 154h88q-20 -68 -38 -154h-11z" />
    <glyph glyph-name="Yacute.sc" unicode="&#xf7fd;" horiz-adv-x="478" 
d="M174 575l73.5 45.5l91.5 55.5l28 -72l-190 -37zM174 228l-171 279h123l159 -261v-246h-111v228zM349 380q32 82 47 127h86l-62.5 -65.5l-61.5 -65.5z" />
    <glyph glyph-name="Thorn.sc" unicode="&#xf7fe;" horiz-adv-x="454" 
d="M56 507h111v-507h-111v507zM326 263q0 69 -25.5 98.5t-88.5 35.5v11q224 -13 224 -144t-224 -144v11q63 6 88.5 35.5t25.5 96.5z" />
    <glyph glyph-name="Ydieresis.sc" unicode="&#xf7ff;" horiz-adv-x="478" 
d="M181 574q-20 0 -33 13.5t-13 32.5t13 32t33 13q18 0 31.5 -13t13.5 -32t-13.5 -32.5t-31.5 -13.5zM340 574q-18 0 -31.5 13.5t-13.5 32.5t13.5 32t31.5 13q20 0 33 -13t13 -32t-13 -32.5t-33 -13.5zM174 228l-171 279h123l159 -261v-246h-111v228zM349 380q32 82 47 127
h86l-62.5 -65.5l-61.5 -65.5z" />
    <glyph glyph-name="s_t" unicode="&#xfb06;" horiz-adv-x="665" 
d="M413 395h-54v35h54v117q0 119 -93 130v11q200 -11 200 -163v-95h130v-35h-130v-258q0 -44 15.5 -68t55.5 -24q48 0 74 16v-10q-15 -23 -50.5 -41t-83.5 -18q-118 0 -118 132v271zM180 1q31 4 54.5 25t23.5 55q0 29 -15 46t-50 32l-64 29q-93 44 -93 121q0 50 40.5 87
t102.5 43v-9q-64 -13 -64 -64q0 -48 52 -71l79 -36q48 -22 67.5 -49.5t19.5 -72.5q0 -64 -41.5 -102t-111.5 -43v9zM308 359q-54 54 -87 71q-81 43 -81 121q0 61 40.5 96.5t105.5 39.5v-10q-62 -5 -97.5 -37.5t-35.5 -88.5q0 -74 78 -108q16 -6 44 -12t33 -7v-65zM142 -8
q-71 6 -111 17v72q62 -62 111 -80v-9z" />
    <glyph glyph-name="space_uni0326" 
d="M170 -194q0 3 6 64t9 75h91q-6 -12 -47.5 -69t-47.5 -70h-11z" />
    <glyph glyph-name="caron.alt" 
d="M192 521q4 21 11.5 83.5t11.5 83.5h69q-7 -21 -39.5 -84t-40.5 -83h-12z" />
    <glyph glyph-name="space_uni0326.alt" 
d="M267 648q0 -3 -6 -64t-9 -75h-91q6 12 47.5 69t47.5 70h11z" />
    <glyph glyph-name="grave.uc" 
d="M320 674q-15 2 -98 20t-98 19l25 66q17 -12 90.5 -51t82.5 -45z" />
    <glyph glyph-name="dieresis.uc" 
d="M122 685q-20 0 -34 14.5t-14 34.5t14 33.5t34 13.5t34 -13.5t14 -33.5t-14 -34.5t-34 -14.5zM310 685q-19 0 -33 14.5t-14 34.5t14 33.5t33 13.5q20 0 34.5 -13.5t14.5 -33.5t-14.5 -34.5t-34.5 -14.5z" />
    <glyph glyph-name="macron.uc" 
d="M99 732h235v-36h-235v36z" />
    <glyph glyph-name="acute.uc" 
d="M126 683q9 6 82.5 45t90.5 51l25 -66q-15 -1 -98 -19t-98 -20z" />
    <glyph glyph-name="circumflex.uc" 
d="M95 680l119 120h6l118 -120l-5 -6l-113 61h-6l-114 -61z" />
    <glyph glyph-name="caron.uc" horiz-adv-x="499" 
d="M97 793l6 7l111 -61h6l111 61l5 -7l-116 -119h-7z" />
    <glyph glyph-name="breve.uc" 
d="M217 675q-101 0 -113 116h11q6 -27 33 -43.5t69 -16.5q41 0 68.5 16.5t33.5 43.5h10q-12 -116 -112 -116z" />
    <glyph glyph-name="dotaccent.uc" 
d="M216 684q-24 0 -42 16.5t-18 42.5t17.5 42.5t42.5 16.5t43 -16.5t18 -42.5t-18 -42.5t-43 -16.5z" />
    <glyph glyph-name="ring.uc" 
d="M228 686q21 2 36 17.5t15 40.5q0 52 -51 60v14q28 -2 48 -22t20 -52q0 -30 -21 -50.5t-47 -22.5v15zM206 671q-27 2 -47.5 22t-20.5 51q0 32 20 52t48 22v-14q-51 -8 -51 -60q0 -25 15 -40.5t36 -17.5v-15z" />
    <glyph glyph-name="tilde.uc" 
d="M76 670q14 45 44.5 70.5t69.5 25.5h102q22 0 33.5 8.5t24.5 27.5h8q-30 -101 -110 -101h-105q-40 0 -60 -31h-7z" />
    <glyph glyph-name="hungarumlaut.uc" 
d="M87 694l68 129l60 -34l-122 -98zM212 694l68 129l59 -34l-122 -98z" />
    <glyph glyph-name="cedilla.uc" 
d="M162 -217q-12 0 -20 8.5t-8 19.5t8 19t20 8q11 0 19 -8t8 -19t-8 -19.5t-19 -8.5zM210 -205q19 15 19 30q0 9 -19 38q-15 28 -15 42q0 21 22.5 40.5t57.5 31.5l5 -7q-27 -20 -27 -36q0 -11 16 -36q21 -34 21 -48q0 -20 -22 -36.5t-55 -25.5z" />
    <glyph glyph-name="uni0237.short" horiz-adv-x="210" 
d="M-10 -156q32 10 47.5 33.5t15.5 74.5v474l107 14v-423q0 -90 -46 -130.5t-124 -50.5v8z" />
    <glyph glyph-name="idotaccent" horiz-adv-x="207" 
d="M50 423l107 13v-436h-107v423zM103 500q-24 0 -41.5 16.5t-17.5 41.5q0 26 17 42t42 16t42 -16t17 -42q0 -25 -17.5 -41.5t-41.5 -16.5z" />
    <glyph glyph-name="dollar.lin" horiz-adv-x="473" 
d="M216 271l-10 6q-43 25 -66 40t-47.5 38t-35 48.5t-10.5 58.5q0 74 51 121t134 55v-10q-40 -5 -68 -34t-28 -70q0 -39 20.5 -63.5t75.5 -57.5l36 297h19l-37 -307l22 -13q50 -30 69.5 -43.5t46 -38.5t35.5 -51.5t9 -63.5q0 -85 -58 -135t-142 -56v10q108 21 108 129
q0 41 -23.5 69t-82.5 61l-40 -338h-20zM365 515q-19 0 -32.5 13.5t-13.5 33.5t13.5 33.5t32.5 13.5q20 0 34 -13.5t14 -33.5t-14 -33.5t-34 -13.5zM85 27q-19 0 -32.5 13.5t-13.5 33.5t13.5 33.5t32.5 13.5q20 0 33.5 -13.5t13.5 -33.5t-13.5 -33.5t-33.5 -13.5z" />
    <glyph glyph-name="Euro.lin" horiz-adv-x="568" 
d="M28 379h72q22 103 96.5 173t179.5 82v-9q-72 -16 -115.5 -80t-51.5 -166h150l-2 -16h-150v-28q0 -18 2 -50h110l-1 -16h-107q12 -93 58.5 -146t127.5 -53q92 0 151 46v-11q-16 -39 -68.5 -76t-130.5 -37q-110 0 -178.5 75t-76.5 202h-67l1 16h65v17q0 28 5 61h-71z
M455 512q-21 0 -35.5 15t-14.5 35q0 22 14.5 36t35.5 14t35.5 -14t14.5 -36q0 -20 -14.5 -35t-35.5 -15z" />
    <glyph glyph-name="sterling.lin" horiz-adv-x="499" 
d="M24 271h62l15 132q11 106 81.5 166t169.5 66v-8q-62 -10 -94.5 -53t-42.5 -132l-19 -171h142v-16h-144l-27 -255h-110l28 255h-61v16zM217 9l82 20t90 22.5t69 22.5v-74h-241v9zM401 497q-23 0 -38.5 16t-15.5 39t15.5 38.5t38.5 15.5q22 0 38 -15.5t16 -38.5t-16 -39
t-38 -16z" />
    <glyph glyph-name="yen.lin" horiz-adv-x="548" 
d="M100 314h90l-184 316h128l185 -316h101v-16h-99v-65h99v-16h-99v-217h-122v217h-99v16h99v65h-99v16zM413 487q21 59 48 143h94l-134 -149z" />
    <glyph glyph-name="zero.lin" horiz-adv-x="615" 
d="M293 -7q-98 4 -173.5 91t-75.5 231t75.5 231t173.5 91v-9q-70 -11 -100 -87t-30 -226t30 -225.5t100 -87.5v-9zM322 2q68 11 98.5 87.5t30.5 225.5t-30.5 225.5t-98.5 87.5v9q98 -4 173.5 -91t75.5 -231t-75.5 -231t-173.5 -91v9z" />
    <glyph glyph-name="one.lin" horiz-adv-x="307" 
d="M-3 576l88 25v-55h-88v30zM110 608l114 28v-636h-114v608z" />
    <glyph glyph-name="two.lin" horiz-adv-x="511" 
d="M125 109q82 68 145 156.5t63 184.5q0 78 -39.5 116t-107.5 38q-54 0 -95 -23v7q21 20 64 35t94 15q96 0 148 -45.5t52 -130.5q0 -53 -28 -106.5t-75 -98.5t-98.5 -81t-109.5 -67h-13zM88 450q-23 0 -38.5 16t-15.5 38t15.5 38t38.5 16t39 -16t16 -38t-16 -38t-39 -16z
M103 86h361l-5 -86h-451z" />
    <glyph glyph-name="three.lin" horiz-adv-x="482" 
d="M142 0q183 14 183 172q0 152 -148 152h-13v12h13q68 0 99.5 41.5t31.5 110.5q0 62 -31 91t-95 29q-63 0 -96 -23v6q52 47 150 47q84 0 133 -36t49 -106t-55.5 -112.5t-143.5 -51.5v-1q98 -7 159.5 -44t61.5 -113q0 -92 -78.5 -135t-219.5 -49v10zM86 21q-22 0 -37.5 15
t-15.5 37q0 21 15.5 37t37.5 16q23 0 38 -15.5t15 -37.5q0 -21 -15 -36.5t-38 -15.5zM81 457q-22 0 -37 15t-15 37q0 21 15 36.5t37 15.5t37.5 -15.5t15.5 -36.5t-15.5 -36.5t-37.5 -15.5z" />
    <glyph glyph-name="four.lin" horiz-adv-x="545" 
d="M254 526l78 109h36v-635h-114v526zM60 269h160v-78h-216zM402 269h126l-4 -78h-122v78z" />
    <glyph glyph-name="five.lin" horiz-adv-x="473" 
d="M65 42q-13 8 -15.5 24t8.5 28q10 13 25 15t28 -7q12 -9 14.5 -24.5t-7.5 -27.5q-10 -13 -25.5 -15.5t-27.5 7.5zM124 0q85 9 142 54t57 116q0 72 -44.5 107.5t-124.5 35.5q-47 0 -87 -9l4 81q58 13 123 13q106 0 167.5 -47.5t61.5 -140.5q0 -98 -81 -155t-218 -63v8z
M89 630h317v-86h-320z" />
    <glyph glyph-name="six.lin" horiz-adv-x="567" 
d="M303 1q46 8 76.5 63t30.5 128q0 90 -32 130.5t-99 40.5q-53 0 -88 -26v9q20 20 61.5 36.5t84.5 16.5q86 0 138 -50.5t52 -140.5q0 -94 -65 -153t-159 -63v9zM279 -8q-100 2 -168.5 74t-68.5 188q0 152 110 260.5t266 118.5v-10q-111 -17 -184.5 -117t-73.5 -261
q0 -230 119 -244v-9zM457 502q-23 0 -38.5 15.5t-15.5 38.5q0 21 15.5 37t38.5 16t38.5 -16t15.5 -37q0 -22 -15.5 -38t-38.5 -16z" />
    <glyph glyph-name="seven.lin" horiz-adv-x="477" 
d="M382 506h13l-213 -506h-105zM28 630h416l-36 -87h-380v87z" />
    <glyph glyph-name="eight.lin" horiz-adv-x="505" 
d="M247 -8q-89 0 -147 38.5t-58 109.5q0 28 10 51t30 40t35 26t40 21l6 -6q-57 -42 -58 -110q-2 -67 35.5 -114t106.5 -47t105.5 31t36.5 90q0 46 -39.5 79.5t-126.5 80.5q-42 22 -67 38.5t-50.5 40t-37 53t-11.5 66.5q0 69 59 113.5t145 44.5q80 0 126 -33t46 -86
q0 -41 -30 -75.5t-76 -52.5l-6 5q52 38 53 109q0 124 -113 124q-52 0 -85.5 -25.5t-33.5 -69.5q0 -48 31 -79t102 -69q48 -25 72.5 -40t58 -41.5t48.5 -57t15 -67.5q0 -91 -62.5 -139.5t-159.5 -48.5z" />
    <glyph glyph-name="nine.lin" horiz-adv-x="568" 
d="M230 232q-85 0 -137.5 53t-52.5 143q0 94 64.5 150t159.5 60v-9q-48 -9 -78 -58.5t-30 -126.5q0 -92 32.5 -133.5t99.5 -41.5q55 0 88 27v-10q-21 -21 -61 -37.5t-85 -16.5zM152 4q111 15 183.5 117.5t72.5 263.5q0 120 -30 177.5t-90 66.5v9q104 -2 170.5 -73t66.5 -189
q0 -155 -105.5 -262.5t-267.5 -119.5v10zM111 17q-23 0 -38.5 15t-15.5 38q0 22 15.5 38t38.5 16t38.5 -16t15.5 -38t-15.5 -37.5t-38.5 -15.5z" />
    <glyph glyph-name="percent.lin" horiz-adv-x="633" 
d="M153 328q-51 6 -87.5 49t-36.5 107q0 63 37 105.5t87 48.5v-10q-49 -13 -49 -144q0 -135 49 -146v-10zM179 338q49 11 49 146q0 131 -49 144v10q49 -6 86 -48.5t37 -105.5q0 -64 -36 -107t-87 -49v10zM455 -8q-51 6 -87.5 48.5t-36.5 106.5t37 106.5t87 48.5v-10
q-50 -12 -50 -145q0 -134 50 -145v-10zM480 2q49 11 49 145q0 132 -49 145v10q50 -6 87 -49t37 -106q0 -64 -36.5 -106.5t-87.5 -48.5v10zM109 4l410 636l17 -13l-410 -635z" />
    <glyph glyph-name="perthousand.lin" horiz-adv-x="944" 
d="M153 328q-51 6 -87.5 49t-36.5 107q0 63 37 105.5t87 48.5v-10q-49 -13 -49 -144q0 -135 49 -146v-10zM179 338q49 11 49 146q0 131 -49 144v10q49 -6 86 -48.5t37 -105.5q0 -64 -36 -107t-87 -49v10zM455 -8q-51 6 -87.5 48.5t-36.5 106.5t37 106.5t87 48.5v-10
q-50 -12 -50 -145q0 -134 50 -145v-10zM480 2q49 11 49 145q0 132 -49 145v10q50 -6 87 -49t37 -106q0 -64 -36.5 -106.5t-87.5 -48.5v10zM766 -8q-51 6 -87.5 48.5t-36.5 106.5t37 106.5t87 48.5v-10q-49 -12 -49 -145q0 -134 49 -145v-10zM791 2q49 11 49 145
q0 132 -49 145v10q50 -6 87 -49t37 -106q0 -64 -36.5 -106.5t-87.5 -48.5v10zM109 4l410 636l17 -13l-410 -635z" />
    <glyph glyph-name="plus.lin" horiz-adv-x="429" 
d="M228 304v-149h-28v149h-148v27h148v148h28v-148h148v-27h-148z" />
    <glyph glyph-name="minus.lin" horiz-adv-x="429" 
d="M52 332h324v-28h-324v28z" />
    <glyph glyph-name="multiply.lin" horiz-adv-x="412" 
d="M205 298l-120 -120l-20 19l121 121l-121 121l20 20l121 -121l121 121l20 -19l-122 -122l122 -121l-20 -19z" />
    <glyph glyph-name="divide.lin" horiz-adv-x="429" 
d="M213 165q-14 0 -24 10.5t-10 25.5q0 14 10 24.5t24 10.5t24.5 -10.5t10.5 -24.5q0 -15 -10.5 -25.5t-24.5 -10.5zM52 332h324v-28h-324v28zM213 399q-14 0 -24 10.5t-10 24.5t10 24.5t24 10.5t24.5 -10.5t10.5 -24.5t-10.5 -24.5t-24.5 -10.5z" />
    <glyph glyph-name="equal.lin" horiz-adv-x="429" 
d="M52 257h324v-28h-324v28zM52 408h324v-27h-324v27z" />
    <glyph glyph-name="less.lin" horiz-adv-x="409" 
d="M60 305v29l287 115v-27l-254 -102l254 -103v-27z" />
    <glyph glyph-name="greater.lin" horiz-adv-x="409" 
d="M62 217l254 103l-254 102v27l287 -114v-30l-287 -115v27z" />
    <glyph glyph-name="zero.num" horiz-adv-x="406" 
d="M193 251q-62 2 -110.5 53.5t-48.5 138.5q0 86 49 137.5t110 53.5v-7q-44 -7 -62.5 -51.5t-18.5 -132.5t18.5 -133t62.5 -52v-7zM213 258q44 7 62.5 52t18.5 133t-18.5 132.5t-62.5 51.5v7q61 -2 110 -53.5t49 -137.5q0 -87 -48.5 -138.5t-110.5 -53.5v7z" />
    <glyph glyph-name="one.num" horiz-adv-x="222" 
d="M8 600l55 13v-35h-55v22zM85 619l73 14v-379h-73v365z" />
    <glyph glyph-name="two.num" horiz-adv-x="328" 
d="M82 329q68 61 92 96q36 50 36 100q0 41 -22.5 62t-62.5 21q-32 0 -66 -16v7q12 15 43.5 26t63.5 11q62 0 91.5 -28t29.5 -76q0 -104 -195 -203h-10zM62 508q-15 0 -24.5 10t-9.5 24t9.5 24t24.5 10q14 0 24 -10t10 -24t-10 -24t-24 -10zM68 312h228l-3 -58h-281z" />
    <glyph glyph-name="three.num" horiz-adv-x="315" 
d="M91 258q50 4 81.5 30.5t31.5 76.5q0 44 -20 63.5t-63 19.5h-16v11h16q73 0 73 83q0 73 -77 73q-37 0 -57 -13v7q29 27 93 27q50 0 82 -23t32 -65q0 -77 -109 -93v-1q60 -7 92.5 -26.5t32.5 -63.5q0 -55 -53.5 -83.5t-138.5 -30.5v8zM54 266q-14 0 -23.5 9.5t-9.5 23.5
t9.5 23.5t23.5 9.5t23.5 -9.5t9.5 -23.5t-9.5 -23.5t-23.5 -9.5zM55 522q-14 0 -23.5 9.5t-9.5 23.5t9.5 23t23.5 9t23.5 -9t9.5 -23t-9.5 -23.5t-23.5 -9.5z" />
    <glyph glyph-name="four.num" horiz-adv-x="356" 
d="M163 569l54 65h23v-380h-77v315zM265 420h75l-2 -55h-73v55zM48 420h90v-55h-134z" />
    <glyph glyph-name="five.num" horiz-adv-x="304" 
d="M86 255q118 12 118 99q0 44 -24.5 64t-80.5 20q-22 0 -47 -5v53q30 6 68 6q145 0 145 -110q0 -122 -179 -133v6zM59 268q-14 0 -23.5 9.5t-9.5 23.5t9.5 23.5t23.5 9.5t23.5 -9.5t9.5 -23.5t-9.5 -23.5t-23.5 -9.5zM52 630h203v-56h-203v56z" />
    <glyph glyph-name="six.num" horiz-adv-x="363" 
d="M194 258q28 6 46 35t18 75q0 55 -18.5 77.5t-58.5 22.5q-26 0 -51 -16v9q36 29 87 29t83.5 -29t32.5 -84q0 -56 -42 -90.5t-97 -36.5v8zM178 250q-64 2 -105 48t-41 112q0 92 63 153.5t160 69.5v-8q-67 -11 -107.5 -69t-40.5 -150q0 -64 18 -103.5t53 -44.5v-8zM279 549
q-15 0 -24.5 9.5t-9.5 23.5t9.5 23.5t24.5 9.5q14 0 23.5 -9.5t9.5 -23.5t-9.5 -23.5t-23.5 -9.5z" />
    <glyph glyph-name="seven.num" horiz-adv-x="294" 
d="M238 549h10l-123 -295h-73zM21 630h256l-22 -58h-234v58z" />
    <glyph glyph-name="eight.num" horiz-adv-x="321" 
d="M156 251q-53 0 -90 23.5t-37 63.5q0 19 12.5 35.5t25 24.5t32.5 17l4 -4q-31 -21 -31 -67q0 -37 22.5 -61.5t61.5 -24.5q85 0 85 67q0 16 -6.5 28t-23 24t-30 19.5t-41.5 21.5q-33 16 -51.5 28t-35 35.5t-16.5 52.5q0 43 34.5 72.5t92.5 29.5q48 0 77.5 -19.5t29.5 -51.5
q0 -25 -17.5 -44.5t-43.5 -28.5l-6 4q28 22 28 67q0 65 -68 65q-32 0 -51.5 -16.5t-19.5 -40.5q0 -14 5 -25.5t18.5 -21.5t24.5 -16.5t34 -18.5q31 -15 45.5 -23t35.5 -24t30 -34t9 -41q0 -54 -40.5 -85t-98.5 -31z" />
    <glyph glyph-name="nine.num" horiz-adv-x="363" 
d="M169 626q-28 -6 -45.5 -35.5t-17.5 -75.5q0 -54 18.5 -76.5t58.5 -22.5q28 0 50 16v-9q-32 -32 -88 -32q-50 0 -82.5 30.5t-32.5 83.5q0 56 42 91t97 37v-7zM185 633q64 -2 105 -48t41 -112q0 -90 -63.5 -152.5t-159.5 -70.5v8q67 11 107.5 69.5t40.5 150.5
q0 64 -18 103.5t-53 44.5v7zM85 335q15 0 24 -9.5t9 -23.5t-9 -23.5t-24 -9.5q-14 0 -23.5 9.5t-9.5 23.5t9.5 23.5t23.5 9.5z" />
    <glyph glyph-name="zero.den" horiz-adv-x="406" 
d="M193 -3q-62 2 -110.5 53.5t-48.5 138.5q0 86 49 137.5t110 53.5v-7q-44 -7 -62.5 -51.5t-18.5 -132.5t18.5 -133t62.5 -52v-7zM213 4q44 7 62.5 52t18.5 133t-18.5 132.5t-62.5 51.5v7q61 -2 110 -53.5t49 -137.5q0 -87 -48.5 -138.5t-110.5 -53.5v7z" />
    <glyph glyph-name="one.den" horiz-adv-x="222" 
d="M8 346l55 13v-35h-55v22zM85 365l73 14v-379h-73v365z" />
    <glyph glyph-name="two.den" horiz-adv-x="328" 
d="M82 75q68 61 92 96q36 50 36 100q0 41 -22.5 62t-62.5 21q-32 0 -66 -16v7q12 15 43.5 26t63.5 11q62 0 91.5 -28t29.5 -76q0 -104 -195 -203h-10zM62 254q-15 0 -24.5 10t-9.5 24t9.5 24t24.5 10q14 0 24 -10t10 -24t-10 -24t-24 -10zM68 58h228l-3 -58h-281z" />
    <glyph glyph-name="three.den" horiz-adv-x="315" 
d="M91 4q50 4 81.5 30.5t31.5 76.5q0 44 -20 63.5t-63 19.5h-16v11h16q73 0 73 83q0 73 -77 73q-37 0 -57 -13v7q29 27 93 27q50 0 82 -23t32 -65q0 -77 -109 -93v-1q60 -7 92.5 -26.5t32.5 -63.5q0 -55 -53.5 -83.5t-138.5 -30.5v8zM54 12q-14 0 -23.5 9.5t-9.5 23.5
t9.5 23.5t23.5 9.5t23.5 -9.5t9.5 -23.5t-9.5 -23.5t-23.5 -9.5zM55 268q-14 0 -23.5 9.5t-9.5 23.5t9.5 23t23.5 9t23.5 -9t9.5 -23t-9.5 -23.5t-23.5 -9.5z" />
    <glyph glyph-name="four.den" horiz-adv-x="356" 
d="M163 315l54 65h23v-380h-77v315zM265 166h75l-2 -55h-73v55zM48 166h90v-55h-134z" />
    <glyph glyph-name="five.den" horiz-adv-x="304" 
d="M86 1q118 12 118 99q0 44 -24.5 64t-80.5 20q-22 0 -47 -5v53q30 6 68 6q145 0 145 -110q0 -122 -179 -133v6zM59 14q-14 0 -23.5 9.5t-9.5 23.5t9.5 23.5t23.5 9.5t23.5 -9.5t9.5 -23.5t-9.5 -23.5t-23.5 -9.5zM52 376h203v-56h-203v56z" />
    <glyph glyph-name="six.den" horiz-adv-x="363" 
d="M194 4q28 6 46 35t18 75q0 55 -18.5 77.5t-58.5 22.5q-26 0 -51 -16v9q36 29 87 29t83.5 -29t32.5 -84q0 -56 -42 -90.5t-97 -36.5v8zM178 -4q-64 2 -105 48t-41 112q0 92 63 153.5t160 69.5v-8q-67 -11 -107.5 -69t-40.5 -150q0 -64 18 -103.5t53 -44.5v-8zM279 295
q-15 0 -24.5 9.5t-9.5 23.5t9.5 23.5t24.5 9.5q14 0 23.5 -9.5t9.5 -23.5t-9.5 -23.5t-23.5 -9.5z" />
    <glyph glyph-name="seven.den" horiz-adv-x="294" 
d="M238 295h10l-123 -295h-73zM21 376h256l-22 -58h-234v58z" />
    <glyph glyph-name="eight.den" horiz-adv-x="321" 
d="M156 -3q-53 0 -90 23.5t-37 63.5q0 19 12.5 35.5t25 24.5t32.5 17l4 -4q-31 -21 -31 -67q0 -37 22.5 -61.5t61.5 -24.5q85 0 85 67q0 16 -6.5 28t-23 24t-30 19.5t-41.5 21.5q-33 16 -51.5 28t-35 35.5t-16.5 52.5q0 43 34.5 72.5t92.5 29.5q48 0 77.5 -19.5t29.5 -51.5
q0 -25 -17.5 -44.5t-43.5 -28.5l-6 4q28 22 28 67q0 65 -68 65q-32 0 -51.5 -16.5t-19.5 -40.5q0 -14 5 -25.5t18.5 -21.5t24.5 -16.5t34 -18.5q31 -15 45.5 -23t35.5 -24t30 -34t9 -41q0 -54 -40.5 -85t-98.5 -31z" />
    <glyph glyph-name="nine.den" horiz-adv-x="363" 
d="M169 372q-28 -6 -45.5 -35.5t-17.5 -75.5q0 -54 18.5 -76.5t58.5 -22.5q28 0 50 16v-9q-32 -32 -88 -32q-50 0 -82.5 30.5t-32.5 83.5q0 56 42 91t97 37v-7zM185 379q64 -2 105 -48t41 -112q0 -90 -63.5 -152.5t-159.5 -70.5v8q67 11 107.5 69.5t40.5 150.5
q0 64 -18 103.5t-53 44.5v7zM85 81q15 0 24 -9.5t9 -23.5t-9 -23.5t-24 -9.5q-14 0 -23.5 9.5t-9.5 23.5t9.5 23.5t23.5 9.5z" />
    <glyph glyph-name="Q.long" horiz-adv-x="697" 
d="M327 -8q-125 6 -211 100t-86 223t86 223t211 100v-10q-60 -9 -99 -57t-54 -112t-15 -144t15 -144t54 -112t99 -57v-10zM371 2q46 7 79.5 35.5t52.5 72.5t27.5 95t8.5 110t-8.5 110t-27.5 95t-52.5 72.5t-79.5 35.5v10q125 -6 211 -100t86 -223t-86 -223t-211 -100v10z
M910 -228q-105 20 -296 79.5t-281 95.5v11q85 -22 288 -60.5t305 -49.5z" />
    <glyph glyph-name="j.short" horiz-adv-x="209" 
d="M-19 -156q71 18 71 108v471l107 13v-419q0 -90 -49 -130.5t-129 -50.5v8zM106 506q-25 0 -42 13t-17 37t17 37.5t42 13.5t42 -13.5t17 -37.5t-17 -37t-42 -13z" />
    <glyph glyph-name="jcircumflex.short" horiz-adv-x="209" 
d="M-10 -156q32 10 47.5 33.5t15.5 74.5v474l107 14v-423q0 -90 -46 -130.5t-124 -50.5v8zM-13 514l115 133h6l114 -133l-5 -7l-110 71h-5l-110 -71z" />
    <glyph glyph-name="Yacute.alt" horiz-adv-x="578" 
d="M230 683q9 6 82.5 45t90.5 51l25 -66q-15 -1 -98 -19t-98 -20zM439 483q28 56 67 147h94l-153 -153zM222 236q0 104 -33.5 177t-91.5 135q-59 59 -108 76v6h61q89 0 150 -57q145 -145 145 -325v-248h-123v236z" />
    <glyph glyph-name="Ydieresis.alt" horiz-adv-x="578" 
d="M439 483q28 56 67 147h94l-153 -153zM222 236q0 104 -33.5 177t-91.5 135q-59 59 -108 76v6h61q89 0 150 -57q145 -145 145 -325v-248h-123v236zM217 685q-20 0 -34 14.5t-14 34.5t14 33.5t34 13.5t34 -13.5t14 -33.5t-14 -34.5t-34 -14.5zM405 685q-19 0 -33 14.5
t-14 34.5t14 33.5t33 13.5q20 0 34.5 -13.5t14.5 -33.5t-14.5 -34.5t-34.5 -14.5z" />
    <glyph glyph-name="Ycircumflex.alt" horiz-adv-x="578" 
d="M190 680l119 120h6l118 -120l-5 -6l-113 61h-6l-114 -61zM439 483q28 56 67 147h94l-153 -153zM222 236q0 104 -33.5 177t-91.5 135q-59 59 -108 76v6h61q89 0 150 -57q145 -145 145 -325v-248h-123v236z" />
    <glyph glyph-name="Ygrave.alt" horiz-adv-x="578" 
d="M439 483q28 56 67 147h94l-153 -153zM222 236q0 104 -33.5 177t-91.5 135q-59 59 -108 76v6h61q89 0 150 -57q145 -145 145 -325v-248h-123v236zM402 674q-15 2 -98 20t-98 19l25 66q17 -12 90.5 -51t82.5 -45z" />
    <glyph glyph-name="questiondown.uc" horiz-adv-x="420" 
d="M310 339q-88 -14 -132.5 -51t-44.5 -128q0 -40 13.5 -70t36.5 -47t47.5 -26t53.5 -12v-9q-71 3 -125.5 17.5t-93 52t-38.5 94.5q0 50 21.5 87t59 59.5t80.5 34.5t95 16v104h27v-122zM337 128q21 0 35.5 -15t14.5 -36t-14.5 -36t-35.5 -15t-36 15t-15 36t15 36t36 15z
M294 635q23 0 38.5 -14t15.5 -37t-15.5 -37t-38.5 -14q-22 0 -37 14t-15 37t15 37t37 14z" />
    <glyph glyph-name="exclamdown.uc" horiz-adv-x="226" 
d="M114 639q23 0 38.5 -14.5t15.5 -38.5q0 -23 -16 -38t-38 -15q-24 0 -39.5 14.5t-15.5 38.5t15.5 38.5t39.5 14.5zM125 468q3 -64 24.5 -236.5t23.5 -231.5h-120q2 56 23.5 229t23.5 239h25z" />
    <glyph glyph-name="hyphen.uc" horiz-adv-x="244" 
d="M43 344h159v-55h-159v55z" />
    <glyph glyph-name="endash.uc" horiz-adv-x="461" 
d="M31 330h400v-27h-400v27z" />
    <glyph glyph-name="emdash.uc" horiz-adv-x="721" 
d="M31 330h660v-27h-660v27z" />
    <glyph glyph-name="guilsinglleft.uc" horiz-adv-x="190" 
d="M32 315v9l119 125l8 -4l-65 -125l65 -125l-8 -4z" />
    <glyph glyph-name="guilsinglright.uc" horiz-adv-x="190" 
d="M31 195l66 125l-66 125l8 4l119 -124v-9l-119 -125z" />
    <glyph glyph-name="guillemotleft.uc" horiz-adv-x="308" 
d="M32 315v9l119 125l8 -4l-65 -125l65 -125l-8 -4zM150 315v9l118 125l8 -4l-65 -125l65 -125l-8 -4z" />
    <glyph glyph-name="guillemotright.uc" horiz-adv-x="308" 
d="M31 195l66 125l-66 125l8 4l119 -124v-9l-119 -125zM149 195l65 125l-65 125l8 4l118 -124v-9l-118 -125z" />
    <glyph glyph-name="parenleft.uc" horiz-adv-x="258" 
d="M213 0q-66 54 -112 135t-46 180q0 100 45.5 180.5t112.5 134.5h18q-92 -129 -92 -315t92 -315h-18z" />
    <glyph glyph-name="parenright.uc" horiz-adv-x="258" 
d="M28 0q92 129 92 315t-92 315h18q66 -53 111.5 -134.5t45.5 -180.5q0 -100 -45.5 -180.5t-112.5 -134.5h-17z" />
    <glyph glyph-name="bracketleft.uc" horiz-adv-x="277" 
d="M76 630h181v-21h-104v-588h104v-21h-181v630z" />
    <glyph glyph-name="bracketright.uc" horiz-adv-x="277" 
d="M20 21h103v588h-103v21h181v-630h-181v21z" />
    <glyph glyph-name="braceleft.uc" horiz-adv-x="316" 
d="M293 0q-172 0 -172 126v84q0 56 -20 76.5t-71 20.5v16q51 0 71 20.5t20 76.5v84q0 126 172 126v-10q-41 -3 -66 -20.5t-25 -64.5v-103q0 -103 -113 -116v-2q113 -13 113 -116v-103q0 -47 25 -64.5t66 -20.5v-10z" />
    <glyph glyph-name="braceright.uc" horiz-adv-x="316" 
d="M23 10q41 3 66 20.5t25 64.5v103q0 103 113 116v2q-113 13 -113 116v103q0 47 -25 64.5t-66 20.5v10q172 0 172 -126v-84q0 -56 20 -76.5t71 -20.5v-16q-51 0 -71 -20.5t-20 -76.5v-84q0 -126 -172 -126v10z" />
    <glyph glyph-name="slash.uc" horiz-adv-x="280" 
d="M6 3l244 635l27 -10l-245 -635z" />
    <glyph glyph-name="backslash.uc" horiz-adv-x="280" 
d="M3 628l28 10l244 -635l-27 -10z" />
    <glyph glyph-name="bar.uc" horiz-adv-x="191" 
d="M79 630h32v-630h-32v630z" />
    <glyph glyph-name="at.uc" horiz-adv-x="715" 
d="M348 -8q-144 0 -231 76t-87 220q0 154 107.5 253.5t267.5 99.5q143 0 213 -67t70 -178q0 -109 -69.5 -181t-180.5 -72h-61l72 368l89 21l2 -2l-70 -363q84 6 140 71t56 158q0 102 -63 164.5t-198 62.5q-153 0 -253 -94.5t-100 -240.5q0 -136 81 -206.5t215 -70.5
q164 0 266 95l13 -15q-101 -99 -279 -99zM241 135q-39 0 -65 30t-26 85q0 102 86.5 181t182.5 88v-8q-70 -16 -125.5 -90t-55.5 -158q0 -79 56 -79q46 0 74 39l5 -5q-19 -32 -54.5 -57.5t-77.5 -25.5z" />
    <glyph glyph-name="uni01FA.sc" horiz-adv-x="473" 
d="M254 560q21 2 35 17.5t14 41.5q0 52 -49 59v14q28 -2 47 -21.5t19 -51.5q0 -31 -20 -51t-46 -22v14zM232 546q-27 2 -46.5 21.5t-19.5 51.5q0 31 19 51t47 22v-14q-49 -7 -49 -59q0 -26 14 -41.5t35 -17.5v-14zM107 213h153l-78 194l42 105h37l203 -512h-118l-76 188
h-173zM1 0q24 36 76 125l12 -3q-6 -66 -6 -122h-82zM162 740q9 6 82.5 45t90.5 51l25 -66q-15 -1 -98 -19.5t-98 -19.5z" />
    <glyph glyph-name="napostrophe.sc" horiz-adv-x="648" 
d="M216 390q-39 50 -96 117h140l319 -419v-90h-67zM150 0q6 20 37 151h11q23 -109 37 -151h-85zM568 359q-19 86 -38 148h86q-12 -42 -38 -148h-10zM-28 348q6 22 17.5 90t14.5 80h91q-8 -20 -53.5 -86.5t-53.5 -83.5h-16z" />
    <glyph glyph-name="uni021A.sc" horiz-adv-x="485" 
d="M14 507h139v-11q-31 -14 -139 -78v89zM187 507h111v-507h-111v507zM471 418q-91 57 -139 78v11h139v-89zM183 -194q0 3 6 64t9 75h91q-6 -12 -47.5 -69t-47.5 -70h-11z" />
    <glyph glyph-name="dollar.sc" horiz-adv-x="415" 
d="M187 205l-21 12q-61 33 -91 66t-30 87q0 62 43 100t111 42v-8q-33 -5 -53.5 -26t-20.5 -51q0 -34 16.5 -54.5t67.5 -47.5l27 250h19l-27 -260l15 -8q71 -40 102 -72t31 -85q0 -70 -47.5 -111t-115.5 -45v9q39 10 61 31t22 65q0 30 -20 49.5t-71 47.5l-27 -262h-19z
M315 403q-18 0 -31 13t-13 31t13 31t31 13t30.5 -13t12.5 -31t-12.5 -31t-30.5 -13zM82 26q-18 0 -30.5 12.5t-12.5 30.5t12.5 31t30.5 13t31 -13t13 -31t-13 -30.5t-31 -12.5z" />
    <glyph glyph-name="Euro.sc" horiz-adv-x="467" 
d="M13 314h63q17 81 73.5 137.5t148.5 67.5v-9q-111 -26 -122 -196h158l-2 -16h-157v-17q0 -31 3 -57h117l-1 -16h-113q26 -141 149 -141q75 0 121 39v-13q-47 -102 -175 -102q-86 0 -142 58.5t-64 158.5h-58l1 16h56v19q0 30 4 55h-61zM377 404q-20 0 -33.5 13t-13.5 33
t13.5 33t33.5 13t33 -13t13 -33t-13 -33t-33 -13z" />
    <glyph glyph-name="sterling.sc" horiz-adv-x="448" 
d="M29 248h63l6 50q12 102 66 154.5t156 60.5v-8q-100 -22 -113 -147l-13 -110h112v-15h-114l-28 -233h-102l28 233h-61v15zM213 9q96 20 199 62v-71h-199v9zM364 392q-20 0 -33 13t-13 32q0 20 13 33.5t33 13.5t33 -13.5t13 -33.5q0 -19 -13 -32t-33 -13z" />
    <glyph glyph-name="yen.sc" horiz-adv-x="478" 
d="M61 263h91l-143 247h121l144 -247h111v-16h-107v-60h107v-16h-107v-171h-111v171h-106v16h106v50l-6 10h-100v16zM340 369q0 14 25.5 72.5t25.5 68.5h82q-73 -81 -124 -146z" />
    <glyph glyph-name="zero.sc" horiz-adv-x="543" 
d="M259 -7q-83 4 -149.5 72.5t-66.5 185.5t67 187t149 74v-10q-55 -9 -77.5 -69t-22.5 -182q0 -121 22.5 -180t77.5 -68v-10zM284 3q55 9 77.5 68t22.5 180q0 122 -22.5 182t-77.5 69v10q83 -4 150 -74t67 -187t-67 -185.5t-150 -72.5v10z" />
    <glyph glyph-name="one.sc" horiz-adv-x="289" 
d="M3 466l73 20v-50h-73v30zM101 492l111 22v-514h-111v492z" />
    <glyph glyph-name="two.sc" horiz-adv-x="444" 
d="M115 97q32 28 54 50.5t50 57.5t43 75t15 82q0 118 -116 118q-45 0 -80 -19v9q16 16 53.5 29t79.5 13q84 0 129 -38t45 -105q0 -149 -257 -272h-16zM97 76h309l-4 -76h-384zM80 343q-20 0 -34.5 14.5t-14.5 34.5t14.5 34t34.5 14t34 -14t14 -34t-14 -34.5t-34 -14.5z" />
    <glyph glyph-name="three.sc" horiz-adv-x="417" 
d="M112 4q65 7 107 40t42 98q0 63 -26.5 89t-83.5 26h-24v13h24q99 0 99 118q0 49 -24 72t-77 23q-48 0 -76 -17v9q41 36 125 36q69 0 114.5 -30.5t45.5 -86.5q0 -108 -147 -128v-1q76 -7 119.5 -34.5t43.5 -89.5q0 -37 -22 -65.5t-60.5 -45.5t-83 -25.5t-96.5 -10.5v10z
M67 20q-20 0 -33 13.5t-13 33.5t13 33t33 13t33.5 -13t13.5 -33t-13.5 -33.5t-33.5 -13.5zM67 354q-19 0 -32 13t-13 33q0 19 13 32t32 13q20 0 32.5 -13t12.5 -32q0 -20 -12.5 -33t-32.5 -13z" />
    <glyph glyph-name="four.sc" horiz-adv-x="475" 
d="M4 146l53 75h130v-75h-183zM217 433l65 84h47v-517h-112v433zM358 221h100l-2 -75h-98v75z" />
    <glyph glyph-name="five.sc" horiz-adv-x="403" 
d="M97 3q72 6 121 41t49 93q0 60 -33.5 85t-110.5 25q-37 0 -70 -7l3 74q41 9 101 9q205 0 205 -152q0 -81 -70.5 -127t-194.5 -50v9zM66 17q-20 0 -34 14t-14 34t14 34t34 14t33.5 -14t13.5 -34t-13.5 -34t-33.5 -14zM70 505h278v-80h-281z" />
    <glyph glyph-name="six.sc" horiz-adv-x="492" 
d="M268 3q37 7 57.5 48.5t20.5 107.5q0 74 -21.5 102t-74.5 28q-40 0 -65 -21v11q15 16 46.5 27.5t66.5 11.5q71 0 115.5 -39.5t44.5 -112.5q0 -77 -54.5 -124t-135.5 -49v10zM246 -7q-96 5 -150.5 64t-54.5 156q0 125 90 206.5t222 91.5v-9q-90 -12 -144 -91t-54 -210
q0 -96 22 -144t69 -54v-10zM379 384q-20 0 -34.5 15t-14.5 35q0 21 14.5 35.5t34.5 14.5q21 0 35.5 -14.5t14.5 -35.5q0 -20 -14.5 -35t-35.5 -15z" />
    <glyph glyph-name="seven.sc" horiz-adv-x="411" 
d="M330 387h12l-171 -387h-111zM29 505h353l-30 -87h-328z" />
    <glyph glyph-name="eight.sc" horiz-adv-x="434" 
d="M209 -7q-74 0 -124 29.5t-50 86.5q0 66 102 101l7 -6q-40 -31 -41 -80q0 -54 25.5 -87.5t80.5 -33.5q109 0 109 85q0 38 -31 64.5t-99 60.5q-30 14 -43.5 21.5t-36.5 23.5t-33.5 30.5t-19.5 38.5t-9 52q0 59 48 96t127 37q71 0 113 -28.5t42 -72.5q0 -64 -93 -93l-8 5
q35 29 36 81q0 98 -90 98q-41 0 -66 -22t-25 -56q0 -36 29 -61.5t92 -57.5q75 -37 112 -71.5t37 -90.5q0 -72 -52 -111t-139 -39z" />
    <glyph glyph-name="nine.sc" horiz-adv-x="492" 
d="M198 183q-72 0 -117.5 42.5t-45.5 113.5q0 78 54.5 124t135.5 48v-9q-36 -8 -57.5 -50.5t-21.5 -103.5q0 -73 23.5 -102.5t74.5 -29.5q39 0 64 21v-11q-43 -43 -110 -43zM133 3q93 12 149 90.5t56 210.5q0 96 -22 143.5t-69 54.5v9q96 -3 150.5 -61t54.5 -155
q0 -127 -88.5 -209.5t-230.5 -92.5v10zM102 22q-20 0 -34.5 14.5t-14.5 34.5q0 21 14.5 36t34.5 15q21 0 35.5 -15t14.5 -36q0 -20 -14.5 -34.5t-35.5 -14.5z" />
    <glyph glyph-name="percent.sc" horiz-adv-x="544" 
d="M136 267q-44 7 -74 39t-30 87q0 54 30 86.5t74 39.5v-9q-21 -6 -30.5 -32t-9.5 -85t9.5 -85.5t30.5 -32.5v-8zM159 275q41 12 41 118q0 59 -10 85t-31 32v9q45 -6 75 -39t30 -87q0 -55 -30 -87.5t-75 -38.5v8zM385 -8q-45 6 -75 39t-30 87q0 55 30 87.5t75 38.5v-9
q-21 -6 -31 -32t-10 -85t10 -85.5t31 -32.5v-8zM407 0q21 6 31 32.5t10 85.5t-10 85t-31 32v9q45 -6 75 -38.5t30 -87.5q0 -54 -30 -87t-75 -39v8zM86 4l355 515l17 -12l-355 -515z" />
    <glyph glyph-name="perthousand.sc" horiz-adv-x="811" 
d="M136 267q-44 7 -74 39t-30 87q0 54 30 86.5t74 39.5v-9q-21 -6 -30.5 -32t-9.5 -85t9.5 -85.5t30.5 -32.5v-8zM159 275q41 12 41 118q0 59 -10 85t-31 32v9q45 -6 75 -39t30 -87q0 -55 -30 -87.5t-75 -38.5v8zM385 -8q-45 6 -75 39t-30 87q0 55 30 87.5t75 38.5v-9
q-21 -6 -31 -32t-10 -85t10 -85.5t31 -32.5v-8zM407 0q21 6 31 32.5t10 85.5t-10 85t-31 32v9q45 -6 75 -38.5t30 -87.5q0 -54 -30 -87t-75 -39v8zM652 -8q-45 6 -75 39t-30 87q0 55 30 87.5t75 38.5v-9q-21 -6 -31 -32t-10 -85t10 -85.5t31 -32.5v-8zM674 0q21 6 31 32.5
t10 85.5t-10 85t-31 32v9q45 -6 75 -38.5t30 -87.5q0 -54 -30 -87t-75 -39v8zM86 4l355 515l17 -12l-355 -515z" />
    <glyph glyph-name="slash.sc" horiz-adv-x="265" 
d="M-4 -14l248 536l26 -11l-249 -536z" />
    <glyph glyph-name="backslash.sc" horiz-adv-x="265" 
d="M-4 511l26 11l248 -536l-26 -11z" />
    <glyph glyph-name="bar.sc" horiz-adv-x="177" 
d="M73 507h31v-507h-31v507z" />
    <glyph glyph-name="Cacute.pl" horiz-adv-x="580" 
d="M347 -8q-146 8 -231 93.5t-85 229.5q0 135 94 224.5t225 98.5v-11q-92 -15 -142 -96t-50 -216q0 -136 48.5 -216.5t140.5 -95.5v-11zM387 3q82 24 165 93v-81q-59 -17 -165 -23v11zM547 539q-47 37 -80.5 57t-76.5 31v11q97 -4 157 -21v-78zM345 670q5 12 47.5 71
t48.5 72l52 -44q-13 -7 -73 -53.5t-68 -51.5z" />
    <glyph glyph-name="acute.ucpl" 
d="M163 670q5 12 47.5 71t48.5 72l52 -44q-13 -7 -73 -53.5t-68 -51.5z" />
    <glyph glyph-name="Cacute.scpl" horiz-adv-x="505" 
d="M302 -6q-124 6 -198 75t-74 185q0 108 81.5 180.5t193.5 78.5v-10q-157 -26 -157 -249q0 -226 154 -250v-10zM338 4q56 15 139 86v-78q-46 -14 -139 -18v10zM472 421q-60 60 -131 82v10q86 -2 131 -17v-75zM293 536q47 142 58 171l68 -34l-117 -140z" />
    <glyph glyph-name="acute.pl" 
d="M174 485q47 142 58 171l68 -34l-117 -140z" />
    <glyph glyph-name="Nacute.pl" horiz-adv-x="624" 
d="M314 670q5 12 47.5 71t48.5 72l52 -44q-13 -7 -73 -53.5t-68 -51.5zM128 484q-48 66 -113 146h154l381 -539v-94h-80zM37 0q27 92 43 168h12q19 -93 43 -168h-98zM538 466q-18 82 -44 164h99q-20 -63 -44 -164h-11z" />
    <glyph glyph-name="Nacute.scpl" horiz-adv-x="538" 
d="M106 390q-39 50 -96 117h140l319 -419v-90h-67zM40 0q6 20 37 151h11q23 -109 37 -151h-85zM458 359q-19 86 -38 148h86q-12 -42 -38 -148h-10zM282 536q47 142 58 171l68 -34l-117 -140z" />
    <glyph glyph-name="Oacute.pl" horiz-adv-x="698" 
d="M330 670q5 12 47.5 71t48.5 72l52 -44q-13 -7 -73 -53.5t-68 -51.5zM327 -8q-125 6 -211 100t-86 223t86 223t211 100v-10q-60 -9 -99.5 -57t-55 -112t-15.5 -144t15.5 -144t55 -112t99.5 -57v-10zM371 2q61 9 100.5 57t54.5 112t15 144t-15 144t-54.5 112t-100.5 57v10
q125 -6 211 -100t86 -223t-86 -223t-211 -100v10z" />
    <glyph glyph-name="Oacute.scpl" horiz-adv-x="596" 
d="M279 -7q-105 6 -177 81.5t-72 179.5q0 103 72 178.5t177 79.5v-10q-70 -9 -101.5 -78t-31.5 -170q0 -65 11.5 -116t42.5 -89t79 -46v-10zM317 3q132 20 132 251q0 232 -132 248v10q105 -4 177 -78.5t72 -179.5q0 -106 -71.5 -180.5t-177.5 -80.5v10zM279 536
q47 142 58 171l68 -34l-117 -140z" />
    <glyph glyph-name="Q.sc.long" horiz-adv-x="592" 
d="M277 -7q-106 6 -176.5 81.5t-70.5 179.5q0 103 70.5 178.5t176.5 79.5v-10q-128 -17 -128 -248t128 -251v-10zM315 3q128 20 128 251q0 232 -128 248v10q106 -4 176.5 -78.5t70.5 -179.5q0 -106 -70.5 -180.5t-176.5 -80.5v10zM709 -168q-203 45 -413 123l1 11
q78 -16 223 -36.5t202 -24.5z" />
    <glyph glyph-name="Sacute.pl" horiz-adv-x="473" 
d="M226 2q48 10 80 40.5t32 88.5q0 44 -23 68t-91 62l-47 24q-66 34 -101 73.5t-35 100.5q0 77 57.5 126t132.5 53v-10q-41 -6 -69.5 -33.5t-28.5 -67.5q0 -49 22.5 -73.5t95.5 -64.5l40 -21q39 -22 56.5 -33t41.5 -33t33.5 -49.5t9.5 -64.5q0 -85 -62.5 -138.5
t-143.5 -57.5v10zM182 -8q-98 5 -147 23v80q65 -67 147 -93v-10zM403 549q-68 66 -128 79v10q68 0 128 -16v-73zM237 670q5 12 47.5 71t48.5 72l52 -44q-13 -7 -73 -53.5t-68 -51.5z" />
    <glyph glyph-name="Sacute.scpl" horiz-adv-x="403" 
d="M199 3q86 15 86 99q0 32 -21.5 52t-77.5 48l-39 20q-55 27 -83 60t-28 86q0 63 48 102t112 43v-10q-33 -4 -54.5 -25.5t-21.5 -53.5q0 -36 18.5 -57t71.5 -47l34 -17q47 -24 70 -39.5t40.5 -44.5t17.5 -70q0 -68 -52.5 -111t-120.5 -45v10zM160 -7q-78 2 -127 19v76
q70 -68 127 -85v-10zM346 434q-70 58 -111 69v10q61 0 111 -13v-66zM196 536q47 142 58 171l68 -34l-117 -140z" />
    <glyph glyph-name="Y.scalt" horiz-adv-x="483" 
d="M178 187q0 124 -86 232q-55 69 -99 81v7h38q98 0 155 -61q102 -108 102 -254v-192h-110v187zM355 380q44 102 53 127h87l-131 -131z" />
    <glyph glyph-name="Yacute.scalt" horiz-adv-x="483" 
d="M171 575l73.5 45.5l91.5 55.5l28 -72l-190 -37zM178 187q0 124 -86 232q-55 69 -99 81v7h38q98 0 155 -61q102 -108 102 -254v-192h-110v187zM355 380q44 102 53 127h87l-131 -131z" />
    <glyph glyph-name="Ycircumflex.scalt" horiz-adv-x="483" 
d="M140 565l115 133h6l114 -133l-5 -7l-110 71h-5l-110 -71zM178 187q0 124 -86 232q-55 69 -99 81v7h38q98 0 155 -61q102 -108 102 -254v-192h-110v187zM355 380q44 102 53 127h87l-131 -131z" />
    <glyph glyph-name="Ydieresis.scalt" horiz-adv-x="483" 
d="M178 574q-20 0 -33 13.5t-13 32.5t13 32t33 13q18 0 31.5 -13t13.5 -32t-13.5 -32.5t-31.5 -13.5zM337 574q-18 0 -31.5 13.5t-13.5 32.5t13.5 32t31.5 13q20 0 33 -13t13 -32t-13 -32.5t-33 -13.5zM178 187q0 124 -86 232q-55 69 -99 81v7h38q98 0 155 -61
q102 -108 102 -254v-192h-110v187zM355 380q44 102 53 127h87l-131 -131z" />
    <glyph glyph-name="Ygrave.scalt" horiz-adv-x="483" 
d="M178 187q0 124 -86 232q-55 69 -99 81v7h38q98 0 155 -61q102 -108 102 -254v-192h-110v187zM355 380q44 102 53 127h87l-131 -131zM142 604l28 72l165 -101l-4 -8z" />
    <glyph glyph-name="Zacute.pl" horiz-adv-x="560" 
d="M45 630h244v-11q-107 -25 -251 -74zM399 630h134l-373 -630h-133zM263 10q36 7 73.5 17.5t56.5 16.5t67 23l63 22l-8 -89h-252v10zM258 670q5 12 47.5 71t48.5 72l52 -44q-13 -7 -73 -53.5t-68 -51.5z" />
    <glyph glyph-name="Zacute.scpl" horiz-adv-x="485" 
d="M39 507h207v-12q-55 -14 -212 -69zM337 507h119l-316 -507h-118zM229 10q40 10 73.5 20t83.5 28t68 24l-6 -82h-219v10zM229 536q47 142 58 171l68 -34l-117 -140z" />
    <glyph glyph-name="bullet.sc" horiz-adv-x="263" 
d="M132 183q-33 0 -55.5 22.5t-22.5 55.5t22.5 56t55.5 23t55 -23t22 -56t-22 -55.5t-55 -22.5z" />
    <glyph glyph-name="cacute.pl" horiz-adv-x="411" 
d="M235 -8q-97 0 -153 61.5t-56 157.5q0 102 69 160t175 67v-9q-61 -8 -98.5 -57t-37.5 -127q0 -77 39 -126t106 -49q70 0 121 43v-10q-16 -42 -57 -76.5t-108 -34.5zM334 317q-22 0 -37 15t-15 37t15 37t37 15q23 0 37.5 -15t14.5 -37q0 -23 -14.5 -37.5t-37.5 -14.5z
M225 485q47 142 58 171l68 -34l-117 -140z" />
    <glyph glyph-name="cent.sc" horiz-adv-x="489" 
d="M273 -6q-27 0 -44 4l-13 -72h-17l14 75q-82 20 -132 85.5t-50 152.5q0 112 70.5 183t181.5 90v-10q-63 -13 -107.5 -72t-44.5 -152q0 -60 25.5 -109t74.5 -73l94 489h17l-95 -495q30 -12 70 -12q48 0 92.5 17t62.5 40l3 -7q-20 -52 -70.5 -93t-131.5 -41zM399 387
q-23 0 -38 15.5t-15 37.5q0 23 15 38t38 15t38 -15t15 -38t-15 -38t-38 -15z" />
    <glyph glyph-name="copyright.sc" horiz-adv-x="587" 
d="M310 7q101 8 164.5 75t63.5 171t-63.5 171t-164.5 75v14q107 -8 176 -79t69 -181t-69 -180.5t-176 -78.5v13zM321 422q67 -6 89 -13v-49q-43 36 -89 52v10zM277 -6q-107 8 -176 78.5t-69 180.5t69 181t176 79v-14q-101 -8 -165 -75t-64 -171q0 -103 64 -170.5t165 -75.5
v-13zM321 95q48 14 91 53v-49q-35 -11 -91 -14v10zM122 253q0 73 48 118t124 51v-10q-48 -8 -73.5 -50t-25.5 -109q0 -68 26.5 -109t72.5 -49v-10q-75 4 -123.5 49t-48.5 119z" />
    <glyph glyph-name="degree.lin" horiz-adv-x="317" 
d="M143 415q-43 2 -71.5 33.5t-28.5 77.5q0 47 28.5 78t71.5 34v-15q-35 -3 -58.5 -29.5t-23.5 -67.5t23.5 -67t58.5 -30v-14zM173 429q36 4 59.5 30t23.5 67t-23.5 67.5t-59.5 29.5v15q43 -4 72 -35t29 -77q0 -45 -29.5 -77t-71.5 -34v14z" />
    <glyph glyph-name="divide.sc" horiz-adv-x="429" 
d="M52 275h324v-27h-324v27zM213 109q-14 0 -24 10.5t-10 24.5t10 24.5t24 10.5t24.5 -10.5t10.5 -24.5t-10.5 -24.5t-24.5 -10.5zM213 343q-14 0 -24 10t-10 25q0 14 10 24.5t24 10.5t24.5 -10.5t10.5 -24.5q0 -15 -10.5 -25t-24.5 -10z" />
    <glyph glyph-name="f.short" horiz-adv-x="246" 
d="M61 395h-59v35h59v91q0 151 198 166v-9q-92 -16 -92 -112v-136h92v-35h-92v-395h-106v395z" />
    <glyph glyph-name="f_f.short" horiz-adv-x="484" 
d="M65 395h-59v35h59v78q0 145 200 166v-9q-94 -17 -94 -105v-130h117v89q0 19 3 36q-29 11 -29 43q0 20 13.5 32.5t34.5 12.5q13 0 27 -8q51 44 149 52v-9q-39 -7 -65.5 -34.5t-26.5 -79.5v-134h92v-35h-92v-395h-106v395h-117v-395h-106v395z" />
    <glyph glyph-name="florin.lin" horiz-adv-x="429" 
d="M123 417h61l9 49q27 152 194 167l-2 -9q-33 -8 -49.5 -33t-26.5 -80l-16 -94h95l-6 -34h-95l-36 -210q-17 -98 -63 -136.5t-134 -44.5l2 9q37 10 52.5 35t27.5 96l43 251h-62zM411 519q-21 0 -34.5 13t-13.5 32q0 20 13.5 32.5t34.5 12.5q20 0 33.5 -12.5t13.5 -32.5
q0 -19 -13.5 -32t-33.5 -13zM30 18q-20 0 -33 12.5t-13 31.5q0 18 13 31t33 13t33 -13t13 -31q0 -19 -13 -31.5t-33 -12.5z" />
    <glyph glyph-name="florin.sc" horiz-adv-x="428" 
d="M113 328h63l3 17q12 72 61 115.5t133 51.5l-3 -11q-36 -8 -52.5 -34t-26.5 -79l-10 -60h91l-5 -30h-91l-22 -131q-29 -163 -189 -175l2 10q9 2 16.5 5t14 9l10.5 9.5t8 12.5t6.5 13t5.5 17t4 17t4 20t4 20l30 173h-62zM394 400q-20 0 -33 12t-13 32q0 19 13 31t33 12
t32.5 -12t12.5 -31q0 -20 -12.5 -32t-32.5 -12zM36 20q-19 0 -31.5 12t-12.5 31q0 18 12.5 30t31.5 12t31.5 -12t12.5 -30q0 -19 -12.5 -31t-31.5 -12z" />
    <glyph glyph-name="gbreve.alt" horiz-adv-x="503" 
d="M202 9q-81 0 -128 51.5t-47 140.5q0 105 66.5 169t158.5 68v-8q-116 -18 -116 -201q0 -86 32.5 -124.5t85.5 -38.5q45 0 71 26v-9q-9 -26 -41.5 -50t-81.5 -24zM177 -169q80 9 124.5 46t44.5 115v417q-26 17 -57 21v8q107 -2 164 -16v-413q0 -95 -69 -139t-207 -48v9z
M113 -156q-21 0 -34.5 11.5t-13.5 31.5q0 19 14 31t34 12q21 0 34 -11.5t13 -31.5t-13 -31.5t-34 -11.5zM265 505q-45 0 -74.5 32t-34.5 85h11q6 -29 31 -45.5t67 -16.5q41 0 66 16.5t31 45.5h11q-5 -52 -34 -84.5t-74 -32.5z" />
    <glyph glyph-name="gcircumflex.alt" horiz-adv-x="503" 
d="M147 514l115 133h6l114 -133l-5 -7l-110 71h-5l-110 -71zM202 9q-81 0 -128 51.5t-47 140.5q0 105 66.5 169t158.5 68v-8q-116 -18 -116 -201q0 -86 32.5 -124.5t85.5 -38.5q45 0 71 26v-9q-9 -26 -41.5 -50t-81.5 -24zM177 -169q80 9 124.5 46t44.5 115v417
q-26 17 -57 21v8q107 -2 164 -16v-413q0 -95 -69 -139t-207 -48v9zM113 -156q-21 0 -34.5 11.5t-13.5 31.5q0 19 14 31t34 12q21 0 34 -11.5t13 -31.5t-13 -31.5t-34 -11.5z" />
    <glyph glyph-name="gcommaaccent.alt" horiz-adv-x="503" 
d="M202 9q-81 0 -128 51.5t-47 140.5q0 105 66.5 169t158.5 68v-8q-116 -18 -116 -201q0 -86 32.5 -124.5t85.5 -38.5q45 0 71 26v-9q-9 -26 -41.5 -50t-81.5 -24zM177 -169q80 9 124.5 46t44.5 115v417q-26 17 -57 21v8q107 -2 164 -16v-413q0 -95 -69 -139t-207 -48v9z
M113 -156q-21 0 -34.5 11.5t-13.5 31.5q0 19 14 31t34 12q21 0 34 -11.5t13 -31.5t-13 -31.5t-34 -11.5z" />
    <glyph glyph-name="gdotaccent.alt" horiz-adv-x="503" 
d="M202 9q-81 0 -128 51.5t-47 140.5q0 105 66.5 169t158.5 68v-8q-116 -18 -116 -201q0 -86 32.5 -124.5t85.5 -38.5q45 0 71 26v-9q-9 -26 -41.5 -50t-81.5 -24zM177 -169q80 9 124.5 46t44.5 115v417q-26 17 -57 21v8q107 -2 164 -16v-413q0 -95 -69 -139t-207 -48v9z
M113 -156q-21 0 -34.5 11.5t-13.5 31.5q0 19 14 31t34 12q21 0 34 -11.5t13 -31.5t-13 -31.5t-34 -11.5zM264 500q-24 0 -41.5 16.5t-17.5 41.5q0 26 17 42t42 16t42.5 -16t17.5 -42t-17.5 -42t-42.5 -16z" />
    <glyph glyph-name="greater.sc" horiz-adv-x="429" 
d="M82 159l254 102l-254 103v27l287 -114v-30l-287 -115v27z" />
    <glyph glyph-name="kcommaaccent.alt" horiz-adv-x="463" 
d="M190 -194q0 3 6 64t9 75h91q-6 -12 -47.5 -69t-47.5 -70h-11zM389 0q-29 0 -43 8t-30 32q-27 32 -75 95.5t-49 64.5l74 72q55 -85 140 -193q34 -44 62 -74v-5h-79zM50 675l107 13v-688h-107v675zM314 339q12 58 13 91h115q-55 -39 -122 -98z" />
    <glyph glyph-name="less.sc" horiz-adv-x="429" 
d="M59 246v30l287 115v-27l-253 -103l253 -102v-27z" />
    <glyph glyph-name="multiply.sc" horiz-adv-x="429" 
d="M214 242l-121 -121l-19 19l121 121l-121 121l19 20l121 -122l122 122l19 -19l-122 -122l122 -121l-19 -20z" />
    <glyph glyph-name="nacute.pl" horiz-adv-x="493" 
d="M234 485q47 142 58 171l68 -34l-117 -140zM338 303q0 79 -81 79q-41 0 -78 -24v7q23 31 61.5 52t81.5 21q61 0 92 -33.5t31 -92.5v-312h-107v303zM50 427l107 12v-439h-107v427z" />
    <glyph glyph-name="numbersign.lin" horiz-adv-x="603" 
d="M26 231h106l-5 -24h-106zM68 435h108l-5 -23h-108zM241 630h29l-133 -629h-29zM208 231h147l-5 -24h-146zM251 435h148l-5 -23h-148zM464 630h28l-132 -629h-29zM431 231h108l-5 -24h-108zM474 435h108l-4 -23h-108z" />
    <glyph glyph-name="numbersign.sc" horiz-adv-x="500" 
d="M21 182h90l-6 -24h-88zM58 354h91l-5 -24h-91zM208 507h29l-111 -507h-29zM188 182h90l-5 -24h-89zM226 354h90l-5 -24h-90zM372 507h29l-110 -507h-30zM353 182h95l-5 -24h-95zM391 354h92l-5 -24h-92z" />
    <glyph glyph-name="oacute.pl" horiz-adv-x="512" 
d="M237 -8q-91 8 -151.5 71t-60.5 152t60.5 152t151.5 71v-8q-26 -6 -43 -21q-57 -45 -57 -194q0 -147 57 -194q19 -16 43 -20v-9zM274 1q23 4 44 20q57 47 57 194q0 149 -57 194q-18 15 -44 21v8q91 -8 152 -71t61 -152q0 -88 -61 -151.5t-152 -71.5v9zM237 485
q47 142 58 171l68 -34l-117 -140z" />
    <glyph glyph-name="paragraph.sc" horiz-adv-x="429" 
d="M323 455h18v-455h-18v455zM209 190h18v-190h-18v190zM185 224q-68 0 -115 36.5t-47 103.5q0 65 45.5 104t116.5 39h228v-16h-186v-267h-42z" />
    <glyph glyph-name="registered.sc" horiz-adv-x="395" 
d="M128 441h42v-190h-42v190zM239 251l-56 90q25 6 35.5 15t10.5 32q0 25 -9.5 35t-33.5 12v6q25 -2 40.5 -5t30.5 -15.5t15 -33.5q0 -33 -45 -48q11 -15 28 -41.5t29 -42.5v-4h-45zM216 178q63 8 102 53t39 107q0 63 -39 107t-102 54v12q69 -10 112.5 -57t43.5 -116
t-43.5 -116.5t-112.5 -55.5v12zM178 166q-69 8 -112 55.5t-43 116.5t43 116t112 57v-12q-63 -10 -101.5 -53.5t-38.5 -107.5q0 -63 38.5 -106.5t101.5 -53.5v-12z" />
    <glyph glyph-name="sacute.pl" horiz-adv-x="362" 
d="M178 1q31 4 54.5 25t23.5 55q0 29 -16 45.5t-52 32.5l-64 29q-93 44 -93 121q0 51 41 88t103 41v-8q-28 -4 -46.5 -20t-18.5 -43q0 -48 55 -72l79 -36q91 -42 91 -122q0 -63 -43.5 -102t-113.5 -43v9zM147 -8q-77 6 -114 17v77q67 -68 114 -85v-9zM306 355
q-46 53 -105 75v8q59 -1 105 -15v-68zM169 485q47 142 58 171l68 -34l-117 -140z" />
    </font>
</defs>
</svg>
